<svg width="10" height="10" viewBox="0 0 10 10" fill="none" xmlns="http://www.w3.org/2000/svg">
<path id="Vector" d="M10 0.874578C10 0.653671 9.91225 0.441811 9.75604 0.285606C9.59984 0.129401 9.38798 0.0416467 9.16707 0.0416467L2.50362 0C2.28272 0 2.07086 0.0877551 1.91465 0.24396C1.75845 0.400165 1.67069 0.612024 1.67069 0.832931C1.67069 1.05384 1.75845 1.2657 1.91465 1.4219C2.07086 1.57811 2.28272 1.66586 2.50362 1.66586H7.13472L0.24638 8.57086C0.16831 8.64829 0.106345 8.74041 0.0640583 8.84191C0.0217715 8.94341 0 9.05228 0 9.16224C0 9.2722 0.0217715 9.38107 0.0640583 9.48256C0.106345 9.58407 0.16831 9.67619 0.24638 9.75362C0.323811 9.83169 0.415934 9.89366 0.517435 9.93594C0.618935 9.97823 0.727804 10 0.837761 10C0.947717 10 1.05659 9.97823 1.15809 9.93594C1.25959 9.89366 1.35171 9.83169 1.42914 9.75362L8.33414 2.84862V7.49638C8.33414 7.71728 8.42189 7.92914 8.5781 8.08535C8.7343 8.24155 8.94616 8.32931 9.16707 8.32931C9.38798 8.32931 9.59984 8.24155 9.75604 8.08535C9.91225 7.92914 10 7.71728 10 7.49638V0.874578Z" fill="#364042"/>
</svg>
