<svg width="156" height="32" viewBox="0 0 156 32" fill="none" xmlns="http://www.w3.org/2000/svg">
<path d="M47.9604 4.81909C51.7803 4.81909 54.8871 6.78327 56.0485 10.1727H52.0792C51.2638 8.57872 49.7852 7.80313 47.9368 7.80313C44.9271 7.80313 42.7825 9.91084 42.7825 13.2751C42.7825 16.6394 44.9271 18.7471 47.9368 18.7471C49.7852 18.7471 51.256 17.964 52.0792 16.3523H56.0616C54.9002 19.7645 51.7934 21.706 47.9735 21.706C43.0185 21.706 39.2432 18.2233 39.2432 13.2776C39.2432 8.33194 43.0054 4.82161 47.9604 4.82161" fill="#F6F7F8"/>
<path d="M67.4978 8.44043H71.1735L62.7026 27.7674H59.0506L62.0079 21.2328L56.5337 8.44043H60.4086L63.9349 17.6066L67.4978 8.44043Z" fill="#F6F7F8"/>
<path d="M80.0823 8.22625C83.585 8.22625 86.3195 10.8577 86.3195 14.9548C86.3195 19.0519 83.585 21.774 80.0823 21.774C77.9378 21.774 76.4067 20.8171 75.5703 19.6915V21.5499H72.1175V4.01587H75.5703V10.3617C76.4067 9.15294 78.0112 8.22877 80.0823 8.22877M79.17 11.1398C77.3216 11.1398 75.5729 12.5147 75.5729 15.0001C75.5729 17.4856 77.3216 18.8605 79.17 18.8605C81.0183 18.8605 82.7958 17.4377 82.7958 14.9523C82.7958 12.4669 81.0471 11.1398 79.17 11.1398Z" fill="#F6F7F8"/>
<path d="M93.9041 21.774C89.9216 21.774 87.0482 19.1249 87.0482 15.0026C87.0482 10.8804 89.8561 8.22876 93.9041 8.22876C97.952 8.22876 100.637 10.8124 100.637 14.7206C100.639 15.1487 100.608 15.5743 100.537 15.9973H90.5456C90.7187 17.9388 92.0977 19.0292 93.8254 19.0292C94.9947 19.0972 96.0854 18.4601 96.5625 17.4352H100.288C99.5487 19.8627 97.2782 21.7765 93.9041 21.7765M90.5849 13.7713H97.0685C97.0213 12.0388 95.5925 10.9534 93.8149 10.9534C92.1475 10.9534 90.8445 11.9859 90.5849 13.7713Z" fill="#F6F7F8"/>
<path d="M105.282 21.55H101.829V8.44038H105.282V10.4776C106.155 9.05985 107.76 8.20619 109.474 8.24648V11.7291H108.562C106.517 11.7291 105.282 12.4871 105.282 15.0204V21.5525V21.55Z" fill="#F6F7F8"/>
<path d="M118.852 8.22625C122.355 8.22625 125.092 10.8577 125.092 14.9548C125.092 19.0519 122.352 21.774 118.852 21.774C116.707 21.774 115.182 20.8171 114.34 19.6915V21.5499H110.887V4.01587H114.34V10.3617C115.179 9.15294 116.781 8.22877 118.852 8.22877M117.942 11.1398C116.091 11.1398 114.34 12.5147 114.34 15.0001C114.34 17.4856 116.089 18.8605 117.942 18.8605C119.796 18.8605 121.563 17.4377 121.563 14.9523C121.563 12.4669 119.814 11.1398 117.942 11.1398Z" fill="#F6F7F8"/>
<path d="M132.053 8.22616C133.823 8.16824 135.506 8.94887 136.565 10.3112V8.4402H140.044V21.5498H136.565V19.636C135.514 21.0235 133.817 21.8218 132.029 21.7664C128.577 21.7664 125.816 19.0442 125.816 14.9472C125.816 10.8501 128.577 8.22616 132.053 8.22616ZM132.944 11.1397C131.093 11.1397 129.342 12.4668 129.342 14.9648C129.342 17.4628 131.091 18.873 132.944 18.873C134.798 18.873 136.565 17.4981 136.565 15.0126C136.565 12.5272 134.843 11.1397 132.944 11.1397Z" fill="#F6F7F8"/>
<path d="M152.324 8.44043H156L147.54 27.7674H143.867L146.827 21.2328L141.352 8.44043H145.222L148.748 17.6066L152.324 8.44043Z" fill="#F6F7F8"/>
<mask id="mask0_850_66" style="mask-type:luminance" maskUnits="userSpaceOnUse" x="6" y="0" width="23" height="18">
<path d="M16.6305 2.71776C18.161 2.71776 19.628 3.2986 20.7105 4.33838L22.2709 5.84068C20.1431 5.93748 18.1274 6.79799 16.623 8.24651L10.5608 14.0693C8.57116 12.1295 8.33226 9.08908 9.99713 6.88404C10.1726 6.65816 10.363 6.44662 10.5683 6.24942L12.5542 4.34196C13.6367 3.30219 15.1037 2.71776 16.6342 2.72135L16.6305 2.71776ZM10.5496 2.41658L8.5637 4.31687C8.2576 4.61087 7.9739 4.92639 7.71633 5.25984C5.21902 8.55485 5.57738 13.1048 8.5637 16.0018L10.5571 17.9236L18.6276 10.1755C20.8822 8.02062 24.5256 8.02062 26.7802 10.1755L28.7848 8.25009L22.7151 2.41658C21.0353 0.806723 18.8329 0 16.6305 0C14.4281 0 12.2294 0.806723 10.5459 2.41658" fill="white"/>
</mask>
<g mask="url(#mask0_850_66)">
<path d="M28.7845 0H5.21869V17.9236H28.7845V0Z" fill="#F6F7F8"/>
</g>
<mask id="mask1_850_66" style="mask-type:luminance" maskUnits="userSpaceOnUse" x="14" y="5" width="17" height="12">
<path d="M21.6887 13.0796L18.6464 10.1575C20.8973 8.00621 24.5294 8.00621 26.7803 10.1575L23.7418 13.0796C23.4581 13.3521 23.0885 13.4883 22.7152 13.4883C22.3419 13.4883 21.9724 13.3521 21.6887 13.0796ZM16.6306 8.23926L14.6298 10.1539L19.6766 15.0014C20.4792 15.7758 21.5729 16.2133 22.7115 16.2097C23.85 16.2097 24.94 15.7758 25.7426 15.0014L30.7895 10.1539L28.7961 8.23926C27.1163 6.62582 24.9139 5.81909 22.7152 5.81909C20.5128 5.81909 18.3104 6.62582 16.6343 8.23926" fill="white"/>
</mask>
<g mask="url(#mask1_850_66)">
<path d="M30.7944 5.81909H14.6347V16.2133H30.7944V5.81909Z" fill="#F6F7F8"/>
</g>
<mask id="mask2_850_66" style="mask-type:luminance" maskUnits="userSpaceOnUse" x="0" y="5" width="19" height="22">
<path d="M6.48031 21.8139L4.52427 19.9351C4.52427 19.9351 4.50934 19.9207 4.50187 19.9136C2.26213 17.7372 2.28453 14.2307 4.54667 12.083L6.07342 10.6309C6.18914 12.6531 7.07384 14.5641 8.56326 16.0019L14.6217 21.8246L14.5882 21.8569C13.4646 22.9074 12.0087 23.4309 10.5529 23.4309C9.09706 23.4309 7.60391 22.8931 6.47657 21.8139M2.5533 10.1433C2.5533 10.1433 2.5309 10.1648 2.5197 10.1755C-0.839901 13.4024 -0.839901 18.6336 2.5197 21.8605L4.47574 23.7464C6.08835 25.2917 8.27583 26.1558 10.5529 26.1522C12.8038 26.1522 14.9614 25.3061 16.5703 23.7966L18.6346 21.8282L10.5678 14.0801C8.56699 12.1403 8.32436 9.08913 10.0004 6.8805L7.85774 5.10571L2.54957 10.1504L2.5533 10.1433Z" fill="white"/>
</mask>
<g mask="url(#mask2_850_66)">
<path d="M18.6364 5.09863H-0.838074V26.1523H18.6364V5.09863Z" fill="#F6F7F8"/>
</g>
<mask id="mask3_850_66" style="mask-type:luminance" maskUnits="userSpaceOnUse" x="4" y="17" width="27" height="15">
<path d="M12.5522 27.6474L10.9844 26.1415C13.0823 26.0375 15.0682 25.2057 16.5688 23.793L18.3121 22.133C20.6153 19.9279 24.2959 19.7988 26.7596 21.839L20.7086 27.651C19.5813 28.7302 18.1068 29.2716 16.6286 29.2716C15.1503 29.2716 13.6758 28.7302 12.5485 27.651M16.3075 20.2112L14.5867 21.8605C12.3245 23.9759 8.71482 23.958 6.47509 21.821L4.47052 23.75L10.5439 29.5835C12.1566 31.1324 14.344 32.0001 16.6286 32.0001C18.9094 32.0001 21.0968 31.1324 22.7094 29.5799L30.7762 21.8318L29.0927 20.2148C27.327 18.5224 25.0126 17.6763 22.6982 17.6763C20.3839 17.6763 18.0695 18.5224 16.3038 20.2148" fill="white"/>
</mask>
<g mask="url(#mask3_850_66)">
<path d="M30.7804 17.6721H4.47467V31.9995H30.7804V17.6721Z" fill="#F6F7F8"/>
</g>
<mask id="mask4_850_66" style="mask-type:luminance" maskUnits="userSpaceOnUse" x="10" y="10" width="7" height="6">
<path d="M10.5692 14.0728L12.5626 15.9874L16.6314 12.0864L14.6231 10.1575L10.5692 14.0728Z" fill="white"/>
</mask>
<g mask="url(#mask4_850_66)">
<path d="M13.0742 7.2906L7.57947 13.5803L14.1279 18.858L19.6226 12.5683L13.0742 7.2906Z" fill="#F6F7F8"/>
</g>
</svg>
