<svg width="16" height="16" viewBox="0 0 16 16" fill="none" xmlns="http://www.w3.org/2000/svg">
<path id="Vector" d="M0.184042 0.113043C0.258685 0.0520565 0.349365 0.0139468 0.445165 0.00330239C0.540964 -0.007342 0.637798 0.00993281 0.724008 0.0530467L15.7231 7.55257C15.8063 7.59403 15.8762 7.65787 15.9252 7.73692C15.9741 7.81596 16 7.90708 16 8.00004C16 8.093 15.9741 8.18412 15.9252 8.26316C15.8762 8.34221 15.8063 8.40604 15.7231 8.44751L0.724008 15.947C0.637885 15.9902 0.541137 16.0075 0.445395 15.997C0.349653 15.9864 0.258994 15.9485 0.184319 15.8876C0.109644 15.8268 0.0541326 15.7457 0.0244593 15.654C-0.0052141 15.5624 -0.00778611 15.4641 0.0170528 15.3711L1.98293 8.00054L0.0170528 0.63001C-0.00790552 0.536912 -0.00542186 0.438585 0.0242049 0.346866C0.0538316 0.255148 0.109338 0.173948 0.184042 0.113043ZM2.88387 8.50051L1.26997 14.5561L14.3811 8.00054L1.26897 1.44496L2.88387 7.50057H9.49945C9.63205 7.50057 9.75922 7.55325 9.85298 7.64701C9.94674 7.74077 9.99942 7.86794 9.99942 8.00054C9.99942 8.13314 9.94674 8.26031 9.85298 8.35407C9.75922 8.44783 9.63205 8.50051 9.49945 8.50051H2.88387Z" fill="#4F6B7C"/>
</svg>
