<svg width="165" height="50" viewBox="0 0 165 50" fill="none" xmlns="http://www.w3.org/2000/svg">
    <g clip-path="url(#clip0_206_1140)">
        <path fill-rule="evenodd" clip-rule="evenodd"
              d="M33.1835 28.9371C33.8395 28.6596 34.0035 29.492 33.6345 30.7208C33.2245 31.8704 32.4865 33.0992 31.8716 33.5353C31.1336 33.9713 30.7646 33.2974 31.0926 31.9497C31.3796 30.5623 32.3635 29.1749 33.1835 28.9371Z"
              fill="#364042"/>
        <path fill-rule="evenodd" clip-rule="evenodd"
              d="M30.0268 24.4577C31.2567 24.3785 32.0357 25.6073 31.9127 27.1929C31.7077 28.7388 30.6827 30.1262 29.4938 30.364C28.1818 30.5622 27.1979 29.4127 27.3619 27.7082C27.4439 25.964 28.6738 24.4974 30.0268 24.4577Z"
              fill="#364042"/>
        <path fill-rule="evenodd" clip-rule="evenodd"
              d="M31.7898 10.3064C32.3638 10.7821 33.1427 12.0109 33.5527 13.1605C33.9217 14.3893 33.7577 15.1821 33.1017 14.865C32.2818 14.6271 31.3388 13.2397 31.0108 11.8523C30.6828 10.5442 31.0518 9.87037 31.7898 10.3064Z"
              fill="#364042"/>
        <path fill-rule="evenodd" clip-rule="evenodd"
              d="M22.77 39.6793C24.1639 39.3622 24.8609 39.8378 24.4509 40.6703C23.9999 41.3838 22.688 42.2162 21.499 42.6126C20.1871 42.9694 19.3261 42.6919 19.6131 41.9387C19.8591 41.027 21.294 39.9964 22.77 39.6793Z"
              fill="#364042"/>
        <path fill-rule="evenodd" clip-rule="evenodd"
              d="M10.9626 40.7893C12.6845 40.7893 14.0375 41.6217 13.9555 42.573C13.8735 43.3658 12.5615 43.9604 11.0446 44.0001C9.52765 43.9604 8.21571 43.3262 8.09271 42.5334C7.92872 41.5424 9.24066 40.7496 10.9626 40.7893Z"
              fill="#364042"/>
        <path fill-rule="evenodd" clip-rule="evenodd"
              d="M21.4581 1.34784C22.6471 1.74423 23.959 2.57667 24.41 3.29018C24.861 4.12261 24.123 4.63793 22.7291 4.28117C21.2531 3.96405 19.8182 2.93342 19.5312 2.02171C19.2852 1.26856 20.1462 0.991081 21.4581 1.34784Z"
              fill="#364042"/>
        <path fill-rule="evenodd" clip-rule="evenodd"
              d="M33.7166 19.0271C34.4136 19.146 34.9056 20.3352 34.9466 21.7622C34.9056 23.1496 34.4136 24.3784 33.7576 24.4577C32.9377 24.5766 32.1997 23.3478 32.1997 21.7226C32.1997 20.1766 32.8967 18.9478 33.7166 19.0271Z"
              fill="#364042"/>
        <path fill-rule="evenodd" clip-rule="evenodd"
              d="M27.1569 5.39088C28.1408 5.86656 29.2888 7.01611 29.7807 8.04674C30.2317 9.15665 29.7807 9.83052 28.6738 9.47376C27.4439 9.15665 26.1319 7.84854 25.7629 6.58007C25.3939 5.43052 26.0499 4.91521 27.1569 5.39088Z"
              fill="#364042"/>
        <path fill-rule="evenodd" clip-rule="evenodd"
              d="M11.0035 0C12.5204 0 13.8324 0.594595 13.9143 1.42703C13.9963 2.37838 12.6844 3.21081 10.9625 3.21081C9.24055 3.25045 7.96961 2.45766 8.0516 1.50631C8.1746 0.673874 9.48654 0.0396396 11.0035 0Z"
              fill="#364042"/>
        <path fill-rule="evenodd" clip-rule="evenodd"
              d="M20.3921 5.54956C20.1461 4.36038 18.6702 3.25047 17.0713 3.09191C15.5133 2.97299 14.2834 3.72614 14.1604 4.87569C14.0374 5.5892 13.6274 6.26308 13.3404 6.42164C12.8895 6.69912 12.3155 7.05587 11.0855 6.89731H11.1265H10.8805C9.03562 6.93695 7.47769 8.20542 7.43669 9.79101C7.35469 11.4559 8.91262 12.8433 10.8395 12.8433C12.7665 12.8433 14.1604 11.6144 14.2834 10.0685C14.7754 8.87929 15.9233 7.84866 17.5222 7.80902C19.3262 7.92794 20.5971 6.89731 20.3921 5.54956Z"
              fill="#364042"/>
        <path d="M28.6329 34.6053C28.3459 34.6846 28.0589 34.8035 27.7719 35.0017C26.747 35.3585 26.173 34.8432 26.542 33.7729C26.583 33.6936 26.583 33.5747 26.624 33.4954C26.665 33.3369 26.747 33.1783 26.747 33.0197C26.911 31.8305 26.337 30.8396 25.312 30.5224C25.312 30.5224 21.6222 29.8882 21.1302 32.9405C21.0892 35.3981 19.0803 36.1116 18.8753 36.1909C18.7523 36.2305 18.6293 36.2702 18.5473 36.3098H18.5063C15.5544 37.1423 14.5705 34.7639 14.5705 34.7639C14.4065 34.3675 14.4475 33.9711 14.3655 33.5747C14.1605 32.0684 12.6846 30.9188 10.9216 30.9188C8.95374 30.9188 7.4368 32.3062 7.5188 33.9711C7.60079 35.4774 8.95374 36.7062 10.6347 36.8648C13.3405 37.1026 14.1195 37.1423 14.2835 39.4414C14.2835 39.4414 14.3655 39.7188 14.4065 39.7585C14.7755 40.5909 15.8824 41.0666 17.1534 40.9477C18.7933 40.7495 20.2282 39.6792 20.4742 38.49V38.4504C20.5972 38.054 20.7612 37.6972 21.0072 37.3801C21.0072 37.3537 21.0209 37.3272 21.0482 37.3008C21.5402 36.4684 22.9751 35.636 24.4101 35.4774C24.6561 35.4378 24.902 35.4378 25.107 35.4378C25.599 35.4774 25.927 35.5963 26.091 35.8341C26.091 35.8341 26.091 35.8738 26.132 35.8738V35.9134C26.255 36.1116 26.255 36.4287 26.132 36.8251C26.009 37.0233 25.927 37.2215 25.886 37.4594C25.517 38.6089 26.173 39.0846 27.2799 38.6486C28.2639 38.1729 29.4118 37.0233 29.9038 36.0323C30.1908 34.9224 29.7398 34.2486 28.6329 34.6053Z"
              fill="#364042"/>
        <path fill-rule="evenodd" clip-rule="evenodd"
              d="M31.1337 16.3314C30.6827 14.8647 29.5758 13.7945 28.5508 13.953C27.4029 14.1512 26.7059 15.3801 26.8699 16.8071C26.8699 17.7188 26.8699 19.4629 23.836 19.4629C23.1391 19.3837 22.5241 19.0665 22.1141 18.6701C21.5811 17.9566 21.3761 16.9656 21.3761 16.1332V16.0143C21.4171 15.8161 21.4171 15.6179 21.4171 15.4197V14.8647C21.2531 13.1602 19.8182 11.8918 18.0143 11.9711C17.9323 11.9711 17.8503 11.971 17.8093 12.0107C16.1284 12.09 14.7754 13.3584 14.5704 14.9837C14.4884 15.3801 14.4474 15.7368 14.4064 16.0539C14.2834 17.6395 12.8075 18.9476 10.9216 18.908C9.15866 18.908 7.76472 17.7981 7.51873 16.371C7.35474 15.7368 7.35474 15.1026 7.19075 14.5873C7.10875 14.3891 7.02676 14.1909 6.90376 14.0323C6.37078 12.962 5.22283 12.2882 3.95189 12.3278C2.10697 12.4467 0.590036 13.9927 0.467041 15.8161V16.3314C0.590036 17.7584 1.65599 18.8683 3.00893 19.1458C4.15688 19.3837 4.97684 18.8683 6.16579 19.8197C6.65777 20.2557 7.02676 20.9296 7.19075 21.9206C7.23175 23.744 8.70768 25.2503 10.5936 25.3692H11.3316C13.1355 25.1314 14.4884 23.6647 14.4884 21.9602C14.4884 21.9206 14.4884 21.881 14.5294 21.8017C14.6114 21.2071 14.8574 20.6521 15.1854 20.2161C15.3084 20.0575 15.4724 19.899 15.6364 19.7404C16.0874 19.344 16.6203 19.1062 17.2353 19.0269H17.7683C19.3262 19.1855 20.5152 20.7314 20.4332 22.4756C20.4332 22.6341 20.4332 22.5945 20.3922 22.9116V23.2287C20.5562 25.0125 22.1141 26.3999 24 26.3999C26.0089 26.3999 27.6079 24.8539 27.6489 22.9116C27.6489 22.6341 27.5669 22.1981 27.5259 21.9602C27.4849 21.762 27.4849 21.5638 27.4849 21.4053C27.4849 21.0882 27.4849 20.7314 27.5669 20.4143C27.7719 19.4629 28.4278 19.4629 28.8378 19.5422C28.9198 19.5819 29.0428 19.6215 29.1248 19.6215C29.4528 19.7008 29.8218 19.7008 30.1498 19.5819C31.0517 19.2251 31.4617 17.7981 31.1337 16.3314Z"
              fill="#364042"/>
        <path fill-rule="evenodd" clip-rule="evenodd"
              d="M26.3369 12.5658C27.0749 11.2974 26.5829 9.5136 25.189 8.56224C23.9181 7.69017 22.3191 7.76945 21.4172 8.7208C21.4172 8.7208 19.8592 10.4649 22.2371 12.4469C22.2371 12.4866 24.82 14.5082 26.3369 12.5658Z"
              fill="#364042"/>
        <path d="M20.6254 28.6352C20.8565 26.8098 19.6956 25.1705 18.0325 24.9737C16.3693 24.7768 14.8337 26.0969 14.6026 27.9222C14.3715 29.7476 15.5323 31.3869 17.1955 31.5838C18.8586 31.7806 20.3942 30.4605 20.6254 28.6352Z"
              fill="#364042"/>
        <path d="M46.8004 29.472H45.0374L42.9465 14.5278H45.0374L45.9394 22.2972L45.9804 22.7729H46.1444L46.2264 22.2972L47.2103 14.5278H48.8503L49.8342 22.2972L49.9162 22.7729H50.0802L50.1212 22.2972L51.0232 14.5278H53.1141L51.0232 29.472H49.2193L48.1533 22.3765L48.0303 21.5044H47.9893L47.8663 22.3765L46.8004 29.472Z"
              fill="#364042"/>
        <path d="M67.1817 26.4001C67.1407 26.9947 67.0178 27.5496 66.8128 28.0253C66.6078 28.4217 66.3208 28.8181 65.9108 29.1352C65.5008 29.4523 64.9268 29.6505 64.1479 29.6505C63.4099 29.6505 62.7949 29.4523 62.385 29.1352C61.975 28.8181 61.688 28.4613 61.483 28.0253C61.237 27.5496 61.114 26.9947 61.114 26.4001V17.6001C61.155 17.0055 61.278 16.4505 61.483 15.9748C61.688 15.5784 61.934 15.1424 62.385 14.8649C62.7949 14.5478 63.4099 14.3496 64.1479 14.3496C64.8858 14.3496 65.4598 14.5478 65.9108 14.8649C66.3208 15.182 66.6078 15.5784 66.8128 15.9748C67.0588 16.4505 67.1817 17.0055 67.1817 17.6001V26.4001ZM64.9268 17.6001C64.9268 17.2037 64.8448 16.9262 64.6399 16.6487C64.5169 16.5298 64.3529 16.4901 64.1889 16.4901C63.7789 16.4901 63.6149 16.7676 63.5329 17.0451C63.4509 17.2037 63.4509 17.4019 63.4509 17.6001V26.4001C63.4509 26.8361 63.5739 27.1136 63.7789 27.3514C63.9019 27.4703 64.0249 27.51 64.2299 27.51C64.6399 27.51 64.8039 27.2721 64.8858 26.955C64.9678 26.7965 64.9678 26.6379 64.9678 26.4001V17.6001H64.9268Z"
              fill="#364042"/>
        <path d="M79.2407 29.4918L78.0518 23.1891H77.4368V29.4918H75.1819V14.5081H77.4368C80.1427 14.5081 81.3316 15.9747 81.3316 18.8288C81.3316 20.2954 80.9216 21.6432 80.0607 22.2378L81.4956 29.4918H79.2407ZM77.4368 21.1279C77.7648 21.1279 78.1748 21.0882 78.5027 20.8108C78.8307 20.5333 79.1177 19.9783 79.1177 18.9081C79.1177 17.8378 78.8307 17.2828 78.5027 17.0054C78.1748 16.7279 77.7648 16.6882 77.4368 16.6882V21.1279Z"
              fill="#364042"/>
        <path d="M89.4956 14.5278H91.7505V27.4504H94.7434V29.472H89.4956V14.5278Z" fill="#364042"/>
        <path d="M102.743 29.4918V14.5081H104.547C106.638 14.5081 107.786 14.9045 108.401 16.054C108.975 17.2036 109.057 19.0666 109.057 21.9999C109.057 24.9333 108.975 26.7963 108.401 27.9063C107.786 29.0558 106.638 29.4522 104.547 29.4522H102.743V29.4918ZM105.039 27.272C105.818 27.272 106.269 27.1927 106.474 26.4396C106.597 26.0828 106.679 25.5675 106.679 24.854C106.72 24.1405 106.72 23.1891 106.72 21.9603C106.72 20.7315 106.72 19.7801 106.679 19.0666C106.638 18.3927 106.556 17.8378 106.474 17.481C106.228 16.7675 105.818 16.6882 105.039 16.6882V27.272Z"
              fill="#364042"/>
        <path d="M120.911 29.472H119.148L117.057 14.5278H119.148L120.05 22.2972L120.091 22.7729H120.255L120.337 22.2972L121.321 14.5278H122.961L123.945 22.2972L124.027 22.7729H124.191L124.232 22.2972L125.134 14.5278H127.225L125.134 29.472H123.371L122.305 22.3765L122.182 21.5044H122.1L121.977 22.3765L120.911 29.472Z"
              fill="#364042"/>
        <path d="M135.225 14.5278H137.48V29.472H135.225V14.5278Z" fill="#364042"/>
        <path d="M145.479 29.4918V14.5081H147.283C149.374 14.5081 150.522 14.9045 151.137 16.054C151.711 17.2036 151.793 19.0666 151.793 21.9999C151.793 24.9333 151.711 26.7963 151.137 27.9063C150.522 29.0558 149.374 29.4522 147.283 29.4522H145.479V29.4918ZM147.734 27.272C148.513 27.272 148.964 27.1927 149.169 26.4396C149.292 26.0828 149.374 25.5675 149.374 24.854C149.415 24.1405 149.415 23.1891 149.415 21.9603C149.415 20.7315 149.415 19.7801 149.374 19.0666C149.333 18.3927 149.251 17.8378 149.169 17.481C148.923 16.7675 148.513 16.6882 147.734 16.6882V27.272Z"
              fill="#364042"/>
        <path d="M159.793 14.5081H165V16.7675H162.089V20.6918H164.18V23.1099H162.089V27.2324H165V29.4918H159.793V14.5081Z"
              fill="#364042"/>
        <path d="M68.6577 44.061H71.0356C72.4296 44.061 73.3315 44.8142 73.3315 46.0034C73.3315 47.3115 72.2656 47.9854 70.9126 47.9854H69.7237V49.8484H68.6577V44.061ZM70.9126 47.0736C71.6916 47.0736 72.2246 46.6376 72.2246 46.043C72.2246 45.3691 71.7326 45.0124 70.9126 45.0124H69.6827V47.1133H70.9126V47.0736Z"
              fill="#364042"/>
        <path d="M83.9554 44.0215H84.9394L87.5633 49.8882H86.4563L85.8413 48.5008H83.0125L82.3975 49.8882H81.3315L83.9554 44.0215ZM85.4724 47.5494L84.4474 45.2107L83.4225 47.5494H85.4724Z"
              fill="#364042"/>
        <path d="M95.5632 44.061H98.2281C98.9661 44.061 99.5811 44.2592 99.95 44.6556C100.278 44.9727 100.442 45.4088 100.442 45.9241C100.442 46.8755 99.868 47.47 99.0071 47.6682L100.647 49.8484H99.4171L97.9411 47.8268H96.6292V49.8484H95.5632V44.061ZM98.1871 46.9547C98.9251 46.9547 99.4171 46.5583 99.4171 46.0034C99.4171 45.3691 98.9661 45.052 98.1871 45.052H96.6702V46.9944H98.1871V46.9547Z"
              fill="#364042"/>
        <path d="M110.533 44.9926H108.647V44.0413H113.526V44.9926H111.64V49.8683H110.574L110.533 44.9926Z"
              fill="#364042"/>
        <path d="M121.526 44.0413H122.51L125.749 48.0449V44.0413H126.774V49.8683H125.872L122.551 45.7458V49.8683H121.526V44.0413Z"
              fill="#364042"/>
        <path d="M134.774 44.0413H139.242V44.953H135.84V46.4593H138.833V47.371H135.84V48.9566H139.283V49.8683H134.774V44.0413Z"
              fill="#364042"/>
        <path d="M147.324 44.061H149.989C150.727 44.061 151.342 44.2592 151.711 44.6556C152.039 44.9727 152.203 45.4088 152.203 45.9241C152.203 46.8755 151.629 47.47 150.768 47.6682L152.408 49.8484H151.178L149.702 47.8268H148.349V49.8484H147.283V44.061H147.324ZM149.907 46.9547C150.645 46.9547 151.137 46.5583 151.137 46.0034C151.137 45.3691 150.686 45.052 149.907 45.052H148.39V46.9944L149.907 46.9547Z"
              fill="#364042"/>
        <path d="M160.408 48.9946L161.023 48.2811C161.597 48.7568 162.171 49.0342 162.909 49.0342C163.565 49.0342 163.975 48.7568 163.975 48.3207C163.975 47.9243 163.729 47.6865 162.622 47.4486C161.351 47.1315 160.613 46.7748 160.613 45.7045C160.613 44.7135 161.474 44 162.663 44C163.524 44 164.221 44.2378 164.836 44.7135L164.262 45.4667C163.729 45.0703 163.196 44.8721 162.622 44.8721C162.007 44.8721 161.638 45.1892 161.638 45.5459C161.638 45.982 161.925 46.1802 163.073 46.4577C164.344 46.7748 165 47.2108 165 48.1622C165 49.2324 164.098 49.9063 162.868 49.9063C161.966 49.9459 161.105 49.6288 160.408 48.9946Z"
              fill="#364042"/>
    </g>
    <defs>
        <clipPath id="clip0_206_1140">
            <rect width="164.533" height="49.9096" fill="white" transform="translate(0.467041)"/>
        </clipPath>
    </defs>
</svg>
