<svg width="21" height="20" viewBox="0 0 21 20" fill="none" xmlns="http://www.w3.org/2000/svg">
<g id="rocket-launch">
<path id="Vector" d="M13.492 11.9747C13.579 12.344 13.625 12.7291 13.625 13.125C13.625 15.8864 11.3864 18.125 8.625 18.125V14.1253M13.492 11.9747C16.6037 9.70093 18.625 6.02395 18.625 1.875C14.4762 1.87518 10.7996 3.89655 8.52602 7.00813M13.492 11.9747C12.0682 13.0151 10.4162 13.7617 8.625 14.1253M8.52602 7.00813C8.15648 6.92106 7.77112 6.875 7.375 6.875C4.61358 6.875 2.375 9.11358 2.375 11.875H6.3756M8.52602 7.00813C7.48571 8.43189 6.73917 10.0839 6.3756 11.875M8.625 14.1253C8.53882 14.1428 8.45233 14.1594 8.36552 14.1751C7.60976 13.5758 6.92492 12.891 6.32566 12.1352C6.34141 12.0482 6.35806 11.9614 6.3756 11.875M4.50992 13.8673C3.59345 14.551 3 15.6437 3 16.875C3 17.0724 3.01525 17.2662 3.04464 17.4554C3.23379 17.4848 3.42761 17.5 3.625 17.5C4.85631 17.5 5.94902 16.9066 6.6327 15.9901M14.25 7.5C14.25 8.19036 13.6904 8.75 13 8.75C12.3096 8.75 11.75 8.19036 11.75 7.5C11.75 6.80964 12.3096 6.25 13 6.25C13.6904 6.25 14.25 6.80964 14.25 7.5Z" stroke="#045DE3" stroke-width="1.5" stroke-linecap="round" stroke-linejoin="round"/>
</g>
</svg>
