<svg width="134" height="28" viewBox="0 0 134 28" fill="none" xmlns="http://www.w3.org/2000/svg">
    <path d="M40.9735 4.2168C44.2369 4.2168 46.8911 5.93545 47.8833 8.90123H44.4923C43.7957 7.50648 42.5324 6.82783 40.9534 6.82783C38.3821 6.82783 36.5499 8.67208 36.5499 11.6158C36.5499 14.5596 38.3821 16.4038 40.9534 16.4038C42.5324 16.4038 43.789 15.7186 44.4923 14.3084H47.8945C46.9023 17.294 44.2481 18.9928 40.9847 18.9928C36.7515 18.9928 33.5262 15.9455 33.5262 11.618C33.5262 7.29054 36.7403 4.219 40.9735 4.219"
          fill="#02255B"/>
    <path d="M57.6646 7.38538H60.8048L53.568 24.2965H50.448L52.9745 18.5787L48.2978 7.38538H51.6082L54.6208 15.4058L57.6646 7.38538Z"
          fill="#02255B"/>
    <path d="M68.4158 7.198C71.4082 7.198 73.7443 9.50056 73.7443 13.0855C73.7443 16.6704 71.4082 19.0523 68.4158 19.0523C66.5837 19.0523 65.2756 18.215 64.5611 17.2301V18.8562H61.6113V3.51392H64.5611V9.06649C65.2756 8.00885 66.6464 7.20021 68.4158 7.20021M67.6364 9.74734C66.0573 9.74734 64.5634 10.9504 64.5634 13.1252C64.5634 15.2999 66.0573 16.503 67.6364 16.503C69.2155 16.503 70.734 15.258 70.734 13.0833C70.734 10.9085 69.2401 9.74734 67.6364 9.74734Z"
          fill="#02255B"/>
    <path d="M80.224 19.0524C76.8218 19.0524 74.3669 16.7344 74.3669 13.1275C74.3669 9.5205 76.7658 7.20032 80.224 7.20032C83.6823 7.20032 85.9758 9.46101 85.9758 12.8807C85.9781 13.2553 85.9512 13.6276 85.8907 13.9978H77.3548C77.5027 15.6966 78.6808 16.6507 80.1568 16.6507C81.1558 16.7102 82.0875 16.1527 82.4952 15.256H85.6779C85.0463 17.38 83.1067 19.0546 80.224 19.0546M77.3884 12.05H82.9275C82.8872 10.5341 81.6665 9.5844 80.1479 9.5844C78.7234 9.5844 77.6102 10.4878 77.3884 12.05Z"
          fill="#02255B"/>
    <path d="M89.9447 18.8562H86.9949V7.38533H89.9447V9.16789C90.6905 7.92737 92.0613 7.18042 93.5261 7.21567V10.263H92.7467C90.9996 10.263 89.9447 10.9262 89.9447 13.1428V18.8584V18.8562Z"
          fill="#02255B"/>
    <path d="M101.538 7.198C104.53 7.198 106.868 9.50056 106.868 13.0855C106.868 16.6704 104.528 19.0523 101.538 19.0523C99.7054 19.0523 98.4018 18.215 97.6828 17.2301V18.8562H94.733V3.51392H97.6828V9.06649C98.3996 8.00885 99.7681 7.20021 101.538 7.20021M100.76 9.74734C99.179 9.74734 97.6828 10.9504 97.6828 13.1252C97.6828 15.2999 99.1768 16.503 100.76 16.503C102.344 16.503 103.854 15.258 103.854 13.0833C103.854 10.9085 102.36 9.74734 100.76 9.74734Z"
          fill="#02255B"/>
    <path d="M112.815 7.19795C114.327 7.14727 115.765 7.83032 116.67 9.02236V7.38524H119.642V18.8561H116.67V17.1816C115.772 18.3956 114.323 19.0941 112.795 19.0456C109.845 19.0456 107.487 16.6638 107.487 13.0788C107.487 9.49389 109.845 7.19795 112.815 7.19795ZM113.577 9.74728C111.996 9.74728 110.499 10.9085 110.499 13.0942C110.499 15.28 111.993 16.5139 113.577 16.5139C115.161 16.5139 116.67 15.3109 116.67 13.1361C116.67 10.9614 115.199 9.74728 113.577 9.74728Z"
          fill="#02255B"/>
    <path d="M130.134 7.38538H133.274L126.046 24.2965H122.908L125.437 18.5787L120.76 7.38538H124.066L127.079 15.4058L130.134 7.38538Z"
          fill="#02255B"/>
    <mask id="mask0_835_584" style="mask-type:luminance" maskUnits="userSpaceOnUse" x="5" y="0" width="20" height="16">
        <path d="M14.2078 2.37804C15.5153 2.37804 16.7686 2.88628 17.6934 3.79608L19.0265 5.11059C17.2087 5.1953 15.4866 5.94824 14.2014 7.21569L9.02232 12.3106C7.32254 10.6133 7.11843 7.95295 8.54077 6.02354C8.69065 5.82589 8.8533 5.64079 9.0287 5.46824L10.7253 3.79922C11.6501 2.88941 12.9034 2.37804 14.211 2.38118L14.2078 2.37804ZM9.01275 2.11451L7.31616 3.77726C7.05465 4.03451 6.81228 4.31059 6.59224 4.60236C4.45874 7.4855 4.76489 11.4667 7.31616 14.0016L9.01913 15.6832L15.9139 8.90354C17.8401 7.01804 20.9527 7.01804 22.8789 8.90354L24.5914 7.21883L19.406 2.11451C17.9709 0.705883 16.0893 0 14.2078 0C12.3262 0 10.4478 0.705883 9.00956 2.11451"
              fill="white"/>
    </mask>
    <g mask="url(#mask0_835_584)">
        <path d="M24.5911 0H4.45844V15.6832H24.5911V0Z" fill="#02255B"/>
    </g>
    <mask id="mask1_835_584" style="mask-type:luminance" maskUnits="userSpaceOnUse" x="12" y="5" width="15" height="10">
        <path d="M18.529 11.4447L15.9299 8.88788C17.8529 7.00552 20.9559 7.00552 22.8789 8.88788L20.283 11.4447C20.0407 11.6832 19.7249 11.8024 19.406 11.8024C19.0871 11.8024 18.7714 11.6832 18.529 11.4447ZM14.2078 7.20945L12.4985 8.88474L16.8101 13.1263C17.4958 13.804 18.4302 14.1867 19.4028 14.1836C20.3755 14.1836 21.3067 13.804 21.9924 13.1263L26.304 8.88474L24.601 7.20945C23.166 5.79768 21.2844 5.0918 19.406 5.0918C17.5245 5.0918 15.6429 5.79768 14.211 7.20945"
              fill="white"/>
    </mask>
    <g mask="url(#mask1_835_584)">
        <path d="M26.3082 5.0918H12.5027V14.1867H26.3082V5.0918Z" fill="#02255B"/>
    </g>
    <mask id="mask2_835_584" style="mask-type:luminance" maskUnits="userSpaceOnUse" x="0" y="4" width="16" height="19">
        <path d="M5.53625 19.0871L3.86517 17.4432C3.86517 17.4432 3.85241 17.4307 3.84604 17.4244C1.93258 15.5201 1.95172 12.4519 3.8843 10.5726L5.18864 9.30204C5.2875 11.0715 6.04331 12.7436 7.31576 14.0017L12.4916 19.0966L12.4629 19.1248C11.503 20.044 10.2593 20.5021 9.01554 20.5021C7.7718 20.5021 6.49616 20.0315 5.53306 19.0871M2.18133 8.87538C2.18133 8.87538 2.1622 8.8942 2.15263 8.90361C-0.717544 11.7271 -0.717544 16.3044 2.15263 19.1279L3.82371 20.7781C5.2014 22.1303 7.0702 22.8864 9.01554 22.8832C10.9386 22.8832 12.7818 22.1428 14.1563 20.8221L15.9199 19.0997L9.0283 12.3201C7.31895 10.6228 7.11166 7.95302 8.54356 6.02047L6.71302 4.46753L2.17814 8.88165L2.18133 8.87538Z"
              fill="white"/>
    </mask>
    <g mask="url(#mask2_835_584)">
        <path d="M15.9215 4.4613H-0.716003V22.8833H15.9215V4.4613Z" fill="#02255B"/>
    </g>
    <mask id="mask3_835_584" style="mask-type:luminance" maskUnits="userSpaceOnUse" x="3" y="15" width="24" height="13">
        <path d="M10.7236 24.1914L9.38423 22.8737C11.1765 22.7828 12.8731 22.0549 14.1551 20.8188L15.6444 19.3663C17.6121 17.4369 20.7565 17.3239 22.8613 19.109L17.6918 24.1945C16.7287 25.1388 15.469 25.6126 14.2061 25.6126C12.9432 25.6126 11.6836 25.1388 10.7205 24.1945M13.9319 17.6847L12.4617 19.1279C10.5291 20.9788 7.44526 20.9632 5.53181 19.0933L3.81927 20.7812L9.00791 25.8855C10.3856 27.2408 12.2544 28 14.2061 28C16.1547 28 18.0235 27.2408 19.4011 25.8824L26.2927 19.1028L24.8545 17.6879C23.346 16.2071 21.3688 15.4667 19.3916 15.4667C17.4143 15.4667 15.4371 16.2071 13.9287 17.6879"
              fill="white"/>
    </mask>
    <g mask="url(#mask3_835_584)">
        <path d="M26.2963 15.463H3.82281V27.9995H26.2963V15.463Z" fill="#02255B"/>
    </g>
    <mask id="mask4_835_584" style="mask-type:luminance" maskUnits="userSpaceOnUse" x="9" y="8" width="6" height="6">
        <path d="M9.02948 12.3138L10.7325 13.9891L14.2086 10.5758L12.4928 8.88794L9.02948 12.3138Z" fill="white"/>
    </mask>
    <g mask="url(#mask4_835_584)">
        <path d="M11.1696 6.37943L6.47528 11.8829L12.0697 16.5009L16.764 10.9974L11.1696 6.37943Z" fill="#02255B"/>
    </g>
</svg>
