<svg width="69" height="69" viewBox="0 0 69 69" fill="none" xmlns="http://www.w3.org/2000/svg">
    <rect width="69" height="69" rx="34.5" fill="#364042"/>
    <path d="M34.5004 44.2358L34.5004 44.2392C34.5007 44.2759 34.4927 44.3145 34.4741 44.3535C34.4555 44.3929 34.4255 44.4339 34.3818 44.4719C34.3379 44.5099 34.2819 44.5434 34.2155 44.5672C34.1491 44.5911 34.0758 44.604 34.0004 44.604C33.9251 44.604 33.8518 44.5911 33.7854 44.5672C33.7189 44.5434 33.663 44.5099 33.6191 44.4719C33.5754 44.4339 33.5454 44.3929 33.5267 44.3535C33.5082 44.3145 33.5002 44.2759 33.5005 44.2392V44.2358V27.0291V25.892L32.6625 26.6606L25.3706 33.3485L25.3706 33.3485L25.3656 33.3532C25.3261 33.3905 25.2737 33.4241 25.2098 33.4484C25.1458 33.4727 25.0744 33.4861 25.0006 33.4861C24.9268 33.4861 24.8554 33.4727 24.7914 33.4484C24.7275 33.4241 24.6751 33.3905 24.6356 33.3532L24.635 33.3526C24.5389 33.2624 24.5 33.1597 24.5 33.0688C24.5 32.9785 24.5384 32.8765 24.6331 32.7867L33.6304 24.5335L33.6305 24.5335L33.6354 24.5289C33.675 24.4916 33.7273 24.4579 33.7913 24.4336C33.8552 24.4093 33.9266 24.396 34.0004 24.396C34.0742 24.396 34.1457 24.4093 34.2096 24.4336C34.2735 24.4579 34.3259 24.4916 34.3655 24.5289L34.3654 24.5289L34.3704 24.5335L43.3675 32.7864C43.4618 32.8761 43.5 32.9778 43.5 33.0679C43.5 33.1587 43.4612 33.2612 43.3655 33.3513L43.3653 33.3515C43.3258 33.3888 43.2734 33.4224 43.2095 33.4467C43.1455 33.471 43.0741 33.4843 43.0003 33.4843C42.9265 33.4843 42.8551 33.471 42.7911 33.4467C42.7272 33.4224 42.6748 33.3888 42.6353 33.3515L42.6353 33.3514L42.6302 33.3467L35.3383 26.6623L35.002 27.0291H35.0004H34.5004V27.0308V27.2508L34.5004 44.2358Z"
          fill="#EBEFF2" stroke="#EBEFF2"/>
</svg>
