<svg width="10" height="10" viewBox="0 0 10 10" fill="none" xmlns="http://www.w3.org/2000/svg">
<path id="Vector" d="M4.85714 3.45714C5.38114 2.92171 6.06343 2.57143 6.85714 2.57143C7.69068 2.57143 8.49008 2.90255 9.07948 3.49195C9.66888 4.08135 10 4.88075 10 5.71429V10H8.85714V5.71429C8.85714 5.18385 8.64643 4.67515 8.27136 4.30007C7.89628 3.925 7.38758 3.71429 6.85714 3.71429C6.32671 3.71429 5.818 3.925 5.44293 4.30007C5.06786 4.67515 4.85714 5.18385 4.85714 5.71429V10H3.71429V2.85714H4.85714V3.45714ZM0.857143 1.71429C0.629814 1.71429 0.411797 1.62398 0.251051 1.46323C0.0903059 1.30249 0 1.08447 0 0.857143C0 0.629814 0.0903059 0.411797 0.251051 0.251051C0.411797 0.0903059 0.629814 0 0.857143 0C1.08447 0 1.30249 0.0903059 1.46323 0.251051C1.62398 0.411797 1.71429 0.629814 1.71429 0.857143C1.71429 1.08447 1.62398 1.30249 1.46323 1.46323C1.30249 1.62398 1.08447 1.71429 0.857143 1.71429ZM0.285714 2.85714H1.42857V10H0.285714V2.85714Z" fill="white"/>
</svg>
