<svg width="102" height="102" viewBox="0 0 102 102" fill="none" xmlns="http://www.w3.org/2000/svg">
<g id="Icon">
<g id="Group">
<g id="Group_2">
<path id="Vector" d="M1 18.1696V2.8396C1 1.82328 1.82327 1 2.8396 1H17.8234" stroke="#02255B" stroke-width="1.5" stroke-linecap="round" stroke-linejoin="round"/>
<path id="Vector_2" d="M84.1852 1H99.1689C100.185 1 101.009 1.82328 101.009 2.8396V18.1696" stroke="#02255B" stroke-width="1.5" stroke-linecap="round" stroke-linejoin="round"/>
<path id="Vector_3" d="M17.8234 101H2.8396C1.82327 101 1 100.177 1 99.1604V83.8304" stroke="#02255B" stroke-width="1.5" stroke-linecap="round" stroke-linejoin="round"/>
<path id="Vector_4" d="M101.009 83.8304V99.1604C101.009 100.177 100.185 101 99.1689 101H84.1852" stroke="#02255B" stroke-width="1.5" stroke-linecap="round" stroke-linejoin="round"/>
</g>
<g id="Group_3">
<path id="Vector_5" d="M53.8404 54.7175C56.1598 46.4138 54.8027 41.9056 54.7544 41.511C54.638 40.5486 53.7353 39.6856 52.7644 39.7537C51.7878 39.8219 50.8254 40.8041 50.8112 42.0504C50.7601 46.8254 49.7239 51.3648 47.2966 55.4954C41.9822 64.5344 34.0391 69.2555 23.5522 69.6671" stroke="#02255B" stroke-width="1.5" stroke-linecap="round" stroke-linejoin="round"/>
<path id="Vector_6" d="M53.2272 60.5231C53.1051 60.7161 52.9944 60.9177 52.8723 61.1107C47.4046 69.6671 39.6545 74.7516 29.6446 76.4209C27.9725 76.6991 26.2862 76.7303 24.5999 76.8212" stroke="#02255B" stroke-width="1.5" stroke-linecap="round" stroke-linejoin="round"/>
<path id="Vector_7" d="M56.0972 68.7814C55.7509 69.1192 55.4557 69.511 55.1377 69.8801C50.357 75.3676 44.5203 79.2967 37.6359 81.6529C34.6267 82.6835 31.5294 83.3392 28.3584 83.6288" stroke="#02255B" stroke-width="1.5" stroke-linecap="round" stroke-linejoin="round"/>
<path id="Vector_8" d="M61.0483 74.3996C61.0483 74.3996 61.0285 74.4166 61.02 74.4251C60.8184 74.6295 60.6396 74.8538 60.4465 75.0639C56.4636 79.4869 51.856 83.1121 46.5899 85.8942C42.7574 87.9184 38.7318 89.423 34.4905 90.3314" stroke="#02255B" stroke-width="1.5" stroke-linecap="round" stroke-linejoin="round"/>
<path id="Vector_9" d="M66.1412 79.3932C63.4159 82.11 56.5401 88.1597 53.2357 90.0617C49.8801 91.995 46.3543 93.4287 42.6382 94.2974" stroke="#02255B" stroke-width="1.5" stroke-linecap="round" stroke-linejoin="round"/>
<path id="Vector_10" d="M83.2258 54.4592C83.2258 51.1405 83.2315 47.8219 83.2258 44.5032C83.223 42.7005 83.2399 40.8978 83.0327 39.0979C81.5139 25.8261 71.7596 15.1292 58.7262 12.4237C57.5424 12.1767 57.0256 11.9865 55.1633 11.785C54.1356 11.7083 51.4955 11.6146 50.1811 11.785C49.8944 11.785 47.8588 12.1199 47.1264 12.2534C32.526 14.8992 21.8376 27.5607 21.812 42.2803" stroke="#02255B" stroke-width="1.5" stroke-linecap="round" stroke-linejoin="round"/>
<path id="Vector_11" d="M76.7616 55.1973C76.7616 55.115 76.7616 55.0355 76.7616 54.9532C76.861 50.8055 76.8581 46.6494 76.7559 42.5018C76.6111 36.5912 74.5502 31.4017 70.536 27.0213C59.5069 14.9872 40.7219 16.6224 32.032 30.3854C29.5082 34.3825 28.3756 38.7828 28.3671 43.4982C28.3642 45.9737 26.6921 47.6345 24.228 47.6742C23.9412 47.6799 23.6545 47.6657 23.3706 47.6828" stroke="#02255B" stroke-width="1.5" stroke-linecap="round" stroke-linejoin="round"/>
<path id="Vector_12" d="M19.4188 55.9865C28.7673 56.1171 36.949 50.5103 37.9085 41.6899C38.0817 40.1001 37.9284 38.4876 38.3457 36.9177C39.9525 30.8936 43.9439 27.1831 50.3201 25.9283C55.8587 24.841 61.7666 27.4159 65.125 32.2222C66.8369 34.6693 67.5409 37.3662 67.5863 40.3045C67.7027 47.7481 67.8417 50.1299 67.7253 56.1114C67.7253 56.1114 66.6948 69.2271 76.8325 70.7544" stroke="#02255B" stroke-width="1.5" stroke-linecap="round" stroke-linejoin="round"/>
<path id="Vector_13" d="M23.4784 62.2548C26.7857 62.3087 30.0022 61.8602 32.9632 60.3329C39.8475 56.7786 43.5466 51.115 43.8986 43.3563C43.998 41.1391 44.4692 39.1207 45.9596 37.4202C48.3073 34.7402 52.0007 33.7637 55.3222 34.9447C58.7034 36.1483 60.9092 39.1803 60.9631 42.8737C61.0199 46.709 61.2187 50.5557 60.9688 54.3825C60.2279 65.6785 63.3705 75.9354 73.9056 76.8212" stroke="#02255B" stroke-width="1.5" stroke-linecap="round" stroke-linejoin="round"/>
<path id="Vector_14" d="M76.7616 54.9532C76.7616 54.9532 76.0945 62.8112 82.6097 63.2768" stroke="#02255B" stroke-width="1.5" stroke-linecap="round" stroke-linejoin="round"/>
</g>
</g>
</g>
</svg>
