<svg width="102" height="93" viewBox="0 0 102 93" fill="none" xmlns="http://www.w3.org/2000/svg">
<g id="Icon">
<g id="Icon_2">
<g id="Group">
<g id="Group_2">
<path id="Vector" d="M71.6974 54.9526C71.6919 51.8624 71.6809 48.6533 71.6698 45.1897C71.6477 39.5986 67.52 35.4157 61.9373 35.3991C44.8819 35.3465 27.8266 35.3659 10.7712 35.3936C7.73083 35.3991 5.1829 36.5804 3.19657 38.9457C1.96825 40.4092 1.42327 42.1465 1 43.9475V81.1678C1.0498 81.2591 0.916995 89.6664 10.8791 89.7245C25.4861 89.8103 40.0904 89.7743 54.6974 89.7383" stroke="#02255B" stroke-width="1.5" stroke-linecap="round" stroke-linejoin="round"/>
<path id="Vector_2" d="M57.0849 34.9066C57.0378 31.7722 57.0628 25.2184 57.0655 22.0812C57.0655 20.5514 56.977 19.0243 56.6118 17.5415C54.5923 9.29734 49.5158 3.98015 41.3104 1.6895C36.4027 0.32009 32.2972 1.28836 30.0646 2.03808C21.3945 4.95118 15.8034 12.5203 15.6485 21.6469C15.5932 24.9833 15.654 31.739 15.6208 35.0754" stroke="#02255B" stroke-width="1.5" stroke-linecap="round" stroke-linejoin="round"/>
<g id="Group_3">
<path id="Vector_3" d="M36.2505 67.363C39.2497 67.363 41.6811 64.9316 41.6811 61.9324C41.6811 58.9331 39.2497 56.5018 36.2505 56.5018C33.2513 56.5018 30.8199 58.9331 30.8199 61.9324C30.8199 64.9316 33.2513 67.363 36.2505 67.363Z" stroke="#02255B" stroke-width="1.5" stroke-miterlimit="10"/>
<path id="Vector_4" d="M36.2504 79.2505V67.3657" stroke="#02255B" stroke-width="1.5" stroke-linecap="round" stroke-linejoin="round"/>
</g>
</g>
<path id="Vector_5" d="M100.253 83.1375C99.7523 82.2356 99.2654 81.3282 98.7702 80.4236C97.3897 77.9005 96.0231 75.372 94.6481 72.8462C93.4973 70.7353 92.352 68.6218 91.2011 66.5082C89.8262 63.9824 88.4457 61.4593 87.0818 58.928C86.6226 58.0759 86.1772 57.2073 85.4579 56.5405C82.672 53.9594 78.2982 54.5985 76.3949 57.8878C75.5151 59.4066 74.7101 60.9697 73.8747 62.5134C73.0253 64.0792 72.1733 65.6423 71.324 67.2081C70.2699 69.1557 69.2049 71.095 68.1508 73.0426C67.2904 74.6306 66.4217 76.2157 65.5586 77.8037C64.5322 79.6932 63.5114 81.5855 62.474 83.4695C61.7658 84.7559 61.6855 86.1419 61.9843 87.5113C62.5542 90.1118 64.8587 91.9819 67.509 91.9847C76.8016 91.993 86.0914 91.9958 95.384 91.9819C97.3399 91.9792 98.8809 91.0994 100.018 89.5253C100.56 88.7756 100.898 87.929 101 86.9995V85.4724C100.972 84.6231 100.657 83.8678 100.253 83.1403V83.1375ZM81.4299 87.3121C80.1767 87.3038 79.1531 86.2664 79.1614 85.0215C79.1697 83.7793 80.2126 82.7391 81.4492 82.7391C82.7025 82.7391 83.7565 83.8097 83.7371 85.0602C83.7178 86.3134 82.6831 87.3232 81.4299 87.3149V87.3121ZM83.7371 78.0831C83.7261 79.5106 82.6499 80.5176 81.2611 80.4291C80.149 80.3599 79.2499 79.4442 79.1669 78.2795C79.1475 78.025 79.1558 77.7705 79.1558 77.516C79.1558 73.9666 79.1558 70.4172 79.1558 66.8678C79.1558 65.6063 79.9305 64.6242 81.0454 64.4554C82.5199 64.2313 83.7233 65.2605 83.7344 66.7848C83.7482 68.489 83.7371 70.1931 83.7371 71.9C83.7371 72.0771 83.7371 72.2569 83.7371 72.434C83.7371 74.3179 83.7482 76.1991 83.7344 78.0831H83.7371Z" stroke="#02255B" stroke-width="1.5" stroke-linecap="round" stroke-linejoin="round"/>
</g>
</g>
</g>
</svg>
