<svg width="102" height="100" viewBox="0 0 102 100" fill="none" xmlns="http://www.w3.org/2000/svg">
<g id="Icon">
<g id="Icon_2">
<g id="Group">
<path id="Vector" d="M73.1829 45.9938C73.1718 37.767 73.1607 29.2034 73.1523 21.895" stroke="#02255B" stroke-width="1.5" stroke-linecap="round" stroke-linejoin="round"/>
<g id="Group_2">
<path id="Vector_2" d="M77.7778 67.421C75.1144 64.8967 70.7365 65.2084 68.4572 68.0806C66.7706 70.2041 66.5758 73.104 67.9645 75.4057C69.3589 77.7184 72.0613 78.8985 74.7414 78.3474C74.9641 78.3029 75.081 78.3502 75.2146 78.5255C75.9883 79.5302 76.7703 80.5322 77.5635 81.5229C77.6554 81.6398 77.8279 81.7317 77.9754 81.7567C78.4847 81.8402 78.9995 81.8903 79.52 81.9515C79.5812 82.7391 79.6396 83.4906 79.7008 84.2615C80.2074 84.3199 80.6833 84.3895 81.1592 84.4257C81.4125 84.4452 81.5154 84.5231 81.5266 84.7959C81.5544 85.4499 81.6184 86.1039 81.6713 86.7802C82.2112 86.8442 82.7261 86.911 83.241 86.9611C83.4163 86.9778 83.4775 87.039 83.4859 87.2171C83.5221 87.835 83.5666 88.4529 83.6306 89.0679C83.639 89.1625 83.7448 89.3072 83.831 89.3267C85.0807 89.6356 86.3357 89.9279 87.6271 90.2312C87.8804 89.2961 88.117 88.3888 88.373 87.4871C88.4426 87.245 88.4147 87.0696 88.2533 86.8637C85.2475 83.0369 82.2502 79.2018 79.2472 75.3723C79.1248 75.2164 79.0803 75.0995 79.1749 74.8964C80.4078 72.322 79.8567 69.3914 77.7805 67.4238L77.7778 67.421ZM74.3962 73.3573C73.5557 74.0086 72.3535 73.8527 71.705 73.0066C71.0705 72.1801 71.2236 70.9666 72.0446 70.3293C72.8795 69.6808 74.0984 69.8312 74.7441 70.6661C75.3954 71.5066 75.2395 72.7033 74.3962 73.3573Z" stroke="#02255B" stroke-width="1.5" stroke-linecap="round" stroke-linejoin="round"/>
<path id="Vector_3" d="M80.149 99.0147C91.6647 99.0147 101 89.6794 101 78.1637C101 66.648 91.6647 57.3127 80.149 57.3127C68.6334 57.3127 59.298 66.648 59.298 78.1637C59.298 89.6794 68.6334 99.0147 80.149 99.0147Z" stroke="#02255B" stroke-width="1.5" stroke-linecap="round" stroke-linejoin="round"/>
</g>
<g id="Group_3">
<path id="Vector_4" d="M54.7337 1.05243C38.3803 1.06356 17.5098 0.980052 9.95373 0.985618C4.16211 0.991185 1.00889 4.14723 1.0061 9.91937C1.00054 21.5805 1.0061 33.2389 1.0061 44.9001C1.0061 56.937 0.986632 68.9711 1.01725 81.008C1.02838 85.7086 4.33463 89.0456 9.0158 89.1819C10.3934 89.2209 11.7739 89.1931 13.1543 89.1931C26.4965 89.1931 37.1334 89.2014 50.4784 89.1931" stroke="#02255B" stroke-width="1.5" stroke-linecap="round" stroke-linejoin="round"/>
<path id="Vector_5" d="M73.2329 21.2327L54.7336 1.05243" stroke="#02255B" stroke-width="1.5" stroke-linecap="round" stroke-linejoin="round"/>
<path id="Vector_6" d="M54.7336 1.05243C54.742 7.01939 54.7504 12.1987 54.7532 15.8167C54.7588 18.8141 57.194 21.2382 60.1914 21.2299C63.6897 21.2215 68.3736 21.1464 73.1661 21.1436" stroke="#02255B" stroke-width="1.5" stroke-linecap="round" stroke-linejoin="round"/>
<path id="Vector_7" d="M29.8614 29.0587C29.8753 30.7035 29.8641 32.3483 29.8641 33.9959C29.8641 35.6073 29.8557 37.2215 29.8668 38.833" stroke="#02255B" stroke-width="1.5" stroke-linecap="round" stroke-linejoin="round"/>
<path id="Vector_8" d="M8.45908 33.7732C8.51196 33.0107 8.36177 32.0533 8.62895 31.107C9.26349 28.8555 11.4147 27.3693 13.7303 27.6198C16.0291 27.8703 17.866 29.8101 17.9495 32.1312C17.994 33.3168 17.9884 34.508 17.9495 35.6964C17.866 38.2596 15.7397 40.2857 13.1821 40.2745C10.6272 40.2634 8.53701 38.2178 8.45908 35.6463C8.44238 35.0869 8.45908 34.5247 8.45908 33.776V33.7732Z" stroke="#02255B" stroke-width="1.5" stroke-linecap="round" stroke-linejoin="round"/>
<path id="Vector_9" d="M50.4534 35.6936C50.3699 38.2568 48.2436 40.2829 45.686 40.2718C43.1311 40.2606 41.0409 38.2151 40.963 35.6435C40.9463 35.0841 40.963 34.5219 40.963 33.7732C41.0159 33.0107 40.8657 32.0533 41.1329 31.107C41.7674 28.8555 43.9186 27.3693 46.2342 27.6198C48.533 27.8703 50.3699 29.8101 50.4534 32.1312C50.4979 33.3168 50.4923 34.508 50.4534 35.6964V35.6936Z" stroke="#02255B" stroke-width="1.5" stroke-linecap="round" stroke-linejoin="round"/>
<path id="Vector_10" d="M61.5552 29.106C61.5664 30.7508 61.5552 32.3956 61.5552 34.0432C61.5552 35.624 61.5635 37.2021 61.5524 38.7829" stroke="#02255B" stroke-width="1.5" stroke-linecap="round" stroke-linejoin="round"/>
<path id="Vector_11" d="M29.8614 70.2569C29.8753 71.9017 29.8641 73.5465 29.8641 75.1941C29.8641 76.8056 29.8557 78.4198 29.8668 80.0312" stroke="#02255B" stroke-width="1.5" stroke-linecap="round" stroke-linejoin="round"/>
<path id="Vector_12" d="M8.45908 74.9714C8.51196 74.2089 8.36177 73.2515 8.62895 72.3052C9.26349 70.0537 11.4147 68.5675 13.7303 68.818C16.0291 69.0685 17.866 71.0083 17.9495 73.3294C17.994 74.515 17.9884 75.7062 17.9495 76.8946C17.866 79.4578 15.7397 81.4839 13.1821 81.4727C10.6272 81.4616 8.53701 79.416 8.45908 76.8444C8.44238 76.285 8.45908 75.7229 8.45908 74.9742V74.9714Z" stroke="#02255B" stroke-width="1.5" stroke-linecap="round" stroke-linejoin="round"/>
<path id="Vector_13" d="M50.4534 76.8918C50.3699 79.455 48.2436 81.4811 45.686 81.4699C43.1311 81.4588 41.0409 79.4132 40.963 76.8417C40.9463 76.2823 40.963 75.7201 40.963 74.9714C41.0159 74.2089 40.8657 73.2515 41.1329 72.3052C41.7674 70.0537 43.9186 68.5675 46.2342 68.818C48.533 69.0685 50.3699 71.0083 50.4534 73.3294C50.4979 74.515 50.4923 75.7062 50.4534 76.8945V76.8918Z" stroke="#02255B" stroke-width="1.5" stroke-linecap="round" stroke-linejoin="round"/>
<path id="Vector_14" d="M62.8827 57.271C62.7992 59.8342 60.6728 61.8603 58.1151 61.8492C55.5603 61.838 53.4702 59.7924 53.3923 57.2209C53.3756 56.6615 53.3923 56.0993 53.3923 55.3506C53.4452 54.5881 53.2949 53.6307 53.562 52.6844C54.1966 50.4329 56.3479 48.9467 58.6635 49.1972C60.9623 49.4477 62.7992 51.3875 62.8827 53.7086C62.9272 54.8942 62.9217 56.0854 62.8827 57.2738V57.271Z" stroke="#02255B" stroke-width="1.5" stroke-linecap="round" stroke-linejoin="round"/>
<path id="Vector_15" d="M44.8009 60.3964C44.787 58.7516 44.7982 57.1068 44.7982 55.4592C44.7982 53.8116 44.8065 52.2336 44.7954 50.6222" stroke="#02255B" stroke-width="1.5" stroke-linecap="round" stroke-linejoin="round"/>
<path id="Vector_16" d="M21.9516 53.7587C22.0351 51.1955 24.1615 49.1694 26.7192 49.1805C29.2741 49.1917 31.3641 51.2372 31.442 53.8088C31.4587 54.3682 31.442 54.9304 31.442 55.6791C31.3891 56.4417 31.5395 57.399 31.2723 58.3453C30.6377 60.5968 28.4864 62.083 26.1709 61.8325C23.872 61.582 22.0351 59.6422 21.9516 57.3211C21.9071 56.1355 21.9127 54.9443 21.9516 53.756V53.7587Z" stroke="#02255B" stroke-width="1.5" stroke-linecap="round" stroke-linejoin="round"/>
<path id="Vector_17" d="M10.85 60.3463C10.8389 58.7015 10.85 57.0567 10.85 55.4091C10.85 53.8283 10.8416 52.2503 10.8528 50.6695" stroke="#02255B" stroke-width="1.5" stroke-linecap="round" stroke-linejoin="round"/>
<path id="Vector_18" d="M44.4363 18.4217C44.4224 16.7769 44.4336 15.1321 44.4336 13.4845C44.4336 11.8369 44.4419 10.2589 44.4307 8.64746" stroke="#02255B" stroke-width="1.5" stroke-linecap="round" stroke-linejoin="round"/>
<path id="Vector_19" d="M23.8442 11.7868C23.9277 9.22361 26.054 7.19753 28.6116 7.20866C31.1665 7.2198 33.2567 9.26537 33.3346 11.837C33.3513 12.3964 33.3346 12.9585 33.3346 13.7072C33.2817 14.4698 33.4319 15.4271 33.1647 16.3734C32.5302 18.6249 30.3788 20.1111 28.0633 19.8606C25.7645 19.6101 23.9277 17.6703 23.8442 15.3492C23.7997 14.1636 23.8052 12.9724 23.8442 11.7841V11.7868Z" stroke="#02255B" stroke-width="1.5" stroke-linecap="round" stroke-linejoin="round"/>
<path id="Vector_20" d="M12.7425 18.3717C12.7314 16.7268 12.7425 15.082 12.7425 13.4344C12.7425 11.7869 12.7342 10.2756 12.7454 8.69482" stroke="#02255B" stroke-width="1.5" stroke-linecap="round" stroke-linejoin="round"/>
</g>
</g>
</g>
</g>
</svg>
