<svg width="102" height="102" viewBox="0 0 102 102" fill="none" xmlns="http://www.w3.org/2000/svg">
<g id="Icon">
<g id="Group">
<path id="Vector" d="M80.0272 25.0871H96.444C98.959 25.0871 101 27.1252 101 29.643V83.6009C101 86.1159 98.9618 88.1569 96.444 88.1569H5.55599C3.04107 88.1569 1 86.1187 1 83.6009V29.643C1 27.1281 3.03822 25.0871 5.55599 25.0871H21.696" stroke="#02255B" stroke-width="1.5" stroke-linecap="round" stroke-linejoin="round"/>
<path id="Vector_2" d="M42.2749 89.0305V100.049" stroke="#02255B" stroke-width="1.5" stroke-linecap="round" stroke-linejoin="round"/>
<path id="Vector_3" d="M58.9172 89.0305V100.049" stroke="#02255B" stroke-width="1.5" stroke-linecap="round" stroke-linejoin="round"/>
<path id="Vector_4" d="M29.6118 100.532H71.4176" stroke="#02255B" stroke-width="1.5" stroke-linecap="round" stroke-linejoin="round"/>
<g id="Group_2">
<path id="Vector_5" d="M51.4553 1.9019C53.9559 4.76508 61.4151 12.0044 73.4045 12.7095C74.0353 12.7466 74.5434 13.2404 74.5862 13.8713C75.0116 20.0886 74.4977 29.0265 74.4977 29.0265C74.4977 29.0265 74.5805 35.4665 72.4881 39.6884C70.0017 44.704 64.4352 55.306 51.6466 59.6964C51.2127 59.8449 50.7417 59.862 50.2992 59.7392C44.0933 58.035 32.8889 50.0992 29.1037 40.0338C28.2873 38.2525 26.4346 32.3207 26.9542 28.5383C27.0712 24.7559 27.1426 16.8772 27.1683 13.8313C27.174 13.1634 27.6992 12.6153 28.3672 12.5867C31.7156 12.4468 41.4955 11.2079 49.5627 1.89333C50.0622 1.31955 50.9557 1.33098 51.4553 1.9019Z" stroke="#02255B" stroke-width="1.5" stroke-linecap="round" stroke-linejoin="round"/>
<path id="Vector_6" d="M38.3441 31.7069L46.8109 39.9082L63.6588 23.7682" stroke="#02255B" stroke-width="1.5" stroke-linecap="round" stroke-linejoin="round"/>
</g>
</g>
</g>
</svg>
