<svg width="104" height="144" viewBox="0 0 104 144" fill="none" xmlns="http://www.w3.org/2000/svg">
<path d="M4.26562 144V133.598L63.375 75.4674C68.7917 70.1643 72.8542 65.5411 75.5625 61.5977C78.2708 57.5184 80.099 53.711 81.0469 50.1756C81.9948 46.6402 82.4687 43.3088 82.4687 40.1813C82.4687 31.8867 79.625 25.3598 73.9375 20.6006C68.3854 15.8414 60.125 13.4618 49.1562 13.4618C40.7604 13.4618 33.3125 14.7535 26.8125 17.3371C20.4479 19.9207 14.9635 23.932 10.3594 29.3711L0 20.3966C5.55208 13.8697 12.6615 8.83853 21.3281 5.30312C29.9948 1.76771 39.6771 0 50.375 0C59.9896 0 68.3177 1.56374 75.3594 4.69122C82.401 7.68272 87.8177 12.102 91.6094 17.949C95.5365 23.796 97.5 30.6629 97.5 38.5496C97.5 43.1728 96.8229 47.728 95.4688 52.2153C94.25 56.7025 91.9479 61.4618 88.5625 66.4929C85.3125 71.3881 80.5052 76.9632 74.1406 83.2181L19.9062 136.657L15.8437 130.946H104V144H4.26562Z" fill="url(#paint0_linear_3749_7096)"/>
<defs>
<linearGradient id="paint0_linear_3749_7096" x1="93.9999" y1="-79.9999" x2="203.04" y2="13.1005" gradientUnits="userSpaceOnUse">
<stop stop-color="#011C44"/>
<stop offset="0.646518" stop-color="#011C44" stop-opacity="0.1"/>
<stop offset="1" stop-color="#011C44" stop-opacity="0"/>
</linearGradient>
</defs>
</svg>
