<svg width="104" height="144" viewBox="0 0 104 144" fill="none" xmlns="http://www.w3.org/2000/svg">
<path d="M51.7945 144C41.3808 144 31.5151 142.368 22.1976 139.105C13.0171 135.705 5.61792 131.218 0 125.643L7.19368 114.017C11.8524 118.776 18.087 122.72 25.8972 125.847C33.8445 128.975 42.4769 130.538 51.7945 130.538C63.7154 130.538 72.8274 127.955 79.1304 122.788C85.5705 117.62 88.7905 110.686 88.7905 101.983C88.7905 93.2805 85.639 86.3456 79.336 81.1785C73.17 76.0113 63.3729 73.4278 49.9447 73.4278H39.668V62.6176L84.0632 7.34278L86.1186 13.0538H5.96047V0H98.4506V10.4023L54.0553 65.6771L46.8617 60.9858H52.4111C69.6759 60.9858 82.556 64.7932 91.0514 72.4079C99.6838 80.0227 104 89.813 104 101.779C104 109.802 102.082 117.008 98.2451 123.399C94.4084 129.79 88.585 134.822 80.7747 138.493C73.1014 142.164 63.4414 144 51.7945 144Z" fill="url(#paint0_linear_3749_7106)"/>
<defs>
<linearGradient id="paint0_linear_3749_7106" x1="80" y1="-68" x2="177.62" y2="-2.01223" gradientUnits="userSpaceOnUse">
<stop stop-color="#011C44"/>
<stop offset="0.760852" stop-color="#011C44" stop-opacity="0.1"/>
<stop offset="1" stop-color="#011C44" stop-opacity="0"/>
</linearGradient>
</defs>
</svg>
