<svg width="102" height="93" viewBox="0 0 102 93" fill="none" xmlns="http://www.w3.org/2000/svg">
    <g id="Icon">
        <path id="Vector"
              d="M100.542 43.2189C100.255 41.7715 99.3092 41.022 97.9161 40.7687C96.5152 40.5128 95.0964 40.3423 93.7085 40.0295C88.1749 38.7863 83.1091 36.5404 78.6714 32.953C77.1594 31.7305 75.7948 31.6607 74.4043 32.7902C68.7906 37.3493 62.3034 39.7633 55.2087 40.7377C53.1798 41.0168 52.2081 42.1308 52.2055 44.1803C52.2003 48.0804 52.1021 51.9831 52.2494 55.8781C52.6035 65.2084 55.6895 73.4815 62.1664 80.3358C64.5856 82.8945 73.2645 91.0075 77.1 91.9586C78.4569 91.9586 84.6961 85.8797 88.193 82.7084C94.6647 76.8363 98.3477 69.6693 100.097 61.1945C101.827 52.8076 100.539 43.2163 100.539 43.2163L100.542 43.2189Z"
              stroke="#02255B" stroke-width="1.5" stroke-linecap="round" stroke-linejoin="round"/>
        <g id="Icon Details">
            <path id="Vector_2"
                  d="M61.1351 80.3255C56.1469 83.1607 48.3855 84.7632 42.7795 84.7399C19.7045 84.6417 1 66.0354 1 42.9604C1 19.8854 19.7045 1.18091 42.7795 1.18091C62.2413 1.18091 79.8448 14.22 83.7345 36.3413"
                  stroke="#02255B" stroke-width="1.5" stroke-linecap="round" stroke-linejoin="round"/>
            <path id="Vector_3"
                  d="M56.8732 73.1559C54.1052 79.1909 47.2431 84.7348 42.7796 84.7348C31.4876 84.7348 22.3331 65.9889 22.3331 42.8674C22.3331 19.7459 31.4876 1 42.7796 1C52.9679 1 62.2698 16.1481 62.9702 38.6519"
                  stroke="#02255B" stroke-width="1.5" stroke-linecap="round" stroke-linejoin="round"/>
            <path id="Vector_4"
                  d="M11.5787 15.4116C19.6916 18.5002 31.0999 20.4205 43.7384 20.4205C56.3769 20.4205 66.1207 18.8853 74.1458 16.0423"
                  stroke="#02255B" stroke-width="1.5" stroke-linecap="round" stroke-linejoin="round"/>
            <path id="Vector_5"
                  d="M52.7843 61.4245C49.9025 61.2151 45.315 61.104 42.2626 61.104C28.8745 61.104 16.8382 63.2208 8.52625 66.5884"
                  stroke="#02255B" stroke-width="1.5" stroke-linecap="round" stroke-linejoin="round"/>
            <path id="Vector_6" d="M1.30249 42.3971H52.5932" stroke="#02255B" stroke-width="1.5" stroke-linecap="round"
                  stroke-linejoin="round"/>
            <path id="Vector_7" d="M42.6813 1.66174V84.7348" stroke="#02255B" stroke-width="1.5" stroke-linecap="round"
                  stroke-linejoin="round"/>
        </g>
        <path id="Vector_8"
              d="M88.9072 63.2701C90.0059 56.5014 85.4095 50.1235 78.6408 49.0248C71.8721 47.9261 65.4943 52.5226 64.3955 59.2913C63.2968 66.06 67.8933 72.4378 74.662 73.5365C81.4307 74.6352 87.8085 70.0388 88.9072 63.2701Z"
              stroke="#02255B" stroke-width="1.5" stroke-linecap="round" stroke-linejoin="round"/>
        <path id="Vector_9" d="M69.2119 60.7991L73.9055 65.9321L82.7007 58.0414" stroke="#02255B" stroke-width="1.5"
              stroke-linecap="round" stroke-linejoin="round"/>
    </g>
</svg>
