<svg width="90" height="90" viewBox="0 0 90 90" fill="none" xmlns="http://www.w3.org/2000/svg">
<path d="M42.4219 11.2534C40.3388 11.6369 37.8913 12.4651 34.1306 13.7378L32.1609 14.3996C21.8244 17.8955 16.6578 19.64 15.3619 21.466C14.09 23.2512 14.0625 28.4848 14.0625 38.8704L42.4219 29.5369V11.2534ZM42.4219 34.8994L14.0625 44.233V44.9152C14.0625 64.0506 28.6341 73.3366 37.7778 77.2804C39.5309 78.0373 40.6653 78.526 42.4219 78.7466V34.8994ZM47.5781 78.75V34.8994L75.9375 44.233V44.9152C75.9375 64.0506 61.3659 73.3366 52.2222 77.2804C50.4691 78.0373 49.3347 78.5294 47.5781 78.75ZM47.5781 29.5369V11.25C49.6613 11.6335 52.1087 12.4617 55.8694 13.7344L57.8391 14.3996C68.1756 17.8921 73.3422 19.6366 74.6381 21.4626C75.91 23.2478 75.9375 28.4814 75.9375 38.8636L47.5781 29.5369Z" fill="#F9FAFB"/>
</svg>
