<svg width="90" height="90" viewBox="0 0 90 90" fill="none" xmlns="http://www.w3.org/2000/svg">
<path fill-rule="evenodd" clip-rule="evenodd" d="M29.7321 37.5V26.25C29.7321 22.2718 31.3407 18.4564 34.204 15.6434C37.0673 12.8304 40.9507 11.25 45 11.25C49.0493 11.25 52.9327 12.8304 55.796 15.6434C58.6593 18.4564 60.2679 22.2718 60.2679 26.25V37.5H64.0848C66.1095 37.5 68.0512 38.2902 69.4828 39.6967C70.9145 41.1032 71.7188 43.0109 71.7188 45V71.25C71.7188 73.2391 70.9145 75.1468 69.4828 76.5533C68.0512 77.9598 66.1095 78.75 64.0848 78.75H25.9152C23.8905 78.75 21.9488 77.9598 20.5172 76.5533C19.0855 75.1468 18.2813 73.2391 18.2812 71.25V45C18.2812 43.0109 19.0855 41.1032 20.5172 39.6967C21.9488 38.2902 23.8905 37.5 25.9152 37.5H29.7321ZM37.3661 26.25C37.3661 24.2609 38.1704 22.3532 39.602 20.9467C41.0336 19.5402 42.9754 18.75 45 18.75C47.0246 18.75 48.9664 19.5402 50.398 20.9467C51.8296 22.3532 52.6339 24.2609 52.6339 26.25V37.5H37.3661V26.25ZM45 48.75C46.0123 48.75 46.9832 49.1451 47.699 49.8484C48.4148 50.5516 48.817 51.5054 48.817 52.5V63.75C48.817 64.7446 48.4148 65.6984 47.699 66.4017C46.9832 67.1049 46.0123 67.5 45 67.5C43.9877 67.5 43.0168 67.1049 42.301 66.4017C41.5852 65.6984 41.183 64.7446 41.183 63.75V52.5C41.183 51.5054 41.5852 50.5516 42.301 49.8484C43.0168 49.1451 43.9877 48.75 45 48.75Z" fill="#F9FAFB"/>
</svg>
