<svg width="90" height="90" viewBox="0 0 90 90" fill="none" xmlns="http://www.w3.org/2000/svg">
<path fill-rule="evenodd" clip-rule="evenodd" d="M53.1653 12.1154C53.1653 11.8859 53.0697 11.6658 52.8996 11.5035C52.7295 11.3412 52.4987 11.25 52.2581 11.25H26.8548C24.208 11.25 21.6696 12.2529 19.798 14.0381C17.9264 15.8233 16.875 18.2446 16.875 20.7692V69.2308C16.875 71.7554 17.9264 74.1767 19.798 75.9619C21.6696 77.7471 24.208 78.75 26.8548 78.75H63.1452C65.792 78.75 68.3304 77.7471 70.202 75.9619C72.0736 74.1767 73.125 71.7554 73.125 69.2308V35.1242C73.125 34.8947 73.0294 34.6746 72.8593 34.5123C72.6891 34.35 72.4584 34.2588 72.2177 34.2588H55.8871C55.1652 34.2588 54.4729 33.9853 53.9625 33.4985C53.4521 33.0116 53.1653 32.3512 53.1653 31.6627V12.1154ZM55.8871 45.8654C56.609 45.8654 57.3013 46.1389 57.8117 46.6258C58.3221 47.1127 58.6089 47.773 58.6089 48.4615C58.6089 49.1501 58.3221 49.8104 57.8117 50.2973C57.3013 50.7842 56.609 51.0577 55.8871 51.0577H34.1129C33.391 51.0577 32.6988 50.7842 32.1883 50.2973C31.6779 49.8104 31.3911 49.1501 31.3911 48.4615C31.3911 47.773 31.6779 47.1127 32.1883 46.6258C32.6988 46.1389 33.391 45.8654 34.1129 45.8654H55.8871ZM55.8871 59.7115C56.609 59.7115 57.3013 59.9851 57.8117 60.4719C58.3221 60.9588 58.6089 61.6192 58.6089 62.3077C58.6089 62.9962 58.3221 63.6566 57.8117 64.1435C57.3013 64.6303 56.609 64.9038 55.8871 64.9038H34.1129C33.391 64.9038 32.6988 64.6303 32.1883 64.1435C31.6779 63.6566 31.3911 62.9962 31.3911 62.3077C31.3911 61.6192 31.6779 60.9588 32.1883 60.4719C32.6988 59.9851 33.391 59.7115 34.1129 59.7115H55.8871Z" fill="#F9FAFB"/>
</svg>
