<svg width="58" height="58" viewBox="0 0 58 58" fill="none" xmlns="http://www.w3.org/2000/svg">
<g filter="url(#filter0_d_3749_7347)">
<path d="M5 25C5 11.7452 15.7452 1 29 1C42.2548 1 53 11.7452 53 25C53 38.2548 42.2548 49 29 49C15.7452 49 5 38.2548 5 25Z" fill="white" fill-opacity="0.6" shape-rendering="crispEdges"/>
<path d="M5 25C5 11.7452 15.7452 1 29 1C42.2548 1 53 11.7452 53 25C53 38.2548 42.2548 49 29 49C15.7452 49 5 38.2548 5 25Z" stroke="url(#paint0_linear_3749_7347)" stroke-opacity="0.4" shape-rendering="crispEdges"/>
<path d="M29 33.5C27.1435 33.5 25.363 32.7625 24.0503 31.4497C22.7375 30.137 22 28.3565 22 26.5C22 24.6435 22.7375 22.863 24.0503 21.5503C25.363 20.2375 27.1435 19.5 29 19.5C30.8565 19.5 32.637 20.2375 33.9497 21.5503C35.2625 22.863 36 24.6435 36 26.5C36 28.3565 35.2625 30.137 33.9497 31.4497C32.637 32.7625 30.8565 33.5 29 33.5ZM36.03 20.89L37.45 19.47C37 18.96 36.55 18.5 36.04 18.06L34.62 19.5C33.07 18.24 31.12 17.5 29 17.5C26.6131 17.5 24.3239 18.4482 22.636 20.136C20.9482 21.8239 20 24.1131 20 26.5C20 28.8869 20.9482 31.1761 22.636 32.864C24.3239 34.5518 26.6131 35.5 29 35.5C34 35.5 38 31.47 38 26.5C38 24.38 37.26 22.43 36.03 20.89ZM28 27.5H30V21.5H28M32 14.5H26V16.5H32V14.5Z" fill="#045DE3"/>
</g>
<defs>
<filter id="filter0_d_3749_7347" x="-3.5" y="-7.5" width="65" height="65" filterUnits="userSpaceOnUse" color-interpolation-filters="sRGB">
<feFlood flood-opacity="0" result="BackgroundImageFix"/>
<feColorMatrix in="SourceAlpha" type="matrix" values="0 0 0 0 0 0 0 0 0 0 0 0 0 0 0 0 0 0 127 0" result="hardAlpha"/>
<feOffset dy="4"/>
<feGaussianBlur stdDeviation="2"/>
<feComposite in2="hardAlpha" operator="out"/>
<feColorMatrix type="matrix" values="0 0 0 0 0.407843 0 0 0 0 0.619608 0 0 0 0 0.933333 0 0 0 0.16 0"/>
<feBlend mode="normal" in2="BackgroundImageFix" result="effect1_dropShadow_3749_7347"/>
<feBlend mode="normal" in="SourceGraphic" in2="effect1_dropShadow_3749_7347" result="shape"/>
</filter>
<linearGradient id="paint0_linear_3749_7347" x1="5" y1="1" x2="56.067" y2="4.52124" gradientUnits="userSpaceOnUse">
<stop stop-color="#034AB6"/>
<stop offset="1" stop-color="#034AB6" stop-opacity="0"/>
</linearGradient>
</defs>
</svg>
