<svg width="58" height="58" viewBox="0 0 58 58" fill="none" xmlns="http://www.w3.org/2000/svg">
<g filter="url(#filter0_d_3749_7340)">
<path d="M5 25C5 11.7452 15.7452 1 29 1C42.2548 1 53 11.7452 53 25C53 38.2548 42.2548 49 29 49C15.7452 49 5 38.2548 5 25Z" fill="white" fill-opacity="0.6" shape-rendering="crispEdges"/>
<path d="M5 25C5 11.7452 15.7452 1 29 1C42.2548 1 53 11.7452 53 25C53 38.2548 42.2548 49 29 49C15.7452 49 5 38.2548 5 25Z" stroke="url(#paint0_linear_3749_7340)" stroke-opacity="0.4" shape-rendering="crispEdges"/>
<path d="M27.0769 15H22.4615C21.8246 15 21.3077 15.5169 21.3077 16.1538V33.8462C21.3077 34.4831 21.8246 35 22.4615 35H35.5384C36.1754 35 36.6923 34.4831 36.6923 33.8462V24.6154M27.0769 15H27.4615C29.9097 15 32.2576 15.9725 33.9887 17.7036C35.7198 19.4347 36.6923 21.7826 36.6923 24.2308V24.6154M27.0769 15C27.995 15 28.8754 15.3647 29.5246 16.0139C30.1737 16.663 30.5384 17.5435 30.5384 18.4615V20C30.5384 20.6369 31.0554 21.1538 31.6923 21.1538H33.2308C34.1488 21.1538 35.0293 21.5185 35.6784 22.1677C36.3276 22.8169 36.6923 23.6973 36.6923 24.6154M25.9231 28.0769L28.2308 30.3846L32.0769 25" stroke="#045DE3" stroke-width="1.5" stroke-linecap="round" stroke-linejoin="round"/>
</g>
<defs>
<filter id="filter0_d_3749_7340" x="-3.5" y="-7.5" width="65" height="65" filterUnits="userSpaceOnUse" color-interpolation-filters="sRGB">
<feFlood flood-opacity="0" result="BackgroundImageFix"/>
<feColorMatrix in="SourceAlpha" type="matrix" values="0 0 0 0 0 0 0 0 0 0 0 0 0 0 0 0 0 0 127 0" result="hardAlpha"/>
<feOffset dy="4"/>
<feGaussianBlur stdDeviation="2"/>
<feComposite in2="hardAlpha" operator="out"/>
<feColorMatrix type="matrix" values="0 0 0 0 0.407843 0 0 0 0 0.619608 0 0 0 0 0.933333 0 0 0 0.16 0"/>
<feBlend mode="normal" in2="BackgroundImageFix" result="effect1_dropShadow_3749_7340"/>
<feBlend mode="normal" in="SourceGraphic" in2="effect1_dropShadow_3749_7340" result="shape"/>
</filter>
<linearGradient id="paint0_linear_3749_7340" x1="5" y1="1" x2="56.067" y2="4.52124" gradientUnits="userSpaceOnUse">
<stop stop-color="#034AB6"/>
<stop offset="1" stop-color="#034AB6" stop-opacity="0"/>
</linearGradient>
</defs>
</svg>
