<svg width="18" height="22" viewBox="0 0 18 22" fill="none" xmlns="http://www.w3.org/2000/svg">
<path d="M7.07691 1H2.46152C1.8246 1 1.30768 1.51692 1.30768 2.15385V19.8462C1.30768 20.4831 1.8246 21 2.46152 21H15.5384C16.1754 21 16.6923 20.4831 16.6923 19.8462V10.6154M7.07691 1H7.46152C9.90968 1 12.2576 1.97252 13.9887 3.70363C15.7198 5.43473 16.6923 7.78262 16.6923 10.2308V10.6154M7.07691 1C7.99497 1 8.87542 1.3647 9.52459 2.01386C10.1737 2.66303 10.5384 3.54348 10.5384 4.46154V6C10.5384 6.63692 11.0554 7.15385 11.6923 7.15385H13.2308C14.1488 7.15385 15.0293 7.51854 15.6784 8.16771C16.3276 8.81687 16.6923 9.69733 16.6923 10.6154M5.92306 14.0769L8.23075 16.3846L12.0769 11" stroke="#045DE3" stroke-width="1.5" stroke-linecap="round" stroke-linejoin="round"/>
</svg>
