<svg width="28" height="20" viewBox="0 0 28 20" fill="none" xmlns="http://www.w3.org/2000/svg">
<path d="M27.8165 6.80777L25.0249 1.00491C24.9221 0.791333 24.7797 0.600889 24.606 0.444459C24.4323 0.28803 24.2307 0.168679 24.0126 0.0932219C23.7945 0.017765 23.5643 -0.0123197 23.335 0.00468603C23.1057 0.0216917 22.8819 0.0854549 22.6763 0.192334L19.9558 1.60498L14.225 0.0298174C14.078 -0.00993914 13.9236 -0.00993914 13.7765 0.0298174L8.04568 1.60498L5.3252 0.192334C5.11964 0.0854549 4.89583 0.0216917 4.66655 0.00468603C4.43727 -0.0123197 4.20701 0.017765 3.98892 0.0932219C3.77083 0.168679 3.56918 0.28803 3.39549 0.444459C3.22181 0.600889 3.07948 0.791333 2.97664 1.00491L0.185057 6.80663C0.0821844 7.0202 0.0208114 7.25272 0.00444309 7.49093C-0.0119252 7.72914 0.0170318 7.96837 0.0896604 8.19495C0.162289 8.42153 0.277167 8.63103 0.427733 8.81148C0.578299 8.99193 0.761605 9.1398 0.967182 9.24665L3.92066 10.782L9.9906 15.2859C10.0801 15.3519 10.1806 15.4001 10.287 15.4279L17.2879 17.2463C17.4345 17.2845 17.5881 17.2826 17.7338 17.2408C17.8795 17.199 18.0123 17.1186 18.1192 17.0077L24.1432 10.7479L27.0333 9.24665C27.4481 9.03086 27.7636 8.65275 27.9103 8.19542C28.0569 7.73809 28.0228 7.23897 27.8154 6.80777H27.8165ZM21.8122 10.6002L18.0481 7.46806C17.8795 7.32776 17.6669 7.25722 17.4512 7.27002C17.2355 7.28282 17.032 7.37805 16.8799 7.53739C14.9317 9.57623 12.7603 9.31825 11.3755 8.40907L16.1054 3.63586H19.585L22.5615 9.81943L21.8122 10.6002ZM4.54198 1.8175L6.78116 2.97898L3.9841 8.78069L1.74931 7.62035L4.54198 1.8175ZM17.231 15.3564L10.8745 13.7062L5.49256 9.7126L8.55543 3.34833L14.0008 1.84932L15.0728 2.14367L10.1503 7.1078L10.1416 7.11803C9.95626 7.31054 9.81493 7.54382 9.72801 7.80066C9.64109 8.0575 9.61079 8.33134 9.63935 8.60197C9.66791 8.87261 9.7546 9.13312 9.89301 9.3643C10.0314 9.59547 10.218 9.7914 10.4391 9.93763C12.6881 11.4298 15.402 11.1878 17.5395 9.36939L20.564 11.8935L17.231 15.3564ZM24.0131 8.77956L21.2215 2.98352L23.4595 1.8175L26.2522 7.62035L24.0131 8.77956ZM14.4143 19.3113C14.367 19.5078 14.2579 19.6823 14.1043 19.807C13.9507 19.9318 13.7615 19.9997 13.5665 20C13.4946 20 13.4229 19.9909 13.3532 19.9727L8.79499 18.7885C8.68839 18.7612 8.58778 18.7129 8.49855 18.6465L5.61617 16.5076C5.43894 16.363 5.32222 16.153 5.29031 15.9213C5.2584 15.6895 5.31376 15.4539 5.44486 15.2635C5.57597 15.0731 5.77271 14.9426 5.99412 14.8991C6.21553 14.8557 6.44455 14.9026 6.63348 15.0302L9.38021 17.069L13.782 18.21C14.0071 18.2686 14.2006 18.4176 14.32 18.6243C14.4394 18.831 14.4749 19.0785 14.4186 19.3124L14.4143 19.3113Z" fill="#045DE3"/>
</svg>
