<svg width="58" height="58" viewBox="0 0 58 58" fill="none" xmlns="http://www.w3.org/2000/svg">
<g filter="url(#filter0_d_3749_7334)">
<path d="M5 25C5 11.7452 15.7452 1 29 1C42.2548 1 53 11.7452 53 25C53 38.2548 42.2548 49 29 49C15.7452 49 5 38.2548 5 25Z" fill="white" fill-opacity="0.6" shape-rendering="crispEdges"/>
<path d="M5 25C5 11.7452 15.7452 1 29 1C42.2548 1 53 11.7452 53 25C53 38.2548 42.2548 49 29 49C15.7452 49 5 38.2548 5 25Z" stroke="url(#paint0_linear_3749_7334)" stroke-opacity="0.4" shape-rendering="crispEdges"/>
<path d="M42.8165 21.8078L40.0249 16.0049C39.9221 15.7913 39.7797 15.6009 39.606 15.4445C39.4323 15.288 39.2307 15.1687 39.0126 15.0932C38.7945 15.0178 38.5643 14.9877 38.335 15.0047C38.1057 15.0217 37.8819 15.0855 37.6763 15.1923L34.9558 16.605L29.225 15.0298C29.078 14.9901 28.9236 14.9901 28.7765 15.0298L23.0457 16.605L20.3252 15.1923C20.1196 15.0855 19.8958 15.0217 19.6665 15.0047C19.4373 14.9877 19.207 15.0178 18.9889 15.0932C18.7708 15.1687 18.5692 15.288 18.3955 15.4445C18.2218 15.6009 18.0795 15.7913 17.9766 16.0049L15.1851 21.8066C15.0822 22.0202 15.0208 22.2527 15.0044 22.4909C14.9881 22.7291 15.017 22.9684 15.0897 23.195C15.1623 23.4215 15.2772 23.631 15.4277 23.8115C15.5783 23.9919 15.7616 24.1398 15.9672 24.2466L18.9207 25.782L24.9906 30.2859C25.0801 30.3519 25.1806 30.4001 25.287 30.4279L32.2879 32.2463C32.4345 32.2845 32.5881 32.2826 32.7338 32.2408C32.8795 32.199 33.0123 32.1186 33.1192 32.0077L39.1432 25.7479L42.0333 24.2466C42.4481 24.0309 42.7636 23.6528 42.9103 23.1954C43.0569 22.7381 43.0228 22.239 42.8154 21.8078H42.8165ZM36.8122 25.6002L33.0481 22.4681C32.8795 22.3278 32.6669 22.2572 32.4512 22.27C32.2355 22.2828 32.032 22.3781 31.8799 22.5374C29.9317 24.5762 27.7603 24.3182 26.3755 23.4091L31.1054 18.6359H34.585L37.5615 24.8194L36.8122 25.6002ZM19.542 16.8175L21.7812 17.979L18.9841 23.7807L16.7493 22.6203L19.542 16.8175ZM32.231 30.3564L25.8745 28.7062L20.4926 24.7126L23.5554 18.3483L29.0008 16.8493L30.0728 17.1437L25.1503 22.1078L25.1416 22.118C24.9563 22.3105 24.8149 22.5438 24.728 22.8007C24.6411 23.0575 24.6108 23.3313 24.6394 23.602C24.6679 23.8726 24.7546 24.1331 24.893 24.3643C25.0314 24.5955 25.218 24.7914 25.4391 24.9376C27.6881 26.4298 30.402 26.1878 32.5395 24.3694L35.564 26.8935L32.231 30.3564ZM39.0131 23.7796L36.2215 17.9835L38.4595 16.8175L41.2522 22.6203L39.0131 23.7796ZM29.4143 34.3113C29.367 34.5078 29.2579 34.6823 29.1043 34.807C28.9507 34.9318 28.7615 34.9997 28.5665 35C28.4946 35 28.4229 34.9909 28.3532 34.9727L23.795 33.7885C23.6884 33.7612 23.5878 33.7129 23.4985 33.6465L20.6162 31.5076C20.4389 31.363 20.3222 31.153 20.2903 30.9213C20.2584 30.6895 20.3138 30.4539 20.4449 30.2635C20.576 30.0731 20.7727 29.9426 20.9941 29.8991C21.2155 29.8557 21.4445 29.9026 21.6335 30.0302L24.3802 32.069L28.782 33.21C29.0071 33.2686 29.2006 33.4176 29.32 33.6243C29.4394 33.831 29.4749 34.0785 29.4186 34.3124L29.4143 34.3113Z" fill="#045DE3"/>
</g>
<defs>
<filter id="filter0_d_3749_7334" x="-3.5" y="-7.5" width="65" height="65" filterUnits="userSpaceOnUse" color-interpolation-filters="sRGB">
<feFlood flood-opacity="0" result="BackgroundImageFix"/>
<feColorMatrix in="SourceAlpha" type="matrix" values="0 0 0 0 0 0 0 0 0 0 0 0 0 0 0 0 0 0 127 0" result="hardAlpha"/>
<feOffset dy="4"/>
<feGaussianBlur stdDeviation="2"/>
<feComposite in2="hardAlpha" operator="out"/>
<feColorMatrix type="matrix" values="0 0 0 0 0.407843 0 0 0 0 0.619608 0 0 0 0 0.933333 0 0 0 0.16 0"/>
<feBlend mode="normal" in2="BackgroundImageFix" result="effect1_dropShadow_3749_7334"/>
<feBlend mode="normal" in="SourceGraphic" in2="effect1_dropShadow_3749_7334" result="shape"/>
</filter>
<linearGradient id="paint0_linear_3749_7334" x1="5" y1="1" x2="56.067" y2="4.52124" gradientUnits="userSpaceOnUse">
<stop stop-color="#034AB6"/>
<stop offset="1" stop-color="#034AB6" stop-opacity="0"/>
</linearGradient>
</defs>
</svg>
