<svg width="40" height="40" viewBox="0 0 40 40" fill="none" xmlns="http://www.w3.org/2000/svg">
<path opacity="0.5" d="M18.1955 10.9584C17.9372 9.84345 17.7172 8.90011 17.4788 8.15845L28.5355 11.3668C28.6088 11.3884 28.7988 11.4718 29.0605 12.1601C29.3172 12.8334 29.5505 13.8218 29.8838 15.2584L30.0838 16.1184C30.1283 16.3096 30.1722 16.4918 30.2155 16.6651L20.1955 13.8884L19.6888 13.6018C18.9722 13.1934 18.8422 13.0984 18.7488 12.9684C18.6455 12.8251 18.5838 12.6251 18.3822 11.7518L18.1955 10.9584ZM23.9038 16.6451L32.2505 18.9568L32.7572 19.2451C33.9338 19.9168 34.7288 20.3718 35.2455 20.7851C35.7405 21.1818 35.8255 21.4184 35.8322 21.6218C35.8405 21.8334 35.7638 22.1001 35.2872 22.5768C34.7972 23.0684 34.0355 23.6368 32.9155 24.4701L32.2488 24.9634C31.9355 25.1968 31.6505 25.4068 31.4122 25.6434L20.0705 22.3534L20.6672 21.9101C21.7188 21.1284 22.5838 20.4868 23.1722 19.8968C23.7838 19.2834 24.2355 18.5918 24.2022 17.7034C24.1885 17.3319 24.0862 16.9691 23.9038 16.6451ZM18.9572 23.7668L30.6438 27.1568C30.5983 27.3912 30.5555 27.6451 30.5155 27.9184L30.3805 28.7968C30.2522 29.6301 30.0622 30.3751 29.8605 31.0051C29.5055 32.1134 29.4138 32.2684 29.1472 32.4218C29.0338 32.4884 28.9255 32.5151 28.6988 32.4901C28.4222 32.4601 28.0672 32.3601 27.4622 32.1834L17.8055 29.3834C17.9211 29.1368 18.0161 28.879 18.0905 28.6101C18.3322 27.7818 18.5072 26.6518 18.7222 25.2568L18.8472 24.4434C18.8922 24.1534 18.9272 23.9351 18.9572 23.7668Z" fill="#045DE3"/>
<path d="M12.3437 10.1217C13.2971 9.05667 13.9504 8.33167 14.4771 7.89167C15.0104 7.44833 15.1854 7.49333 15.2404 7.50833C15.3121 7.53 15.5021 7.615 15.7654 8.30333C16.0221 8.97666 16.2537 9.965 16.5887 11.4L16.7887 12.26C16.9437 12.9317 17.0721 13.49 17.3954 13.94C17.7271 14.4033 18.2087 14.6767 18.7587 14.99L18.8654 15.0483L19.4604 15.3883C20.6387 16.06 21.4321 16.515 21.9487 16.9283C22.4437 17.325 22.5304 17.5617 22.5371 17.7633C22.5454 17.9767 22.4671 18.2417 21.9921 18.72C21.5021 19.2117 20.7387 19.78 19.6187 20.6133L18.9537 21.1067C18.4254 21.4983 17.9804 21.8283 17.6937 22.32C17.4121 22.8017 17.3271 23.365 17.2204 24.0617L17.0854 24.94C16.8571 26.4133 16.6987 27.4333 16.4921 28.1433C16.3754 28.5433 16.2637 28.765 16.1704 28.8933C15.9904 28.8267 15.7487 28.7267 15.4654 28.5917C14.5465 28.1459 13.6953 27.5724 12.9371 26.8883L12.4171 26.4217L12.3937 26.4C12.1633 26.1848 11.9242 25.9791 11.6771 25.7833C11.443 25.5949 11.1748 25.4534 10.8871 25.3667C10.3471 25.21 9.78873 25.315 9.18707 25.4283L9.05873 25.4517L8.39207 25.5767C7.06873 25.8217 6.18373 25.9817 5.54873 25.9933C4.93873 26.005 4.8104 25.8733 4.74207 25.7783C4.6454 25.645 4.55707 25.385 4.7054 24.655C4.85373 23.9283 5.18707 22.96 5.67207 21.56L5.95873 20.7317C6.18873 20.065 6.3754 19.5317 6.35373 18.97C6.33207 18.4033 6.10707 17.8933 5.82873 17.2633L5.48207 16.48C4.89873 15.155 4.49707 14.2417 4.29707 13.5433C4.09873 12.8517 4.1604 12.5717 4.2604 12.4017C4.34373 12.26 4.49207 12.11 5.09373 12.035C5.72707 11.9567 6.61873 11.9917 7.9504 12.0483L8.62373 12.0767L8.7504 12.0833C9.36207 12.11 9.92207 12.1333 10.4421 11.905C10.9471 11.6817 11.3287 11.255 11.7671 10.7633L11.8587 10.6617L12.3437 10.1217Z" fill="#045DE3"/>
</svg>
