<svg width="58" height="58" viewBox="0 0 58 58" fill="none" xmlns="http://www.w3.org/2000/svg">
<g filter="url(#filter0_d_3749_7328)">
<path d="M5 25C5 11.7452 15.7452 1 29 1C42.2548 1 53 11.7452 53 25C53 38.2548 42.2548 49 29 49C15.7452 49 5 38.2548 5 25Z" fill="white" fill-opacity="0.6" shape-rendering="crispEdges"/>
<path d="M5 25C5 11.7452 15.7452 1 29 1C42.2548 1 53 11.7452 53 25C53 38.2548 42.2548 49 29 49C15.7452 49 5 38.2548 5 25Z" stroke="url(#paint0_linear_3749_7328)" stroke-opacity="0.4" shape-rendering="crispEdges"/>
<path d="M20.0606 15C19.8782 15 19.7033 15.0702 19.5744 15.1953C19.4454 15.3203 19.3729 15.4899 19.3729 15.6667C19.3729 15.8435 19.4454 16.013 19.5744 16.1381C19.7033 16.2631 19.8782 16.3333 20.0606 16.3333H21.0921L18.1036 23.2867C18.0309 23.4578 17.9958 23.6417 18.0004 23.8267C18.0394 24.8616 18.4909 25.8415 19.2598 26.5602C20.0288 27.279 21.0554 27.6806 22.1235 27.6806C23.1917 27.6806 24.2182 27.279 24.9872 26.5602C25.7562 25.8415 26.2077 24.8616 26.2467 23.8267C26.2513 23.6417 26.2162 23.4578 26.1435 23.2867L23.155 16.3333H28.3124V29.6667H23.4988C22.7693 29.6667 22.0697 29.9476 21.5539 30.4477C21.038 30.9478 20.7482 31.6261 20.7482 32.3333C20.7482 33.0406 21.038 33.7189 21.5539 34.219C22.0697 34.719 22.7693 35 23.4988 35H34.5012C35.2307 35 35.9303 34.719 36.4461 34.219C36.962 33.7189 37.2518 33.0406 37.2518 32.3333C37.2518 31.6261 36.962 30.9478 36.4461 30.4477C35.9303 29.9476 35.2307 29.6667 34.5012 29.6667H29.6876V16.3333H34.845L31.8565 23.2867C31.7838 23.4578 31.7487 23.6417 31.7533 23.8267C31.7923 24.8616 32.2438 25.8415 33.0128 26.5602C33.7818 27.279 34.8083 27.6806 35.8765 27.6806C36.9446 27.6806 37.9712 27.279 38.7402 26.5602C39.5091 25.8415 39.9606 24.8616 39.9996 23.8267C40.0042 23.6417 39.9691 23.4578 39.8964 23.2867L36.9079 16.3333H37.9394C38.1218 16.3333 38.2967 16.2631 38.4256 16.1381C38.5546 16.013 38.6271 15.8435 38.6271 15.6667C38.6271 15.4899 38.5546 15.3203 38.4256 15.1953C38.2967 15.0702 38.1218 15 37.9394 15H20.0606ZM22.1235 26.3333C21.5136 26.3335 20.921 26.1371 20.4387 25.7751C19.9565 25.413 19.6121 24.9059 19.4596 24.3333H24.7875C24.635 24.9059 24.2906 25.413 23.8083 25.7751C23.3261 26.1371 22.7334 26.3335 22.1235 26.3333ZM22.1235 17.4L24.5303 23H19.7168L22.1235 17.4ZM23.4988 31H34.5012C34.8659 31 35.2157 31.1405 35.4737 31.3905C35.7316 31.6406 35.8765 31.9797 35.8765 32.3333C35.8765 32.687 35.7316 33.0261 35.4737 33.2761C35.2157 33.5262 34.8659 33.6667 34.5012 33.6667H23.4988C23.1341 33.6667 22.7843 33.5262 22.5263 33.2761C22.2684 33.0261 22.1235 32.687 22.1235 32.3333C22.1235 31.9797 22.2684 31.6406 22.5263 31.3905C22.7843 31.1405 23.1341 31 23.4988 31ZM38.2832 23H33.4697L35.8765 17.4L38.2832 23ZM33.2125 24.3333H38.5404C38.3875 24.9055 38.0428 25.4122 37.5607 25.774C37.0785 26.1357 36.4861 26.332 35.8765 26.332C35.2668 26.332 34.6744 26.1357 34.1922 25.774C33.7101 25.4122 33.3655 24.9055 33.2125 24.3333Z" fill="#045DE3"/>
</g>
<defs>
<filter id="filter0_d_3749_7328" x="-3.5" y="-7.5" width="65" height="65" filterUnits="userSpaceOnUse" color-interpolation-filters="sRGB">
<feFlood flood-opacity="0" result="BackgroundImageFix"/>
<feColorMatrix in="SourceAlpha" type="matrix" values="0 0 0 0 0 0 0 0 0 0 0 0 0 0 0 0 0 0 127 0" result="hardAlpha"/>
<feOffset dy="4"/>
<feGaussianBlur stdDeviation="2"/>
<feComposite in2="hardAlpha" operator="out"/>
<feColorMatrix type="matrix" values="0 0 0 0 0.407843 0 0 0 0 0.619608 0 0 0 0 0.933333 0 0 0 0.16 0"/>
<feBlend mode="normal" in2="BackgroundImageFix" result="effect1_dropShadow_3749_7328"/>
<feBlend mode="normal" in="SourceGraphic" in2="effect1_dropShadow_3749_7328" result="shape"/>
</filter>
<linearGradient id="paint0_linear_3749_7328" x1="5" y1="1" x2="56.067" y2="4.52124" gradientUnits="userSpaceOnUse">
<stop stop-color="#034AB6"/>
<stop offset="1" stop-color="#034AB6" stop-opacity="0"/>
</linearGradient>
</defs>
</svg>
