<svg width="22" height="20" viewBox="0 0 22 20" fill="none" xmlns="http://www.w3.org/2000/svg">
<path d="M2.0606 0C1.87822 0 1.70331 0.070238 1.57436 0.195262C1.4454 0.320287 1.37295 0.489856 1.37295 0.666667C1.37295 0.843478 1.4454 1.01305 1.57436 1.13807C1.70331 1.2631 1.87822 1.33333 2.0606 1.33333H3.09207L0.103553 8.28667C0.0308929 8.45778 -0.00423413 8.64168 0.000406612 8.82667C0.0394042 9.86156 0.490874 10.8415 1.25985 11.5602C2.02882 12.279 3.05536 12.6806 4.12354 12.6806C5.19171 12.6806 6.21825 12.279 6.98722 11.5602C7.7562 10.8415 8.20767 9.86156 8.24666 8.82667C8.2513 8.64168 8.21618 8.45778 8.14352 8.28667L5.155 1.33333H10.3124V14.6667H5.49883C4.76933 14.6667 4.0697 14.9476 3.55387 15.4477C3.03803 15.9478 2.74824 16.6261 2.74824 17.3333C2.74824 18.0406 3.03803 18.7189 3.55387 19.219C4.0697 19.719 4.76933 20 5.49883 20H16.5012C17.2307 20 17.9303 19.719 18.4461 19.219C18.962 18.7189 19.2518 18.0406 19.2518 17.3333C19.2518 16.6261 18.962 15.9478 18.4461 15.4477C17.9303 14.9476 17.2307 14.6667 16.5012 14.6667H11.6876V1.33333H16.845L13.8565 8.28667C13.7838 8.45778 13.7487 8.64168 13.7533 8.82667C13.7923 9.86156 14.2438 10.8415 15.0128 11.5602C15.7818 12.279 16.8083 12.6806 17.8765 12.6806C18.9446 12.6806 19.9712 12.279 20.7402 11.5602C21.5091 10.8415 21.9606 9.86156 21.9996 8.82667C22.0042 8.64168 21.9691 8.45778 21.8964 8.28667L18.9079 1.33333H19.9394C20.1218 1.33333 20.2967 1.2631 20.4256 1.13807C20.5546 1.01305 20.6271 0.843478 20.6271 0.666667C20.6271 0.489856 20.5546 0.320287 20.4256 0.195262C20.2967 0.070238 20.1218 0 19.9394 0H2.0606ZM4.12354 11.3333C3.51362 11.3335 2.92096 11.1371 2.43873 10.7751C1.9565 10.413 1.61207 9.90586 1.45959 9.33333H6.78748C6.635 9.90586 6.29057 10.413 5.80834 10.7751C5.32612 11.1371 4.73345 11.3335 4.12354 11.3333ZM4.12354 2.4L6.5303 8H1.71677L4.12354 2.4ZM5.49883 16H16.5012C16.8659 16 17.2157 16.1405 17.4737 16.3905C17.7316 16.6406 17.8765 16.9797 17.8765 17.3333C17.8765 17.687 17.7316 18.0261 17.4737 18.2761C17.2157 18.5262 16.8659 18.6667 16.5012 18.6667H5.49883C5.13408 18.6667 4.78427 18.5262 4.52635 18.2761C4.26843 18.0261 4.12354 17.687 4.12354 17.3333C4.12354 16.9797 4.26843 16.6406 4.52635 16.3905C4.78427 16.1405 5.13408 16 5.49883 16ZM20.2832 8H15.4697L17.8765 2.4L20.2832 8ZM15.2125 9.33333H20.5404C20.3875 9.90549 20.0428 10.4122 19.5607 10.774C19.0785 11.1357 18.4861 11.332 17.8765 11.332C17.2668 11.332 16.6744 11.1357 16.1922 10.774C15.7101 10.4122 15.3655 9.90549 15.2125 9.33333Z" fill="#045DE3"/>
</svg>
