<svg width="58" height="58" viewBox="0 0 58 58" fill="none" xmlns="http://www.w3.org/2000/svg">
<g filter="url(#filter0_d_3749_7353)">
<path d="M5 25C5 11.7452 15.7452 1 29 1C42.2548 1 53 11.7452 53 25C53 38.2548 42.2548 49 29 49C15.7452 49 5 38.2548 5 25Z" fill="white" fill-opacity="0.6" shape-rendering="crispEdges"/>
<path d="M5 25C5 11.7452 15.7452 1 29 1C42.2548 1 53 11.7452 53 25C53 38.2548 42.2548 49 29 49C15.7452 49 5 38.2548 5 25Z" stroke="url(#paint0_linear_3749_7353)" stroke-opacity="0.4" shape-rendering="crispEdges"/>
<path d="M20 24H19.25V25.0406L20.2372 24.7115L20 24ZM29 21L29.2372 20.2885L29 20.2094L28.7628 20.2885L29 21ZM20.9285 26.8533C20.8475 26.4471 20.4526 26.1835 20.0463 26.2645C19.6401 26.3455 19.3765 26.7404 19.4575 27.1467L20.9285 26.8533ZM26.899 34.527L27.1993 33.8397L27.199 33.8396L26.899 34.527ZM31.101 34.527L30.8017 33.8393L30.8007 33.8397L31.101 34.527ZM33.3951 34.1705C33.7472 33.9523 33.8557 33.49 33.6375 33.1379C33.4193 32.7858 32.957 32.6773 32.6049 32.8955L33.3951 34.1705ZM35.4109 30.4398C35.1545 30.7652 35.2105 31.2367 35.5358 31.4931C35.8612 31.7495 36.3327 31.6935 36.5891 31.3682L35.4109 30.4398ZM37.622 18.082L37.0082 18.5129L37.0083 18.5132L37.622 18.082ZM32.735 16.001L32.9778 15.2914L32.9777 15.2914L32.735 16.001ZM32.162 15.805L31.9189 16.5145L31.9193 16.5146L32.162 15.805ZM25.838 15.805L26.0796 16.515L26.0811 16.5145L25.838 15.805ZM25.265 16L25.0234 15.29L25.022 15.2905L25.265 16ZM20.378 18.082L20.9917 18.5132L20.9918 18.5129L20.378 18.082ZM20.2372 24.7115L29.2372 21.7115L28.7628 20.2885L19.7628 23.2885L20.2372 24.7115ZM28.7628 21.7115L37.7628 24.7115L38.2372 23.2885L29.2372 20.2885L28.7628 21.7115ZM28.25 15V34.5H29.75V15H28.25ZM19.4575 27.1467C20.3878 31.8124 24.2043 34.1691 26.599 35.2144L27.199 33.8396C24.9477 32.8569 21.7122 30.7836 20.9285 26.8533L19.4575 27.1467ZM26.5987 35.2143C26.9484 35.367 27.2749 35.5116 27.6515 35.6081C28.039 35.7074 28.4507 35.75 29 35.75V34.25C28.5303 34.25 28.252 34.2136 28.024 34.1551C27.7851 34.0939 27.5706 34.002 27.1993 33.8397L26.5987 35.2143ZM29 35.75C29.5497 35.75 29.9615 35.7075 30.3489 35.6081C30.7254 35.5116 31.0518 35.3669 31.4013 35.2143L30.8007 33.8397C30.4292 34.0021 30.215 34.0939 29.9764 34.1551C29.7485 34.2135 29.4703 34.25 29 34.25V35.75ZM31.4003 35.2147C32.0081 34.9502 32.6927 34.6058 33.3951 34.1705L32.6049 32.8955C31.9713 33.2882 31.3519 33.5998 30.8017 33.8393L31.4003 35.2147ZM36.5891 31.3682C37.8474 29.7712 38.75 27.6782 38.75 24.991H37.25C37.25 27.3138 36.4786 29.0848 35.4109 30.4398L36.5891 31.3682ZM38.75 24.991V23.417H37.25V24.991H38.75ZM38.75 23.417C38.75 21.8275 38.7503 20.6034 38.7016 19.7112C38.6773 19.2644 38.6395 18.8752 38.577 18.5508C38.5167 18.2387 38.4209 17.9145 38.2357 17.6508L37.0083 18.5132C37.0066 18.5107 37.0201 18.5296 37.0403 18.5864C37.0603 18.6425 37.0825 18.723 37.1041 18.8349C37.1478 19.0615 37.181 19.3729 37.2039 19.7928C37.2497 20.6341 37.25 21.8085 37.25 23.417H38.75ZM38.2358 17.6511C38.0487 17.3845 37.7733 17.1858 37.4988 17.0264C37.2136 16.8608 36.8592 16.6986 36.447 16.5312C35.6239 16.1968 34.4721 15.8027 32.9778 15.2914L32.4922 16.7106C34.0049 17.2283 35.1081 17.6062 35.8825 17.9208C36.269 18.0779 36.5491 18.2095 36.7456 18.3236C36.8427 18.3799 36.9095 18.4264 36.9541 18.4627C36.9993 18.4994 37.011 18.517 37.0082 18.5129L38.2358 17.6511ZM32.9777 15.2914L32.4047 15.0954L31.9193 16.5146L32.4923 16.7106L32.9777 15.2914ZM32.4051 15.0955C30.8851 14.5746 29.9657 14.25 29 14.25V15.75C29.6583 15.75 30.3049 15.9614 31.9189 16.5145L32.4051 15.0955ZM29 14.25C28.0343 14.25 27.1149 14.5746 25.5949 15.0955L26.0811 16.5145C27.6951 15.9614 28.3417 15.75 29 15.75V14.25ZM25.5964 15.095L25.0234 15.29L25.5066 16.71L26.0796 16.515L25.5964 15.095ZM25.022 15.2905C23.5277 15.8023 22.3759 16.1966 21.5529 16.5311C21.1407 16.6986 20.7864 16.8608 20.5012 17.0264C20.2267 17.1858 19.9513 17.3845 19.7642 17.6511L20.9918 18.5129C20.989 18.517 21.0007 18.4994 21.0459 18.4627C21.0905 18.4264 21.1574 18.3799 21.2544 18.3236C21.451 18.2094 21.7311 18.0778 22.1176 17.9207C22.8921 17.6059 23.9953 17.2277 25.508 16.7095L25.022 15.2905ZM19.7643 17.6508C19.579 17.9145 19.4832 18.2388 19.423 18.551C19.3605 18.8754 19.3227 19.2647 19.2984 19.7116C19.2497 20.6039 19.25 21.828 19.25 23.417H20.75C20.75 21.809 20.7503 20.6346 20.7961 19.7932C20.819 19.3732 20.8522 19.0617 20.8959 18.835C20.9175 18.723 20.9397 18.6425 20.9597 18.5864C20.98 18.5295 20.9934 18.5106 20.9917 18.5132L19.7643 17.6508ZM19.25 23.417V24H20.75V23.417H19.25Z" fill="#045DE3"/>
</g>
<defs>
<filter id="filter0_d_3749_7353" x="-3.5" y="-7.5" width="65" height="65" filterUnits="userSpaceOnUse" color-interpolation-filters="sRGB">
<feFlood flood-opacity="0" result="BackgroundImageFix"/>
<feColorMatrix in="SourceAlpha" type="matrix" values="0 0 0 0 0 0 0 0 0 0 0 0 0 0 0 0 0 0 127 0" result="hardAlpha"/>
<feOffset dy="4"/>
<feGaussianBlur stdDeviation="2"/>
<feComposite in2="hardAlpha" operator="out"/>
<feColorMatrix type="matrix" values="0 0 0 0 0.407843 0 0 0 0 0.619608 0 0 0 0 0.933333 0 0 0 0.16 0"/>
<feBlend mode="normal" in2="BackgroundImageFix" result="effect1_dropShadow_3749_7353"/>
<feBlend mode="normal" in="SourceGraphic" in2="effect1_dropShadow_3749_7353" result="shape"/>
</filter>
<linearGradient id="paint0_linear_3749_7353" x1="5" y1="1" x2="56.067" y2="4.52124" gradientUnits="userSpaceOnUse">
<stop stop-color="#034AB6"/>
<stop offset="1" stop-color="#034AB6" stop-opacity="0"/>
</linearGradient>
</defs>
</svg>
