<svg width="20" height="22" viewBox="0 0 20 22" fill="none" xmlns="http://www.w3.org/2000/svg">
<path d="M1 10H0.25V11.0406L1.23717 10.7115L1 10ZM10 7L10.2372 6.28849L10 6.20943L9.76283 6.28849L10 7ZM1.92852 12.8533C1.84752 12.4471 1.45256 12.1835 1.04634 12.2645C0.640124 12.3455 0.376481 12.7404 0.457479 13.1467L1.92852 12.8533ZM7.899 20.527L8.19926 19.8397L8.19904 19.8396L7.899 20.527ZM12.101 20.527L11.8017 19.8393L11.8007 19.8397L12.101 20.527ZM14.3951 20.1705C14.7472 19.9523 14.8557 19.49 14.6375 19.1379C14.4193 18.7858 13.957 18.6773 13.6049 18.8955L14.3951 20.1705ZM16.4109 16.4398C16.1545 16.7652 16.2105 17.2367 16.5358 17.4931C16.8612 17.7495 17.3327 17.6935 17.5891 17.3682L16.4109 16.4398ZM18.622 4.082L18.0082 4.51294L18.0083 4.51317L18.622 4.082ZM13.735 2.001L13.9778 1.2914L13.9777 1.29137L13.735 2.001ZM13.162 1.805L12.9189 2.5145L12.9193 2.51463L13.162 1.805ZM6.838 1.805L7.07963 2.51501L7.08114 2.5145L6.838 1.805ZM6.265 2L6.02337 1.28999L6.02196 1.29047L6.265 2ZM1.378 4.082L1.99167 4.51317L1.99183 4.51294L1.378 4.082ZM1.23717 10.7115L10.2372 7.71151L9.76283 6.28849L0.762829 9.28849L1.23717 10.7115ZM9.76283 7.71151L18.7628 10.7115L19.2372 9.28849L10.2372 6.28849L9.76283 7.71151ZM9.25 1V20.5H10.75V1H9.25ZM0.457479 13.1467C1.3878 17.8124 5.20428 20.1691 7.59896 21.2144L8.19904 19.8396C5.94772 18.8569 2.7122 16.7836 1.92852 12.8533L0.457479 13.1467ZM7.59874 21.2143C7.94837 21.367 8.2749 21.5116 8.65155 21.6081C9.039 21.7074 9.45072 21.75 10 21.75V20.25C9.53028 20.25 9.252 20.2136 9.02395 20.1551C8.7851 20.0939 8.57063 20.002 8.19926 19.8397L7.59874 21.2143ZM10 21.75C10.5497 21.75 10.9615 21.7075 11.3489 21.6081C11.7254 21.5116 12.0518 21.3669 12.4013 21.2143L11.8007 19.8397C11.4292 20.0021 11.215 20.0939 10.9764 20.1551C10.7485 20.2135 10.4703 20.25 10 20.25V21.75ZM12.4003 21.2147C13.0081 20.9502 13.6927 20.6058 14.3951 20.1705L13.6049 18.8955C12.9713 19.2882 12.3519 19.5998 11.8017 19.8393L12.4003 21.2147ZM17.5891 17.3682C18.8474 15.7712 19.75 13.6782 19.75 10.991H18.25C18.25 13.3138 17.4786 15.0848 16.4109 16.4398L17.5891 17.3682ZM19.75 10.991V9.417H18.25V10.991H19.75ZM19.75 9.417C19.75 7.82754 19.7503 6.60339 19.7016 5.71117C19.6773 5.26437 19.6395 4.8752 19.577 4.55077C19.5167 4.23868 19.4209 3.91451 19.2357 3.65083L18.0083 4.51317C18.0066 4.51068 18.0201 4.52956 18.0403 4.58642C18.0603 4.64252 18.0825 4.72295 18.1041 4.83492C18.1478 5.06155 18.181 5.37288 18.2039 5.79282C18.2497 6.63411 18.25 7.80846 18.25 9.417H19.75ZM19.2358 3.65106C19.0487 3.38454 18.7733 3.18575 18.4988 3.0264C18.2136 2.86078 17.8592 2.69861 17.447 2.53115C16.6239 2.19676 15.4721 1.80274 13.9778 1.2914L13.4922 2.7106C15.0049 3.22826 16.1081 3.60624 16.8825 3.92085C17.269 4.07789 17.5491 4.20947 17.7456 4.3236C17.8427 4.37994 17.9095 4.42642 17.9541 4.46268C17.9993 4.49938 18.011 4.51701 18.0082 4.51294L19.2358 3.65106ZM13.9777 1.29137L13.4047 1.09537L12.9193 2.51463L13.4923 2.71063L13.9777 1.29137ZM13.4051 1.0955C11.8851 0.57461 10.9657 0.25 10 0.25V1.75C10.6583 1.75 11.3049 1.96139 12.9189 2.5145L13.4051 1.0955ZM10 0.25C9.03427 0.25 8.11487 0.57461 6.59486 1.0955L7.08114 2.5145C8.69514 1.96139 9.34173 1.75 10 1.75V0.25ZM6.59637 1.09499L6.02337 1.28999L6.50663 2.71001L7.07963 2.51501L6.59637 1.09499ZM6.02196 1.29047C4.52773 1.8023 3.37592 2.19656 2.55287 2.53107C2.14069 2.69858 1.7864 2.86077 1.50116 3.0264C1.22673 3.18576 0.951272 3.38455 0.764167 3.65106L1.99183 4.51294C1.98897 4.51701 2.00069 4.49938 2.04587 4.46267C2.0905 4.4264 2.15735 4.37992 2.2544 4.32356C2.45098 4.20942 2.73106 4.07779 3.11763 3.92068C3.89208 3.60593 4.99527 3.2277 6.50804 2.70953L6.02196 1.29047ZM0.764327 3.65083C0.579039 3.91455 0.483237 4.23884 0.423041 4.55095C0.360456 4.87545 0.322718 5.2647 0.298362 5.71156C0.249724 6.60389 0.25 7.82804 0.25 9.417H1.75C1.75 7.80896 1.75028 6.63461 1.79614 5.79319C1.81903 5.37318 1.85217 5.06174 1.8959 4.83502C1.9175 4.723 1.93968 4.64253 1.95969 4.58641C1.97997 4.52951 1.99345 4.51065 1.99167 4.51317L0.764327 3.65083ZM0.25 9.417V10H1.75V9.417H0.25Z" fill="#045DE3"/>
</svg>
