<svg width="42" height="35" viewBox="0 0 42 35" fill="none" xmlns="http://www.w3.org/2000/svg">
    <g id="Property 1=ES" clip-path="url(#clip0_301_1961)" filter="url(#filter0_dd_301_1961)">
        <rect width="28" height="20" transform="translate(7 3)" fill="#F93939"/>
        <g id="Element">
            <path d="M32.4195 3H9.67574C8.19797 3 7 4.19391 7 5.66667V20.3333C7 21.8061 8.19797 23 9.67574 23H32.4195C33.8973 23 35.0952 21.8061 35.0952 20.3333V5.66667C35.0952 4.19391 33.8973 3 32.4195 3Z"
                  fill="#F93939"/>
            <path fill-rule="evenodd" clip-rule="evenodd" d="M7 8.33336H35.0952V17.6667H7V8.33336Z" fill="#FFDA2C"/>
            <path fill-rule="evenodd" clip-rule="evenodd"
                  d="M19.0408 11.296V14.656C19.0408 15.5894 18.1418 16.336 17.034 16.336H14.3583C13.2532 16.3334 12.3515 15.5827 12.3515 14.6534V11.2934C12.3515 10.5307 12.9509 9.89337 13.775 9.68671C14.0238 8.99337 14.7891 9.61471 15.6962 9.61471C16.6086 9.61471 17.3685 8.99737 17.6174 9.68804C18.4388 9.90004 19.0408 10.5387 19.0408 11.296Z"
                  fill="#D4AF2C"/>
            <path fill-rule="evenodd" clip-rule="evenodd"
                  d="M19.0407 12.3333H20.3786V16.3333H19.0407V12.3333ZM11.0135 12.3333H12.3514V16.3333H11.0135V12.3333Z"
                  fill="#CBCBCB"/>
            <path fill-rule="evenodd" clip-rule="evenodd"
                  d="M19.0407 15H20.3786V16.3333H19.0407V15ZM11.0135 15H12.3514V16.3333H11.0135V15Z" fill="#1A47B8"/>
            <path fill-rule="evenodd" clip-rule="evenodd"
                  d="M19.0407 11H20.3786V12.3333H19.0407V11ZM11.0135 11H12.3514V12.3333H11.0135V11Z" fill="#D4AF2C"/>
            <path fill-rule="evenodd" clip-rule="evenodd"
                  d="M13.6893 11H15.0272V13H13.6893V11ZM16.3651 13.6667H17.7029V15.6667H16.3651V13.6667Z"
                  fill="#AF010D"/>
            <path fill-rule="evenodd" clip-rule="evenodd" d="M13.6893 13.6667H15.0272V15.6667H13.6893V13.6667Z"
                  fill="#FFDA2C"/>
            <path fill-rule="evenodd" clip-rule="evenodd" d="M16.365 11H17.7029V13H16.365V11Z" fill="#AE6A3E"/>
            <path fill-rule="evenodd" clip-rule="evenodd" d="M15.0272 11L13.6893 9.6667H17.7029L16.365 11H15.0272Z"
                  fill="#AF010D"/>
            <path fill-rule="evenodd" clip-rule="evenodd" d="M15.0271 8.33336H16.3649V9.66669H15.0271V8.33336Z"
                  fill="#D4AF2C"/>
        </g>
    </g>
    <defs>
        <filter id="filter0_dd_301_1961" x="0.142857" y="0.714285" width="41.7143" height="33.7143"
                filterUnits="userSpaceOnUse" color-interpolation-filters="sRGB">
            <feFlood flood-opacity="0" result="BackgroundImageFix"/>
            <feColorMatrix in="SourceAlpha" type="matrix" values="0 0 0 0 0 0 0 0 0 0 0 0 0 0 0 0 0 0 127 0"
                           result="hardAlpha"/>
            <feOffset dy="4.57143"/>
            <feGaussianBlur stdDeviation="3.42857"/>
            <feComposite in2="hardAlpha" operator="out"/>
            <feColorMatrix type="matrix" values="0 0 0 0 0.258824 0 0 0 0 0.278431 0 0 0 0 0.298039 0 0 0 0.08 0"/>
            <feBlend mode="normal" in2="BackgroundImageFix" result="effect1_dropShadow_301_1961"/>
            <feColorMatrix in="SourceAlpha" type="matrix" values="0 0 0 0 0 0 0 0 0 0 0 0 0 0 0 0 0 0 127 0"
                           result="hardAlpha"/>
            <feOffset/>
            <feGaussianBlur stdDeviation="0.285714"/>
            <feComposite in2="hardAlpha" operator="out"/>
            <feColorMatrix type="matrix" values="0 0 0 0 0.258824 0 0 0 0 0.278431 0 0 0 0 0.298039 0 0 0 0.32 0"/>
            <feBlend mode="normal" in2="effect1_dropShadow_301_1961" result="effect2_dropShadow_301_1961"/>
            <feBlend mode="normal" in="SourceGraphic" in2="effect2_dropShadow_301_1961" result="shape"/>
        </filter>
        <clipPath id="clip0_301_1961">
            <rect width="28" height="20" fill="white" transform="translate(7 3)"/>
        </clipPath>
    </defs>
</svg>
