<svg xmlns="http://www.w3.org/2000/svg" width="32" height="48" viewBox="0 0 32 48" fill="none">
    <path d="M14.8818 29.3598C14.8818 29.3598 19.6186 29.8599 22.7596 27.2858C25.258 28.5017 26.7606 29.5807 30.8392 29.3985C30.8961 32.5852 30.9762 35.87 30.9594 37.1183C30.953 37.5705 30.8948 38.0215 30.781 38.4596C30.3012 40.3217 28.5568 44.4141 22.8747 46.9508C20.2121 45.5616 17.6142 43.6556 16.0986 41.2585C15.2904 39.9805 14.8792 38.4919 14.8792 36.98V29.3611L14.8818 29.3598Z" stroke="#02255B" stroke-width="1.5" stroke-linecap="round" stroke-linejoin="round"/>
    <path d="M19.1685 36.6751L21.8143 39.1975L26.9171 34.1979" stroke="#02255B" stroke-width="1.5" stroke-linecap="round" stroke-linejoin="round"/>
    <path d="M16.3262 44.2953C16.3262 44.4349 16.3262 44.5757 16.3262 44.7153C16.365 46.1703 15.9551 46.9108 14.0723 47.0749C12.3744 47.0128 11.4821 45.9687 11.4433 45.1223C11.411 44.4064 11.4161 34.3594 11.4562 30.0551" stroke="#02255B" stroke-width="1.5" stroke-linecap="round" stroke-linejoin="round"/>
    <path d="M11.4329 44.8974C11.3916 46.4184 10.1269 47.0477 9.1415 47.0748C7.58585 47.1175 6.35219 46.5244 6.33926 45.0448C6.32374 43.2796 6.34831 17.8939 6.33279 17.7595C6.29658 17.4365 6.45564 16.9739 5.93062 16.9235C5.35905 16.8692 5.3125 17.3628 5.27759 17.7285C5.12112 19.3697 4.65817 25.3229 4.52239 26.6539C4.42152 27.6334 3.60426 28.3092 2.65121 28.2562C1.67489 28.2033 0.931332 27.4098 1.00504 26.3864C1.15505 24.3176 1.69299 17.4339 1.9542 16.0797C2.44948 13.512 4.80171 11.5453 7.51343 11.4897C10.0726 11.438 12.6356 11.438 15.1947 11.4897C17.7681 11.5427 19.8798 13.2536 20.5638 15.9207C21.2531 18.6047 21.8027 21.3235 22.3885 24.0307C22.5579 24.8138 21.8544 25.7106 21.0035 25.8915C20.1151 26.0814 19.122 25.54 18.9034 24.6445C18.5414 23.1572 17.6181 18.5581 17.4383 17.7634C17.384 17.5218 17.1331 16.7697 16.6469 16.855C16.1736 16.9377 16.3223 17.7582 16.3223 18.0089C16.3223 21.0999 16.3223 24.1909 16.321 27.2819" stroke="#02255B" stroke-width="1.5" stroke-linecap="round" stroke-linejoin="round"/>
    <path d="M6.52417 5.50539C6.51512 2.97522 8.61906 0.937398 11.2571 0.923184C13.9235 0.907677 16.0844 2.94422 16.0947 5.47955C16.1051 7.97741 13.9572 10.0566 11.3463 10.076C8.69147 10.0967 6.53322 8.04977 6.52417 5.50539Z" stroke="#02255B" stroke-width="1.5" stroke-linecap="round" stroke-linejoin="round"/>
    <path d="M6.33667 27.2858H16.321" stroke="#02255B" stroke-width="1.5" stroke-linecap="round" stroke-linejoin="round"/>
</svg>