<svg xmlns="http://www.w3.org/2000/svg" width="48" height="48" viewBox="0 0 48 48" fill="none">
    <path d="M35.0216 20.6306C40.248 20.6306 44.2554 20.6306 45.117 20.6306C46.1758 20.6306 46.6786 21.1307 46.6786 22.1843C46.6786 23.7806 46.6786 25.3769 46.6786 26.9746C46.6786 28.0375 46.1812 28.5389 45.1303 28.5429C44.6475 28.5456 44.0661 28.3922 43.7113 28.6096C43.3753 28.8149 43.4433 29.4551 43.3153 29.8992C42.7778 31.7635 42.0177 33.5279 40.9628 35.1576C40.7947 35.4176 40.7894 35.5657 41.0295 35.7724C41.3615 36.0591 41.6629 36.3805 41.9643 36.7005C42.5044 37.2753 42.5097 38.0248 41.9563 38.5863C40.7427 39.8172 39.5198 41.0388 38.2902 42.2523C37.6874 42.8458 36.9513 42.8365 36.3418 42.2523C36.0138 41.9389 35.691 41.6189 35.3803 41.2881C35.2403 41.1388 35.1376 41.0948 34.9429 41.2215C32.9505 42.5164 30.7834 43.4032 28.4629 43.9073C28.2495 43.954 28.2122 44.0447 28.2175 44.2301C28.2282 44.5661 28.1935 44.9062 28.2255 45.2396C28.3042 46.0571 28.0068 46.6506 27.2533 47H21.2761C20.5213 46.6506 20.2199 46.0558 20.3052 45.2396C20.3293 45.0076 20.2799 44.7662 20.3146 44.5381C20.3839 44.0914 20.2186 43.9247 19.7691 43.8273C17.594 43.3552 15.571 42.4911 13.6972 41.2908C13.4479 41.1308 13.2945 41.0948 13.0811 41.3468C12.7984 41.6816 12.473 41.9803 12.1543 42.283C11.5808 42.8258 10.8313 42.8365 10.2699 42.283C9.02829 41.0588 7.79605 39.8265 6.5718 38.5863C6.01835 38.0248 6.02102 37.274 6.56113 36.7019C6.8932 36.3498 7.2346 36.0071 7.588 35.6777C7.73737 35.5376 7.74136 35.4363 7.63334 35.2709C6.33574 33.2785 5.45291 31.1127 4.94481 28.7936C4.9008 28.5922 4.82345 28.5336 4.62874 28.5389C4.16065 28.5509 3.69121 28.5482 3.22312 28.5416C2.42029 28.5296 1.8575 27.9894 1.85217 27.1973C1.84284 25.4543 1.84284 23.7112 1.85217 21.9682C1.85617 21.1974 2.41629 20.6373 3.18844 20.636C4.15931 20.6333 8.06277 20.632 13.1305 20.632C9.99516 28.0921 15.2896 36.9726 23.3632 37.4834C32.089 38.0355 38.4102 28.6869 35.0202 20.632L35.0216 20.6306Z" stroke="#F6F7F8" stroke-width="1.5" stroke-linecap="round" stroke-linejoin="round"/>
    <path d="M17.1153 20.6306H31.5315C32.321 21.9162 32.7771 23.4299 32.7771 25.0502C32.7771 29.7191 28.9923 33.5039 24.3234 33.5039C19.6545 33.5039 15.8697 29.7191 15.8697 25.0502C15.8697 23.4299 16.3258 21.9175 17.1153 20.6306Z" stroke="#F6F7F8" stroke-width="1.5" stroke-linecap="round" stroke-linejoin="round"/>
    <path d="M1.84551 16.9912H46.6799" stroke="#F6F7F8" stroke-width="1.5" stroke-linecap="round" stroke-linejoin="round"/>
    <path d="M44.1514 12.1702C45.6937 12.1702 46.944 10.9199 46.944 9.37764C46.944 7.83535 45.6937 6.58508 44.1514 6.58508C42.6091 6.58508 41.3589 7.83535 41.3589 9.37764C41.3589 10.9199 42.6091 12.1702 44.1514 12.1702Z" stroke="#F6F7F8" stroke-width="1.5" stroke-linecap="round" stroke-linejoin="round"/>
    <path d="M30.2979 7.37591C31.8402 7.37591 33.0905 6.12563 33.0905 4.58334C33.0905 3.04105 31.8402 1.79077 30.2979 1.79077C28.7557 1.79077 27.5054 3.04105 27.5054 4.58334C27.5054 6.12563 28.7557 7.37591 30.2979 7.37591Z" stroke="#F6F7F8" stroke-width="1.5" stroke-linecap="round" stroke-linejoin="round"/>
    <path d="M10.5473 6.58513C12.0896 6.58513 13.3398 5.33486 13.3398 3.79257C13.3398 2.25028 12.0896 1 10.5473 1C9.00499 1 7.7547 2.25028 7.7547 3.79257C7.7547 5.33486 9.00499 6.58513 10.5473 6.58513Z" stroke="#F6F7F8" stroke-width="1.5" stroke-linecap="round" stroke-linejoin="round"/>
    <path d="M3.84857 13.6225C5.39087 13.6225 6.64115 12.3722 6.64115 10.8299C6.64115 9.28763 5.39087 8.03735 3.84857 8.03735C2.30628 8.03735 1.05602 9.28763 1.05602 10.8299C1.05602 12.3722 2.30628 13.6225 3.84857 13.6225Z" stroke="#F6F7F8" stroke-width="1.5" stroke-linecap="round" stroke-linejoin="round"/>
    <path d="M36.9473 16.3311V9.19763H41.3589" stroke="#F6F7F8" stroke-width="1.5" stroke-linecap="round" stroke-linejoin="round"/>
    <path d="M12.321 16.3312V10.9154H6.64114" stroke="#F6F7F8" stroke-width="1.5" stroke-linecap="round" stroke-linejoin="round"/>
    <path d="M30.2979 16.9912V7.3479" stroke="#F6F7F8" stroke-width="1.5" stroke-linecap="round" stroke-linejoin="round"/>
    <path d="M23.3966 16.9912V3.78052H13.3398" stroke="#F6F7F8" stroke-width="1.5" stroke-linecap="round" stroke-linejoin="round"/>
</svg>