<svg xmlns="http://www.w3.org/2000/svg" width="57" height="48" viewBox="0 0 57 48" fill="none">
    <path d="M13.4499 10.615C13.4499 10.615 21.7804 12.9496 28.1152 5.56604C30.3175 8.1916 35.7635 12.1743 42.8344 10.8899C42.8344 13.0529 43.0482 21.9216 39.3724 29.3067C37.272 33.5265 33.2704 37.2488 28.1618 39.2518C11.6637 34.408 13.4484 10.615 13.4484 10.615H13.4499Z" stroke="#02255B" stroke-width="1.5" stroke-linecap="round" stroke-linejoin="round"/>
    <path d="M8.29042 6.1144C9.70272 6.1144 10.8476 4.9695 10.8476 3.5572C10.8476 2.1449 9.70272 1 8.29042 1C6.87812 1 5.73322 2.1449 5.73322 3.5572C5.73322 4.9695 6.87812 6.1144 8.29042 6.1144Z" stroke="#02255B" stroke-width="1.5" stroke-linecap="round" stroke-linejoin="round"/>
    <path d="M13.3932 16.1439H8.95811C8.67883 16.1439 8.45337 15.9185 8.45337 15.6392V6.27734" stroke="#02255B" stroke-width="1.5" stroke-linecap="round" stroke-linejoin="round"/>
    <path d="M9.08269 46.4126C10.4572 46.0881 11.3085 44.7109 10.9841 43.3363C10.6597 41.9618 9.28239 41.1105 7.90786 41.4349C6.53332 41.7594 5.68206 43.1366 6.00648 44.5111C6.3309 45.8857 7.70815 46.737 9.08269 46.4126Z" stroke="#02255B" stroke-width="1.5" stroke-linecap="round" stroke-linejoin="round"/>
    <path d="M17.7337 31.3125H9.16466C8.88537 31.3125 8.65991 31.538 8.65991 31.8172V41.1791" stroke="#02255B" stroke-width="1.5" stroke-linecap="round" stroke-linejoin="round"/>
    <path d="M4.80003 25.8978C6.10483 25.3574 6.72445 23.8615 6.18398 22.5567C5.64352 21.2519 4.14763 20.6323 2.84284 21.1728C1.53804 21.7132 0.918416 23.2091 1.45888 24.5139C1.99934 25.8187 3.49523 26.4383 4.80003 25.8978Z" stroke="#02255B" stroke-width="1.5" stroke-linecap="round" stroke-linejoin="round"/>
    <path d="M14.7256 23.5348H6.37906" stroke="#02255B" stroke-width="1.5" stroke-linecap="round" stroke-linejoin="round"/>
    <path d="M48.4535 6.1144C49.8658 6.1144 51.0107 4.9695 51.0107 3.5572C51.0107 2.1449 49.8658 1 48.4535 1C47.0412 1 45.8963 2.1449 45.8963 3.5572C45.8963 4.9695 47.0412 6.1144 48.4535 6.1144Z" stroke="#02255B" stroke-width="1.5" stroke-linecap="round" stroke-linejoin="round"/>
    <path d="M43.3508 16.1439H47.7859C48.0652 16.1439 48.2906 15.9185 48.2906 15.6392V6.27734" stroke="#02255B" stroke-width="1.5" stroke-linecap="round" stroke-linejoin="round"/>
    <path d="M50.713 44.4747C51.0374 43.1002 50.1861 41.7229 48.8116 41.3985C47.4371 41.0741 46.0598 41.9254 45.7354 43.2999C45.411 44.6744 46.2623 46.0517 47.6368 46.3761C49.0113 46.7005 50.3886 45.8493 50.713 44.4747Z" stroke="#02255B" stroke-width="1.5" stroke-linecap="round" stroke-linejoin="round"/>
    <path d="M39.0102 31.3125H47.5793C47.8586 31.3125 48.084 31.538 48.084 31.8172V41.1791" stroke="#02255B" stroke-width="1.5" stroke-linecap="round" stroke-linejoin="round"/>
    <path d="M53.5112 26.0489C54.8858 25.7245 55.737 24.3472 55.4126 22.9727C55.0882 21.5981 53.7109 20.7469 52.3364 21.0713C50.9619 21.3957 50.1106 22.773 50.435 24.1475C50.7594 25.522 52.1367 26.3733 53.5112 26.0489Z" stroke="#02255B" stroke-width="1.5" stroke-linecap="round" stroke-linejoin="round"/>
    <path d="M42.0184 23.5348H50.3634" stroke="#02255B" stroke-width="1.5" stroke-linecap="round" stroke-linejoin="round"/>
    <path d="M28.2229 23.8387C29.7709 23.8387 31.0259 22.5838 31.0259 21.0357C31.0259 19.4876 29.7709 18.2327 28.2229 18.2327C26.6748 18.2327 25.4198 19.4876 25.4198 21.0357C25.4198 22.5838 26.6748 23.8387 28.2229 23.8387Z" stroke="#02255B" stroke-width="1.5" stroke-linecap="round" stroke-linejoin="round"/>
    <path d="M28.2229 28.8542V23.8373" stroke="#02255B" stroke-width="1.5" stroke-linecap="round" stroke-linejoin="round"/>
</svg>