<svg xmlns="http://www.w3.org/2000/svg" width="45" height="48" viewBox="0 0 45 48" fill="none">
    <path d="M6.53033 13.5796L1 18.0046V45.2953C1 46.2372 1.76275 47 2.70467 47H41.8201C42.7621 47 43.5248 46.2372 43.5248 45.2953V18.0046L37.8838 13.5796"
          stroke="#F6F7F8" stroke-width="1.5" stroke-linecap="round" stroke-linejoin="round"/>
    <path d="M43.0032 18.2562L23.4467 32.2032C22.7354 32.7104 21.7829 32.7157 21.0663 32.2177L1.34518 18.5092"
          stroke="#F6F7F8" stroke-width="1.5" stroke-linecap="round" stroke-linejoin="round"/>
    <path d="M1.34653 46.3216L20.6737 32.2336" stroke="#F6F7F8" stroke-width="1.5" stroke-linecap="round"
          stroke-linejoin="round"/>
    <path d="M23.8301 32.1454L42.8938 46.6194" stroke="#F6F7F8" stroke-width="1.5" stroke-linecap="round"
          stroke-linejoin="round"/>
    <path d="M7.09946 22.5087V3.21187C7.09946 1.98935 8.09013 1 9.31133 1H34.9118C36.1343 1 37.1236 1.99066 37.1236 3.21187V22.4495"
          stroke="#F6F7F8" stroke-width="1.5" stroke-linecap="round" stroke-linejoin="round"/>
    <path d="M18.0666 8.2694C18.0666 8.2694 18.4776 4.44507 22.1122 4.25537C25.1461 4.25537 26.1578 6.87826 26.1895 8.2694C26.362 9.18103 25.2726 9.9148 22.1122 9.91348C19.4261 9.81863 18.0666 9.68953 18.0666 8.2694Z"
          stroke="#F6F7F8" stroke-width="1.5" stroke-linecap="round" stroke-linejoin="round"/>
    <path d="M26.1894 9.16123C26.6518 9.16123 27.6425 9.71848 27.6425 10.1822V17.3724C27.6425 20.2351 25.3213 22.5563 22.4587 22.5563H21.8579C18.9953 22.5563 16.6741 20.2351 16.6741 17.3724V10.1822C16.6741 9.7198 17.7346 9.06506 18.197 9.06506"
          stroke="#F6F7F8" stroke-width="1.5" stroke-linecap="round" stroke-linejoin="round"/>
    <path d="M22.1122 9.91345V22.555" stroke="#F6F7F8" stroke-width="1.5" stroke-linecap="round"
          stroke-linejoin="round"/>
    <path d="M17.2445 18.6648H27.1696" stroke="#F6F7F8" stroke-width="1.5" stroke-linecap="round"
          stroke-linejoin="round"/>
    <path d="M27.8323 11.2085L30.4986 8.70018C30.8345 8.38533 31.0243 7.94533 31.0243 7.48425V4.35022" stroke="#F6F7F8"
          stroke-width="1.5" stroke-linecap="round" stroke-linejoin="round"/>
    <path d="M16.3724 11.2085L13.7061 8.70018C13.3702 8.38533 13.1804 7.94533 13.1804 7.48425V4.35022" stroke="#F6F7F8"
          stroke-width="1.5" stroke-linecap="round" stroke-linejoin="round"/>
    <path d="M27.8323 18.0983L30.4986 20.6065C30.8345 20.9214 31.0243 21.3614 31.0243 21.8225V24.9565" stroke="#F6F7F8"
          stroke-width="1.5" stroke-linecap="round" stroke-linejoin="round"/>
    <path d="M16.3724 18.0983L13.7061 20.6065C13.3702 20.9214 13.1804 21.3614 13.1804 21.8225V24.9565" stroke="#F6F7F8"
          stroke-width="1.5" stroke-linecap="round" stroke-linejoin="round"/>
    <path d="M16.6754 14.5586H12.5033" stroke="#F6F7F8" stroke-width="1.5" stroke-linecap="round"
          stroke-linejoin="round"/>
    <path d="M27.6425 14.7799H31.7514" stroke="#F6F7F8" stroke-width="1.5" stroke-linecap="round"
          stroke-linejoin="round"/>
</svg>