<svg xmlns="http://www.w3.org/2000/svg" width="41" height="48" viewBox="0 0 41 48" fill="none">
    <path d="M17.5126 18.4293C17.5126 18.4293 17.8627 15.1719 20.9583 15.01C23.5431 15.01 24.4039 17.2448 24.4315 18.4293C24.5789 19.2058 23.6511 19.831 20.9583 19.8296C18.6695 19.7494 17.5126 19.6388 17.5126 18.4293Z"
          stroke="#F6F7F8" stroke-width="1.5" stroke-linecap="round" stroke-linejoin="round"/>
    <path d="M24.4328 19.1888C24.8263 19.1888 25.6712 19.6639 25.6712 20.0574V26.1826C25.6712 28.6214 23.6945 30.5982 21.2557 30.5982H20.7437C18.3049 30.5982 16.3281 28.6214 16.3281 26.1826V20.0574C16.3281 19.6639 17.231 19.1058 17.6258 19.1058"
          stroke="#F6F7F8" stroke-width="1.5" stroke-linecap="round" stroke-linejoin="round"/>
    <path d="M20.9583 19.8284V30.5982" stroke="#F6F7F8" stroke-width="1.5" stroke-linecap="round"
          stroke-linejoin="round"/>
    <path d="M16.8125 27.2842H25.2659" stroke="#F6F7F8" stroke-width="1.5" stroke-linecap="round"
          stroke-linejoin="round"/>
    <path d="M25.8318 20.9326L28.1035 18.7965C28.3891 18.528 28.5509 18.153 28.5509 17.7607V15.0903" stroke="#F6F7F8"
          stroke-width="1.5" stroke-linecap="round" stroke-linejoin="round"/>
    <path d="M16.0688 20.9326L13.7972 18.7965C13.5116 18.528 13.3497 18.153 13.3497 17.7607V15.0903" stroke="#F6F7F8"
          stroke-width="1.5" stroke-linecap="round" stroke-linejoin="round"/>
    <path d="M25.8318 26.8025L28.1035 28.9386C28.3891 29.207 28.5509 29.5821 28.5509 29.9743V32.6447" stroke="#F6F7F8"
          stroke-width="1.5" stroke-linecap="round" stroke-linejoin="round"/>
    <path d="M16.0688 26.8025L13.7972 28.9386C13.5116 29.207 13.3497 29.5821 13.3497 29.9743V32.6447" stroke="#F6F7F8"
          stroke-width="1.5" stroke-linecap="round" stroke-linejoin="round"/>
    <path d="M16.3281 23.786H12.7733" stroke="#F6F7F8" stroke-width="1.5" stroke-linecap="round"
          stroke-linejoin="round"/>
    <path d="M25.67 23.9755H29.1708" stroke="#F6F7F8" stroke-width="1.5" stroke-linecap="round"
          stroke-linejoin="round"/>
    <path d="M21.9111 1.46718C24.596 3.41636 30.0829 6.7014 36.9912 7.0936C38.1521 7.15941 39.1023 8.03857 39.2761 9.18886C39.7762 12.5108 39.763 16.8145 39.6643 19.8468C39.5919 22.0474 39.3418 24.8994 38.8325 26.9276C37.4308 32.5092 33.1798 43.4436 21.0096 46.9247C20.6332 47.0326 20.2331 47.0247 19.8633 46.8997C16.623 45.81 4.91343 41.168 1.60601 24.9639C1.42307 24.0676 1.02296 19.9732 1.00717 18.4491C0.97953 15.5444 1.03745 11.9567 1.08483 9.68109C1.11115 8.43472 2.06269 7.40288 3.3038 7.28048C7.035 6.9146 14.662 5.69456 18.7261 1.7225C19.5921 0.874918 20.932 0.752524 21.9138 1.46455L21.9111 1.46718Z"
          stroke="#F6F7F8" stroke-width="1.5" stroke-miterlimit="10"/>
    <path d="M21.6729 5.29975C23.9459 6.95016 28.5918 9.73112 34.4419 10.0641C35.4251 10.1194 36.2292 10.8643 36.3766 11.8382C36.7465 14.2967 36.7846 17.3896 36.7333 19.8442C36.682 22.2369 36.3977 25.493 35.791 27.6501C34.413 32.5527 30.666 40.9996 20.9096 43.7911C20.5911 43.8819 20.2528 43.8753 19.9383 43.77C17.2797 42.8763 7.88392 39.157 4.75813 26.438C4.48042 25.3074 3.97898 20.7708 3.96977 19.3414C3.95266 16.9474 4.00004 14.0954 4.03821 12.2554C4.06059 11.1999 4.86606 10.326 5.91632 10.2233C9.07501 9.91274 15.5345 8.8809 18.9749 5.51689C19.7093 4.79961 20.8438 4.69565 21.6742 5.29843L21.6729 5.29975Z"
          stroke="#F6F7F8" stroke-width="1.5" stroke-miterlimit="10"/>
</svg>