<svg xmlns="http://www.w3.org/2000/svg" width="48" height="48" viewBox="0 0 48 48" fill="none">
    <path d="M14.8022 13.7438C14.8022 13.7438 15.0836 11.1289 17.5681 10.9999C19.6422 10.9999 20.334 12.7939 20.3559 13.7438C20.474 14.367 19.7286 14.868 17.5681 14.868C15.7315 14.8035 14.8022 14.7156 14.8022 13.7438Z"
          stroke="#F6F7F8" stroke-width="1.5" stroke-linecap="round" stroke-linejoin="round"/>
    <path d="M20.3573 14.3533C20.673 14.3533 21.3511 14.7349 21.3511 15.0506V19.966C21.3511 21.9234 19.7644 23.5101 17.807 23.5101H17.3965C15.4392 23.5101 13.8524 21.9234 13.8524 19.966V15.0506C13.8524 14.7349 14.5771 14.286 14.8942 14.286"
          stroke="#F6F7F8" stroke-width="1.5" stroke-linecap="round" stroke-linejoin="round"/>
    <path d="M17.5681 14.8679V23.5114" stroke="#F6F7F8" stroke-width="1.5" stroke-linecap="round"
          stroke-linejoin="round"/>
    <path d="M14.2408 20.8513H21.0258" stroke="#F6F7F8" stroke-width="1.5" stroke-linecap="round"
          stroke-linejoin="round"/>
    <path d="M21.4802 15.7534L23.3031 14.0389C23.5323 13.8234 23.6626 13.5228 23.6626 13.2071V11.0645" stroke="#F6F7F8"
          stroke-width="1.5" stroke-linecap="round" stroke-linejoin="round"/>
    <path d="M13.6451 15.7534L11.8223 14.0389C11.5931 13.8234 11.4626 13.5228 11.4626 13.2071V11.0645" stroke="#F6F7F8"
          stroke-width="1.5" stroke-linecap="round" stroke-linejoin="round"/>
    <path d="M21.4802 20.4641L23.3031 22.1785C23.5323 22.394 23.6626 22.6946 23.6626 23.0103V25.153" stroke="#F6F7F8"
          stroke-width="1.5" stroke-linecap="round" stroke-linejoin="round"/>
    <path d="M13.6451 20.4642L11.8223 22.1787C11.5931 22.3942 11.4626 22.6948 11.4626 23.0105V25.1532" stroke="#F6F7F8"
          stroke-width="1.5" stroke-linecap="round" stroke-linejoin="round"/>
    <path d="M13.8524 18.0443H11" stroke="#F6F7F8" stroke-width="1.5" stroke-linecap="round" stroke-linejoin="round"/>
    <path d="M21.3498 18.1953H24.1595" stroke="#F6F7F8" stroke-width="1.5" stroke-linecap="round"
          stroke-linejoin="round"/>
    <path d="M43.3431 39.1758L31.5453 26.7342C33.2515 24.1207 34.2535 20.987 34.2535 17.6336C34.2535 13.0284 32.4018 8.88444 29.3847 5.86876C26.3677 2.8668 22.2099 1 17.6198 1C13.0297 1 8.87067 2.8517 5.86871 5.86876C2.86675 8.88582 1 13.0435 1 17.6336C1 22.2237 2.85165 26.376 5.86871 29.3917C8.87753 32.3936 13.0366 34.2604 17.6267 34.2604C21.0309 34.2604 24.2017 33.235 26.8372 31.4781L38.8752 44.212"
          stroke="#F6F7F8" stroke-width="1.5" stroke-linecap="round" stroke-linejoin="round"/>
    <path fill-rule="evenodd" clip-rule="evenodd"
          d="M29.3999 29.3299C26.4061 32.3236 22.2594 34.1835 17.6954 34.1835C13.1314 34.1835 8.98462 32.3236 5.9909 29.3299C2.99717 26.3362 1.13727 22.1894 1.13727 17.6254C1.13727 13.0614 2.99717 8.91463 5.9909 5.92091C8.98462 2.92718 13.1314 1.06726 17.6954 1.06726C22.2594 1.06726 26.4061 2.92718 29.3999 5.92091C32.3936 8.91463 34.2535 13.0614 34.2535 17.6254C34.2535 22.1894 32.3936 26.3362 29.3999 29.3299Z"
          stroke="#F6F7F8" stroke-width="1.5" stroke-linecap="round" stroke-linejoin="round"/>
    <path fill-rule="evenodd" clip-rule="evenodd"
          d="M43.3568 39.1826L46.1982 42.0322C46.6402 42.477 46.6182 43.2017 46.1474 43.6163L42.6431 46.728C42.2217 47.1 41.5861 47.089 41.1771 46.7033L38.3591 43.7069L43.3568 39.1813V39.1826Z"
          stroke="#F6F7F8" stroke-width="1.5" stroke-linecap="round" stroke-linejoin="round"/>
</svg>