<svg width="102" height="82" viewBox="0 0 102 82" fill="none" xmlns="http://www.w3.org/2000/svg">
    <g id="Icon">
        <path id="Vector"
              d="M7.24831 65.3756V6.8341C7.24831 3.61252 9.86079 1 13.0824 1H89.5403C92.7619 1 95.3743 3.61252 95.3743 6.8341V65.3756"
              stroke="#02255B" stroke-width="1.5" stroke-linecap="round" stroke-linejoin="round"/>
        <path id="Vector_2"
              d="M1 66.4172H101V71.6396C101 76.5976 96.9743 80.6205 92.0191 80.6205H9.98354C5.02561 80.6205 1.00261 76.5949 1.00261 71.6396V66.4172H1Z"
              stroke="#02255B" stroke-width="1.5" stroke-linecap="round" stroke-linejoin="round"/>
        <path id="Vector_3" d="M45.3516 73.5204H57.2709" stroke="#02255B" stroke-width="1.5" stroke-linecap="round"
              stroke-linejoin="round"/>
        <g id="Icon Details">
            <path id="Vector_4"
                  d="M43.0568 25.6483C43.0568 25.6483 43.7674 19.0368 50.0503 18.7083C55.2967 18.7083 57.0437 23.2441 57.0998 25.6483C57.399 27.2243 55.5158 28.4932 50.0503 28.4905C45.4049 28.3276 43.0568 28.1032 43.0568 25.6483Z"
                  stroke="#02255B" stroke-width="1.5" stroke-linecap="round" stroke-linejoin="round"/>
            <path id="Vector_5"
                  d="M57.1026 27.1897C57.9013 27.1897 59.6163 28.154 59.6163 28.9527V41.3849C59.6163 46.3348 55.604 50.3471 50.654 50.3471H49.6149C44.665 50.3471 40.6527 46.3348 40.6527 41.3849V28.9527C40.6527 28.154 42.4852 27.0214 43.2866 27.0214"
                  stroke="#02255B" stroke-width="1.5" stroke-linecap="round" stroke-linejoin="round"/>
            <path id="Vector_6" d="M50.0529 28.4905V50.3497" stroke="#02255B" stroke-width="1.5" stroke-linecap="round"
                  stroke-linejoin="round"/>
            <path id="Vector_7" d="M41.6356 43.6234H58.796" stroke="#02255B" stroke-width="1.5" stroke-linecap="round"
                  stroke-linejoin="round"/>
            <g id="Icon Part">
                <path id="Vector_8"
                      d="M59.942 30.7318L64.5527 26.3963C65.1324 25.8513 65.4609 25.09 65.4609 24.294V18.8739"
                      stroke="#02255B" stroke-width="1.5" stroke-linecap="round" stroke-linejoin="round"/>
                <path id="Vector_9"
                      d="M40.129 30.7318L35.5184 26.3963C34.9388 25.8513 34.6101 25.09 34.6101 24.294V18.8739"
                      stroke="#02255B" stroke-width="1.5" stroke-linecap="round" stroke-linejoin="round"/>
            </g>
            <g id="Icon Part_2">
                <path id="Vector_10"
                      d="M59.942 42.6429L64.5527 46.9785C65.1324 47.5234 65.4609 48.2847 65.4609 49.0808V54.5008"
                      stroke="#02255B" stroke-width="1.5" stroke-linecap="round" stroke-linejoin="round"/>
                <path id="Vector_11"
                      d="M40.129 42.6429L35.5184 46.9785C34.9388 47.5234 34.6101 48.2847 34.6101 49.0808V54.5008"
                      stroke="#02255B" stroke-width="1.5" stroke-linecap="round" stroke-linejoin="round"/>
            </g>
            <path id="Vector_12" d="M40.6527 36.5231H33.4402" stroke="#02255B" stroke-width="1.5" stroke-linecap="round"
                  stroke-linejoin="round"/>
            <path id="Vector_13" d="M59.6163 36.905H66.7193" stroke="#02255B" stroke-width="1.5" stroke-linecap="round"
                  stroke-linejoin="round"/>
        </g>
    </g>
</svg>
