<svg width="102" height="102" viewBox="0 0 102 102" fill="none" xmlns="http://www.w3.org/2000/svg">
    <g id="Icon">
        <g id="Icon Details">
            <path id="Vector"
                  d="M1 52.4478C1 52.4478 20.4506 21.5007 51.9871 21.5007C85.8927 23.2776 101 52.3076 101 52.3076C101 52.3076 84.1159 82.5222 50.4936 81.9299C31.1259 81.9385 16.1073 73.9785 1 52.4478Z"
                  stroke="#02255B" stroke-width="1.5" stroke-linecap="round" stroke-linejoin="round"/>
            <path id="Vector_2" d="M1 21.5007V1H20.0014" stroke="#02255B" stroke-width="1.5" stroke-linecap="round"
                  stroke-linejoin="round"/>
            <path id="Vector_3" d="M18.8225 101H1V83.7983" stroke="#02255B" stroke-width="1.5" stroke-linecap="round"
                  stroke-linejoin="round"/>
            <path id="Vector_4" d="M101 83.4034V101H82.3848" stroke="#02255B" stroke-width="1.5" stroke-linecap="round"
                  stroke-linejoin="round"/>
            <path id="Vector_5" d="M82.7797 1H101V21.5007" stroke="#02255B" stroke-width="1.5" stroke-linecap="round"
                  stroke-linejoin="round"/>
            <path id="Vector_6"
                  d="M62.6087 63.6257C68.7766 57.4577 68.7767 47.4575 62.6087 41.2896C56.4408 35.1216 46.4406 35.1217 40.2726 41.2896C34.1047 47.4576 34.1047 57.4577 40.2726 63.6257C46.4406 69.7936 56.4408 69.7936 62.6087 63.6257Z"
                  stroke="#02255B" stroke-width="1.5" stroke-miterlimit="10"/>
        </g>
        <path id="Vector_7"
              d="M51.7982 56.3161C53.8683 56.3161 55.5465 54.638 55.5465 52.5679C55.5465 50.4978 53.8683 48.8197 51.7982 48.8197C49.7281 48.8197 48.05 50.4978 48.05 52.5679C48.05 54.638 49.7281 56.3161 51.7982 56.3161Z"
              fill="#02255B"/>
    </g>
</svg>
