<svg width="12" height="12" viewBox="0 0 12 12" fill="none" xmlns="http://www.w3.org/2000/svg">
<path d="M8.33333 7.33333L11.6667 10.6667L10.6667 11.6667L7.33333 8.33333V7.80667L7.15333 7.62C6.36938 8.29597 5.36847 8.66746 4.33333 8.66667C3.18406 8.66667 2.08186 8.21012 1.2692 7.39746C0.456546 6.58481 0 5.4826 0 4.33333C0 3.18406 0.456546 2.08186 1.2692 1.2692C2.08186 0.456546 3.18406 0 4.33333 0C5.4826 0 6.58481 0.456546 7.39746 1.2692C8.21012 2.08186 8.66667 3.18406 8.66667 4.33333C8.66667 5.40667 8.27333 6.39333 7.62 7.15333L7.80667 7.33333H8.33333ZM4.33333 1L3.96667 1.02C3.80667 1.36667 3.56 1.95333 3.38 2.66667H5.28667C5.10667 1.95333 4.86 1.36667 4.7 1.02C4.58 1 4.46 1 4.33333 1ZM7.22 2.66667C6.82368 1.97295 6.18869 1.44695 5.43333 1.18667C5.59333 1.54 5.8 2.05333 5.95333 2.66667H7.22ZM1.44667 2.66667H2.71333C2.86667 2.05333 3.07333 1.54 3.23333 1.18667C2.47797 1.44695 1.84299 1.97295 1.44667 2.66667ZM1 4.33333C1 4.66667 1.05333 5.02 1.15333 5.33333H2.58L2.5 4.33333L2.58 3.33333H1.15333C1.05333 3.64667 1 4 1 4.33333ZM7.51333 5.33333C7.61333 5.02 7.66667 4.66667 7.66667 4.33333C7.66667 4 7.61333 3.64667 7.51333 3.33333H6.08667C6.19259 3.99579 6.19259 4.67087 6.08667 5.33333H7.51333ZM3.24667 3.33333L3.16667 4.33333L3.24667 5.33333H5.42C5.52593 4.67087 5.52593 3.99579 5.42 3.33333H3.24667ZM4.33333 7.66667C4.45333 7.66667 4.57333 7.66667 4.68667 7.64667C4.85333 7.3 5.10667 6.71333 5.28667 6H3.38C3.56 6.71333 3.81333 7.3 3.98 7.64667L4.33333 7.66667ZM7.22 6H5.95333C5.8 6.61333 5.59333 7.12667 5.43333 7.48C6.18869 7.21972 6.82368 6.69372 7.22 6ZM1.44667 6C1.84299 6.69372 2.47797 7.21972 3.23333 7.48C3.07333 7.12667 2.86667 6.61333 2.71333 6H1.44667Z" fill="#9CA3AF"/>
</svg>
