<svg width="16" height="16" viewBox="0 0 16 16" fill="none" xmlns="http://www.w3.org/2000/svg">
<path d="M4.66667 8.00004H6V9.33337H4.66667V8.00004ZM14 4.00004V13.3334C14 14.0734 13.4067 14.6667 12.6667 14.6667H3.33333C2.97971 14.6667 2.64057 14.5262 2.39052 14.2762C2.14048 14.0261 2 13.687 2 13.3334V4.00004C2 3.26671 2.6 2.66671 3.33333 2.66671H4V1.33337H5.33333V2.66671H10.6667V1.33337H12V2.66671H12.6667C13.0203 2.66671 13.3594 2.80718 13.6095 3.05723C13.8595 3.30728 14 3.64642 14 4.00004ZM3.33333 5.33337H12.6667V4.00004H3.33333V5.33337ZM12.6667 13.3334V6.66671H3.33333V13.3334H12.6667ZM10 9.33337V8.00004H11.3333V9.33337H10ZM7.33333 9.33337V8.00004H8.66667V9.33337H7.33333ZM4.66667 10.6667H6V12H4.66667V10.6667ZM10 12V10.6667H11.3333V12H10ZM7.33333 12V10.6667H8.66667V12H7.33333Z" fill="#9CA3AF"/>
</svg>
