<svg width="74" height="74" viewBox="0 0 74 74" fill="none" xmlns="http://www.w3.org/2000/svg">
<g id="Group">
<g id="Group_2">
<path id="Vector" d="M1.00012 38.0424C1.00012 38.0424 15.0046 15.7605 37.7108 15.7605C62.1229 17.0398 73.0001 37.9414 73.0001 37.9414C73.0001 37.9414 60.8436 59.696 36.6355 59.2695C22.6908 59.2757 11.8774 53.5445 1.00012 38.0424Z" stroke="#F6F7F8" stroke-width="1.5" stroke-linecap="round" stroke-linejoin="round"/>
<path id="Vector_2" d="M1 15.7605V1H14.681" stroke="#F6F7F8" stroke-width="1.5" stroke-linecap="round" stroke-linejoin="round"/>
<path id="Vector_3" d="M13.8324 72.9999H1.00012V60.6146" stroke="#F6F7F8" stroke-width="1.5" stroke-linecap="round" stroke-linejoin="round"/>
<path id="Vector_4" d="M73.0001 60.3302V72.9997H59.5972" stroke="#F6F7F8" stroke-width="1.5" stroke-linecap="round" stroke-linejoin="round"/>
<path id="Vector_5" d="M59.8816 0.999878H73.0003V15.7604" stroke="#F6F7F8" stroke-width="1.5" stroke-linecap="round" stroke-linejoin="round"/>
<path id="Vector_6" d="M45.3585 46.0905C49.7995 41.6496 49.7995 34.4495 45.3586 30.0085C40.9177 25.5676 33.7175 25.5677 29.2766 30.0086C24.8357 34.4495 24.8357 41.6496 29.2766 46.0905C33.7175 50.5315 40.9176 50.5315 45.3585 46.0905Z" stroke="#F6F7F8" stroke-width="1.5" stroke-miterlimit="10"/>
</g>
<path id="Vector_7" d="M37.5751 40.8276C39.0656 40.8276 40.2739 39.6193 40.2739 38.1289C40.2739 36.6384 39.0656 35.4302 37.5751 35.4302C36.0847 35.4302 34.8765 36.6384 34.8765 38.1289C34.8765 39.6193 36.0847 40.8276 37.5751 40.8276Z" fill="#F6F7F8"/>
</g>
</svg>
