<svg width="80" height="79" viewBox="0 0 80 79" fill="none" xmlns="http://www.w3.org/2000/svg">
<g id="Group">
<path id="Vector" d="M62.5622 19.3582H75.3227C77.2775 19.3582 78.864 20.9424 78.864 22.8994V64.8398C78.864 66.7946 77.2798 68.3811 75.3227 68.3811H4.67727C2.72247 68.3811 1.13599 66.7968 1.13599 64.8398V22.8994C1.13599 20.9446 2.72025 19.3582 4.67727 19.3582H17.2225" stroke="#E6EFFC" stroke-width="1.5" stroke-linecap="round" stroke-linejoin="round"/>
<path id="Vector_2" d="M33.2186 69.0602V77.6249" stroke="#E6EFFC" stroke-width="1.5" stroke-linecap="round" stroke-linejoin="round"/>
<path id="Vector_3" d="M46.1537 69.0602V77.6249" stroke="#E6EFFC" stroke-width="1.5" stroke-linecap="round" stroke-linejoin="round"/>
<path id="Vector_4" d="M23.3756 78H55.8704" stroke="#E6EFFC" stroke-width="1.5" stroke-linecap="round" stroke-linejoin="round"/>
<g id="Group_2">
<path id="Vector_5" d="M40.354 1.33701C42.2977 3.56251 48.0955 9.18947 57.4146 9.73752C57.905 9.76636 58.2999 10.1502 58.3332 10.6406C58.6638 15.4732 58.2644 22.4204 58.2644 22.4204C58.2644 22.4204 58.3288 27.4261 56.7023 30.7077C54.7697 34.6062 50.443 42.847 40.5027 46.2595C40.1654 46.3749 39.7993 46.3882 39.4554 46.2928C34.6316 44.9682 25.9227 38.7998 22.9805 30.9762C22.3459 29.5916 20.9059 24.9809 21.3097 22.0409C21.4007 19.101 21.4562 12.977 21.4762 10.6095C21.4806 10.0903 21.8888 9.66429 22.4081 9.6421C25.0107 9.53338 32.6125 8.57041 38.8829 1.33035C39.2712 0.884365 39.9657 0.893247 40.354 1.33701Z" stroke="#E6EFFC" stroke-width="1.5" stroke-linecap="round" stroke-linejoin="round"/>
<path id="Vector_6" d="M30.1624 24.5038L36.7434 30.8786L49.839 18.3333" stroke="#E6EFFC" stroke-width="1.5" stroke-linecap="round" stroke-linejoin="round"/>
</g>
</g>
</svg>
