<svg width="60" height="60" viewBox="0 0 60 60" fill="none" xmlns="http://www.w3.org/2000/svg">
<path d="M21.0264 21.2458C21.0264 21.2458 21.295 18.6224 23.6669 18.4929C25.6469 18.4929 26.3074 20.2928 26.3283 21.2458C26.441 21.871 25.7295 22.3736 23.6669 22.3736C21.9135 22.3089 21.0264 22.2208 21.0264 21.2458Z" stroke="#F6F7F8" stroke-width="1.75493" stroke-linecap="round" stroke-linejoin="round"/>
<path d="M26.3296 21.8571C26.631 21.8571 27.2783 22.24 27.2783 22.5567V27.4882C27.2783 29.4519 25.7635 31.0438 23.8948 31.0438H23.503C21.6343 31.0438 20.1195 29.4519 20.1195 27.4882V22.5567C20.1195 22.24 20.8114 21.7897 21.1141 21.7897" stroke="#F6F7F8" stroke-width="1.75493" stroke-linecap="round" stroke-linejoin="round"/>
<path d="M23.6671 22.3737V31.0453" stroke="#F6F7F8" stroke-width="1.75493" stroke-linecap="round" stroke-linejoin="round"/>
<path d="M20.4905 28.3766H26.9679" stroke="#F6F7F8" stroke-width="1.75493" stroke-linecap="round" stroke-linejoin="round"/>
<path d="M27.4016 23.2621L29.1419 21.542C29.3607 21.3258 29.4852 21.0243 29.4852 20.7075V18.5579" stroke="#F6F7F8" stroke-width="1.75493" stroke-linecap="round" stroke-linejoin="round"/>
<path d="M19.9215 23.2619L18.1813 21.5419C17.9625 21.3257 17.838 21.0241 17.838 20.7074V18.5577" stroke="#F6F7F8" stroke-width="1.75493" stroke-linecap="round" stroke-linejoin="round"/>
<path d="M27.4016 27.9878L29.1419 29.7078C29.3607 29.924 29.4852 30.2256 29.4852 30.5423V32.692" stroke="#F6F7F8" stroke-width="1.75493" stroke-linecap="round" stroke-linejoin="round"/>
<path d="M19.9215 27.9878L18.1813 29.7078C17.9625 29.924 17.838 30.2256 17.838 30.5423V32.692" stroke="#F6F7F8" stroke-width="1.75493" stroke-linecap="round" stroke-linejoin="round"/>
<path d="M20.1197 25.5602H17.3966" stroke="#F6F7F8" stroke-width="1.75493" stroke-linecap="round" stroke-linejoin="round"/>
<path d="M27.2774 25.7115H29.9598" stroke="#F6F7F8" stroke-width="1.75493" stroke-linecap="round" stroke-linejoin="round"/>
<path d="M48.6976 45.2252L37.4345 32.7431C39.0633 30.1211 40.0199 26.9771 40.0199 23.6129C40.0199 18.9927 38.2521 14.8352 35.3718 11.8097C32.4915 8.79793 28.5222 6.92505 24.1402 6.92505C19.7581 6.92505 15.7876 8.78278 12.9217 11.8097C10.0558 14.8366 8.27362 19.0078 8.27362 23.6129C8.27362 28.2179 10.0413 32.3837 12.9217 35.4092C15.7941 38.4209 19.7647 40.2938 24.1468 40.2938C27.3966 40.2938 30.4237 39.2651 32.9397 37.5024L44.4321 50.2778" stroke="#F6F7F8" stroke-width="1.75493" stroke-linecap="round" stroke-linejoin="round"/>
<path fill-rule="evenodd" clip-rule="evenodd" d="M35.386 35.3474C32.5279 38.3508 28.5691 40.2168 24.212 40.2168C19.8548 40.2168 15.896 38.3508 13.038 35.3474C10.18 32.3439 8.40436 28.1836 8.40436 23.6047C8.40436 19.0259 10.18 14.8656 13.038 11.8621C15.896 8.85866 19.8548 6.99268 24.212 6.99268C28.5691 6.99268 32.5279 8.85866 35.386 11.8621C38.244 14.8656 40.0196 19.0259 40.0196 23.6047C40.0196 28.1836 38.244 32.3439 35.386 35.3474Z" stroke="#F6F7F8" stroke-width="1.75493" stroke-linecap="round" stroke-linejoin="round"/>
<path fill-rule="evenodd" clip-rule="evenodd" d="M48.7108 45.2322L51.4234 48.0911C51.8453 48.5373 51.8244 49.2644 51.3749 49.6803L48.0294 52.8022C47.6271 53.1754 47.0204 53.1644 46.6298 52.7774L43.9396 49.7712L48.7108 45.2308V45.2322Z" stroke="#F6F7F8" stroke-width="1.75493" stroke-linecap="round" stroke-linejoin="round"/>
<path d="M24.1518 11.1915C30.6423 11.1915 35.9036 16.7206 35.9036 23.5414" stroke="#F6F7F8" stroke-width="1.75493" stroke-linecap="round" stroke-linejoin="round"/>
</svg>
