<svg width="60" height="62" viewBox="0 0 60 62" fill="none" xmlns="http://www.w3.org/2000/svg">
<path d="M26.4106 21.1389H33.5894C34.7942 21.1389 35.7703 20.1615 35.773 18.9567V14.1198C35.7703 13.2114 35.2044 12.4006 34.3542 12.0838V10.1804C34.2622 4.70325 25.7391 4.70054 25.6484 10.1804V12.0838C24.7969 12.4006 24.2324 13.2128 24.2297 14.1198V18.9567C24.2297 20.1615 25.2071 21.1375 26.4119 21.1389H26.4106ZM27.813 10.1791C27.813 9.10964 28.6808 8.24325 29.7502 8.2419C30.8576 8.02395 31.9311 8.74413 32.149 9.85013C32.1707 9.95843 32.1829 10.0681 32.1869 10.1791V11.9376H27.813V10.1791ZM26.4106 14.1035C26.4106 14.1035 26.726 14.1022 26.73 14.1035H33.2699C33.2699 14.1035 33.63 14.086 33.6056 14.1184L33.588 18.9716L26.393 18.9553L26.4092 14.1022L26.4106 14.1035Z" fill="#F6F7F8"/>
<path d="M17.8902 14.7778C18.6266 21.5749 23.4486 27.5746 30.0318 28.6427C35.0122 27.6775 39.1356 24.1984 40.9253 19.4509C42.6188 16.7001 42.2641 8.14315 42.3142 5.80526C42.1599 3.14518 40.1225 2.90287 37.6046 2.3343C31.2299 0.791048 29.4917 0.406589 28.85 0.845197L20.1347 2.86496C17.3379 3.56619 17.7007 6.09902 17.7007 8.40171C17.633 10.5284 17.6966 12.6578 17.8902 14.7778ZM19.8667 8.42744C19.8775 7.49878 19.8883 6.60802 19.8734 5.80526C19.9046 5.38696 20.2159 5.04311 20.6302 4.97272L29.7408 2.86225C31.2217 2.89474 37.6127 4.63429 39.4294 4.98219C39.8274 5.06342 40.1212 5.4005 40.1496 5.80526C40.1496 7.81284 40.1171 13.2914 39.9695 14.53C39.5282 20.0979 35.7121 24.8225 30.3608 26.4266C29.6379 26.4821 28.915 26.3088 28.295 25.9312C24.9553 24.5856 22.3318 21.9038 21.0593 18.5357C19.7394 15.7105 19.8328 11.6669 19.8667 8.42879V8.42744Z" fill="#F6F7F8"/>
<path d="M25.5956 46.2886C25.6173 48.7212 27.6073 50.676 30.0399 50.6543C32.4428 50.6327 34.3841 48.6914 34.4057 46.2886C34.3841 43.8559 32.3941 41.9011 29.9614 41.9228C27.5585 41.9444 25.6173 43.8857 25.5956 46.2886ZM32.2397 46.2886C32.2221 47.5245 31.2041 48.5127 29.9682 48.4951C28.7566 48.4775 27.7792 47.5002 27.7616 46.2886C27.7792 45.0526 28.7972 44.0644 30.0332 44.082C31.2448 44.0996 32.2221 45.077 32.2397 46.2886Z" fill="#F6F7F8"/>
<path d="M32.0055 51.1863H27.9958C24.8375 51.189 22.2776 53.7489 22.2736 56.9071V60.2414C22.2736 60.8397 22.7582 61.3244 23.3565 61.3244H36.6448C37.2431 61.3244 37.7277 60.8397 37.7277 60.2427V56.9071C37.7237 53.7489 35.1638 51.1903 32.0055 51.1863ZM35.5618 59.1584H24.4395V56.9071C24.4422 54.9442 26.0329 53.355 27.9958 53.3522H32.0055C33.9684 53.3536 35.5591 54.9442 35.5618 56.9071V59.1584Z" fill="#F6F7F8"/>
<path d="M17.1321 46.2886C17.1104 43.8559 15.1205 41.9011 12.6878 41.9228C10.2863 41.9444 8.34368 43.8857 8.32202 46.2886C8.34368 48.7212 10.3337 50.676 12.7663 50.6543C15.1678 50.6327 17.1104 48.6914 17.1321 46.2886ZM14.9661 46.2886C14.9485 47.5245 13.9305 48.5127 12.6946 48.4938C11.4843 48.4762 10.5069 47.4988 10.4893 46.2872C10.5069 45.0513 11.5249 44.063 12.7609 44.082C13.9711 44.0996 14.9485 45.077 14.9661 46.2886Z" fill="#F6F7F8"/>
<path d="M14.732 51.1863H10.7209C7.56261 51.189 5.00406 53.7476 5 56.9058V60.24C5 60.8384 5.48464 61.323 6.08298 61.323H19.3712C19.9695 61.323 20.4542 60.8384 20.4542 60.24V56.9045C20.4501 53.7462 17.8902 51.1877 14.732 51.1836V51.1863ZM18.2882 59.1584H7.16597V56.9072C7.16867 54.9443 8.75931 53.355 10.7209 53.3523H14.732C16.6949 53.3536 18.2855 54.9443 18.2882 56.9072V59.1584Z" fill="#F6F7F8"/>
<path d="M42.8692 46.2886C42.8909 48.7212 44.8809 50.676 47.3135 50.6543C49.715 50.6327 51.6576 48.6914 51.6793 46.2886C51.6576 43.8559 49.6677 41.9011 47.235 41.9228C44.8335 41.9444 42.8909 43.8857 42.8692 46.2886ZM49.5133 46.2886C49.4957 47.5245 48.4791 48.5127 47.2418 48.4951C46.0302 48.4775 45.0528 47.5002 45.0352 46.2886C45.0528 45.0526 46.0694 44.0644 47.3068 44.082C48.5183 44.0996 49.4957 45.077 49.5133 46.2886Z" fill="#F6F7F8"/>
<path d="M49.2792 51.1863H45.2681C42.1098 51.189 39.5499 53.7489 39.5458 56.9071V60.2414C39.5458 60.8397 40.0305 61.3244 40.6275 61.3244H53.917C54.5154 61.3244 55 60.8397 55 60.2427V56.9071C54.996 53.7489 52.436 51.1903 49.2778 51.1863H49.2792ZM52.8354 59.1584H41.7132V56.9071C41.7159 54.9442 43.3065 53.355 45.2694 53.3522H49.2805C51.2434 53.3536 52.834 54.9442 52.8368 56.9071V59.1584H52.8354Z" fill="#F6F7F8"/>
<path d="M13.8101 38.717V36.9883C13.8101 36.6322 14.0984 36.3439 14.4544 36.3439H28.9177V38.7156C28.9299 39.314 29.424 39.7891 30.0223 39.7769C30.6044 39.7661 31.0728 39.2964 31.0837 38.7156V36.3439H45.5469C45.9029 36.3439 46.1913 36.6322 46.1913 36.9883V38.717C46.2008 39.3153 46.6935 39.7918 47.2905 39.7837C47.8753 39.7742 48.3478 39.3031 48.3573 38.717V36.9883C48.3559 35.4369 47.0983 34.1806 45.5469 34.1779H31.0837V31.8062C31.0715 31.2078 30.5774 30.7327 29.979 30.7449C29.3969 30.7557 28.9285 31.2254 28.9177 31.8062V34.1779H14.4544C12.9031 34.1793 11.6455 35.4369 11.6441 36.9883V38.717C11.6549 39.3153 12.149 39.7905 12.7474 39.7796C13.3295 39.7688 13.7992 39.2991 13.8101 38.717Z" fill="#F6F7F8"/>
</svg>
