<svg width="92" height="72" viewBox="0 0 92 72" fill="none" xmlns="http://www.w3.org/2000/svg">
<g id="Group">
<g id="Group_2">
<path id="Vector" d="M82.5968 50.249V67.288C82.5968 69.3919 80.8907 71.0955 78.7892 71.0955H5.31011C3.20618 71.0955 1.50256 69.3895 1.50256 67.288V16.3591C1.50256 14.2552 3.20862 12.5515 5.31011 12.5515H45.8999" stroke="#E6EFFC" stroke-width="1.5" stroke-linecap="round" stroke-linejoin="round"/>
<path id="Vector_2" d="M1.50012 23.2909H46.7249" stroke="#E6EFFC" stroke-width="1.5" stroke-linecap="round" stroke-linejoin="round"/>
<path id="Vector_3" d="M71.4546 0.904297L53.3101 8.14602V29.5271C53.3101 29.5271 55.1846 38.8117 61.9137 43.0708C68.6429 47.33 71.4546 48.9482 71.4546 48.9482C75.3232 46.6417 79.4481 44.5426 83.1532 41.9871C85.3255 40.4885 87.0828 38.4066 88.2885 36.0659C89.5113 33.6959 90.163 31.0696 90.3656 28.419C90.1093 18.0262 90.3656 8.65615 90.3656 8.65615L71.4546 0.904297Z" stroke="#E6EFFC" stroke-width="1.5" stroke-linecap="round" stroke-linejoin="round"/>
<path id="Vector_4" d="M63.7882 23.2909L69.4971 28.419L80.1437 17.8578" stroke="#E6EFFC" stroke-width="1.5" stroke-linecap="round" stroke-linejoin="round"/>
<path id="Vector_5" d="M12.8009 59.6875H51.7969" stroke="#E6EFFC" stroke-width="1.5" stroke-linecap="round" stroke-linejoin="round"/>
<path id="Vector_6" d="M12.8009 52.5557H30.6965" stroke="#E6EFFC" stroke-width="1.5" stroke-linecap="round" stroke-linejoin="round"/>
</g>
</g>
</svg>
