<svg xmlns="http://www.w3.org/2000/svg" width="80" height="82" viewBox="0 0 80 82" fill="none">
    <path fill-rule="evenodd" clip-rule="evenodd"
          d="M14.3111 1C18.1643 1 21.2877 4.1212 21.2877 7.97164C21.2877 11.8221 18.1643 14.9433 14.3111 14.9433C10.4579 14.9433 7.33447 11.8221 7.33447 7.97164V7.96491C7.33447 4.11895 10.4556 1 14.3043 1H14.3111Z"
          stroke="#02255B" stroke-width="1.5" stroke-linecap="round" stroke-linejoin="round"/>
    <path d="M30.3121 2.81976H78.0775" stroke="#02255B" stroke-width="1.5" stroke-linecap="round"
          stroke-linejoin="round"/>
    <path d="M1 29.3465L7.5792 29.1244" stroke="#02255B" stroke-width="1.5" stroke-linecap="round"
          stroke-linejoin="round"/>
    <path d="M51.2174 12.1766H70.0366" stroke="#02255B" stroke-width="1.5" stroke-linecap="round"
          stroke-linejoin="round"/>
    <path d="M36.4535 81C37.3674 81 37.8951 80.4458 37.8502 79.5281C37.8345 79.2139 37.8053 78.902 37.7626 78.5901C37.3607 75.6462 35.0164 73.0546 32.1086 72.4128C30.3055 72.0134 28.4642 72.0695 26.6499 72.2939C23.0774 72.7359 20.2885 75.9312 20.2301 79.5168C20.2144 80.4997 20.7106 81 21.7054 81H36.4535Z"
          stroke="#02255B" stroke-width="1.5" stroke-linecap="round" stroke-linejoin="round"/>
    <path d="M24.0025 65.8854C23.9958 63.121 26.2659 60.8637 29.0548 60.8569C31.7897 60.8502 34.0644 63.1143 34.0779 65.8562C34.0936 68.6341 31.8324 70.9206 29.066 70.9251C26.2592 70.9296 24.007 68.688 24.0002 65.8832L24.0025 65.8854Z"
          stroke="#02255B" stroke-width="1.5" stroke-miterlimit="10"/>
    <path d="M56.9523 81C57.8662 81 58.3939 80.4458 58.349 79.5281C58.3332 79.2139 58.3018 78.902 58.2614 78.5901C57.8594 75.6462 55.513 73.0546 52.6073 72.4128C50.8042 72.0134 48.963 72.0695 47.1486 72.2939C43.5761 72.7359 40.7873 75.9312 40.7289 79.5168C40.7132 80.4997 41.2094 81 42.2041 81H56.9523Z"
          stroke="#02255B" stroke-width="1.5" stroke-linecap="round" stroke-linejoin="round"/>
    <path d="M44.5013 65.8854C44.4945 63.121 46.7647 60.8637 49.5535 60.8569C52.2885 60.8502 54.5632 63.1143 54.5766 65.8562C54.5923 68.6341 52.3312 70.9206 49.5648 70.9251C46.7579 70.9296 44.5058 68.688 44.499 65.8832L44.5013 65.8854Z"
          stroke="#02255B" stroke-width="1.5" stroke-miterlimit="10"/>
    <path d="M77.4511 80.9978C78.365 80.9978 78.8926 80.4435 78.8477 79.5258C78.832 79.2117 78.8006 78.8998 78.7602 78.5879C78.3582 75.6439 76.0117 73.0523 73.1061 72.4106C71.303 72.0112 69.4617 72.0672 67.6474 72.2916C64.0749 72.7337 61.286 75.9289 61.2277 79.5146C61.2119 80.4974 61.7082 80.9978 62.7029 80.9978H77.4511Z"
          stroke="#02255B" stroke-width="1.5" stroke-linecap="round" stroke-linejoin="round"/>
    <path d="M65.0001 65.8832C64.9933 63.1188 67.2635 60.8615 70.0523 60.8548C72.7873 60.848 75.0619 63.1121 75.0754 65.854C75.0911 68.6319 72.83 70.9184 70.0636 70.9229C67.2567 70.9274 65.0045 68.6858 64.9978 65.881L65.0001 65.8832Z"
          stroke="#02255B" stroke-width="1.5" stroke-miterlimit="10"/>
    <path d="M7.50741 26.0122L7.55681 28.0833L7.83299 40.2046L7.64663 63.0043C7.69603 67.5728 13.3725 67.5459 14.0641 63.7785M14.0641 63.7785L14.3066 43.4985M14.0641 63.7785C14.6682 67.4876 20.6186 67.1734 21.0205 63.6842C21.0273 63.6034 20.915 40.0744 20.915 40.0744L21.1283 27.8567V27.7602L24.8715 31.9203C25.3655 32.6091 27.1843 33.3317 30.054 31.6017L39.7095 26.4543C41.1937 25.559 41.4699 24.1453 41.0927 22.9471C40.5448 21.2126 39.101 20.8918 37.6706 21.3944L29.5735 25.8305C28.8729 26.2142 27.9949 26.0167 27.5256 25.3705L23.028 19.1662C22.5654 18.5335 21.8918 18.0869 21.1283 17.9097C19.8462 17.4362 18.4877 17.2006 17.1224 17.2186C15.0925 17.2186 12.9773 17.0121 10.9048 17.1625C6.4543 17.4946 3.44536 16.4422 1.50529 20.9838C0.562196 23.8088 1.2291 41.8157 1.2291 41.8157C1.51203 42.9039 2.47308 43.4514 4.06062 43.4716C5.89291 43.4963 7.77685 42.8231 7.824 41.4746"
          stroke="#02255B" stroke-width="1.5" stroke-linecap="round" stroke-linejoin="round"/>
    <path d="M31.0712 38.6518H77.4556" stroke="#02255B" stroke-width="1.5" stroke-linecap="round"
          stroke-linejoin="round"/>
    <path d="M33.146 2.8826V20.3712" stroke="#02255B" stroke-width="1.5" stroke-linecap="round"
          stroke-linejoin="round"/>
    <path d="M33.3525 29.6899V38.6698" stroke="#02255B" stroke-width="1.5" stroke-linecap="round"
          stroke-linejoin="round"/>
    <path d="M74.4152 2.81976V38.6698" stroke="#02255B" stroke-width="1.5" stroke-linecap="round"
          stroke-linejoin="round"/>
    <path d="M8.27747 39.2711H20.2278" stroke="#02255B" stroke-width="1.5" stroke-linecap="round"
          stroke-linejoin="round"/>
    <path d="M25.9874 23.25L24.3146 31.3009" stroke="#02255B" stroke-width="1.5" stroke-linecap="round"
          stroke-linejoin="round"/>
    <path d="M45.9092 21.1588H70.0366" stroke="#02255B" stroke-width="1.5" stroke-linecap="round"
          stroke-linejoin="round"/>
    <path d="M44.9706 30.1409H70.0366" stroke="#02255B" stroke-width="1.5" stroke-linecap="round"
          stroke-linejoin="round"/>
    <path d="M42.4264 14.9433L39.9945 21.4662" stroke="#02255B" stroke-width="1.5" stroke-linecap="round"
          stroke-linejoin="round"/>
</svg>