<svg xmlns="http://www.w3.org/2000/svg" width="72" height="82" viewBox="0 0 72 82" fill="none">
    <path d="M36.4356 49.6862C47.2064 49.6862 55.9379 40.9609 55.9379 30.1978C55.9379 19.4347 47.2064 10.7095 36.4356 10.7095C25.6648 10.7095 16.9333 19.4347 16.9333 30.1978C16.9333 40.9609 25.6648 49.6862 36.4356 49.6862Z"
          stroke="#02255B" stroke-width="1.5" stroke-linecap="round" stroke-linejoin="round"/>
    <path d="M14.7827 48.564L1.15335 70.69C0.704156 71.5078 1.29569 72.5077 2.22744 72.5077H9.61696C10.0439 72.5077 10.4397 72.73 10.6621 73.0922L15.1563 80.4142C15.6522 81.223 16.8375 81.1875 17.2844 80.3497L31.2185 57.0948"
          stroke="#02255B" stroke-width="1.5" stroke-linecap="round" stroke-linejoin="round"/>
    <path d="M41.1833 58.4704L53.5296 79.8031C53.9543 80.5275 54.9995 80.5342 55.4354 79.8164L60.0007 72.2744C60.2009 71.9433 60.5611 71.7389 60.9503 71.7389H69.6696C70.5146 71.7389 71.0505 70.8323 70.6392 70.0923L58.7443 48.5618"
          stroke="#02255B" stroke-width="1.5" stroke-linecap="round" stroke-linejoin="round"/>
    <path d="M10.671 44.6396C11.7984 41.7997 12.5145 36.9154 6.90396 32.8533C5.9344 32.1511 5.84102 30.7356 6.69271 29.8956C9.51688 27.1046 12.281 24.2846 9.98165 17.8448C9.5747 16.7071 10.2685 15.4693 11.456 15.2516C15.0162 14.6027 19.2636 13.0316 20.2954 6.4429C20.4866 5.22516 21.7253 4.46963 22.8861 4.88296C26.7354 6.25625 30.7181 7.25399 34.9744 1.7497C35.7482 0.74973 37.2559 0.754177 38.0476 1.73859C40.7895 5.15405 43.8471 7.58731 49.7712 5.13627C50.8697 4.68295 52.1172 5.30961 52.4086 6.46068C53.5382 10.9028 54.5789 14.2205 61.2324 15.4271C62.4043 15.6382 63.107 16.8426 62.7312 17.9715C61.5637 21.4936 60.672 26.2201 66.0357 29.7223C67.0586 30.3911 67.2076 31.8311 66.3582 32.7111C62.5422 36.6576 60.8166 39.622 62.9558 44.3463C63.4428 45.4218 62.8869 46.6796 61.7594 47.0284C57.9613 48.2062 53.5204 49.6506 52.9289 55.9526C52.8133 57.1882 51.5813 58.0015 50.3961 57.6304C46.758 56.4926 42.3506 55.266 38.1165 60.4503C37.3649 61.3703 35.9684 61.4058 35.1656 60.5303C32.6839 57.8215 30.6536 54.8149 23.2507 57.7081C22.1633 58.1326 20.9469 57.5281 20.6423 56.4015C19.4971 52.1839 18.1028 48.364 12.1431 47.2884C10.9178 47.0662 10.2062 45.7907 10.6643 44.633L10.671 44.6396Z"
          stroke="#02255B" stroke-width="1.5" stroke-linecap="round" stroke-linejoin="round"/>
    <path d="M26.3196 27.3312H34.105L36.5111 20.1003L38.9172 27.3312H46.7025L40.4093 31.8022L42.8154 39.0331L36.5088 34.5622L30.2023 39.0331L32.6084 31.8022L26.3152 27.3312H26.3196Z"
          stroke="#02255B" stroke-width="1.5" stroke-linecap="round" stroke-linejoin="round"/>
</svg>