<svg xmlns="http://www.w3.org/2000/svg" width="97" height="81" viewBox="0 0 97 81" fill="none">
    <path d="M54.1578 15.2987C56.9762 12.4823 56.9763 7.91599 54.1578 5.09957C51.3394 2.28314 46.7698 2.28316 43.9514 5.09958C41.1329 7.916 41.1329 12.4823 43.9514 15.2987C46.7698 18.1151 51.3394 18.1151 54.1578 15.2987Z"
          stroke="#02255B" stroke-width="1.5" stroke-linecap="round" stroke-linejoin="round"/>
    <path d="M56.8514 33.6802C57.0167 36.5557 56.8411 77.3724 56.8411 77.3724C56.8411 77.3724 56.1643 79.9949 53.1189 80C51.6388 79.9174 49.6163 79.2618 49.2056 77.1246C49.2882 74.9073 49.2056 49.2836 49.2056 49.2836"
          stroke="#02255B" stroke-width="1.5" stroke-linecap="round" stroke-linejoin="round"/>
    <path d="M41.2756 49.9727C41.2756 49.9727 40.5652 52.3191 37.2537 52.1745C36.4323 52.1745 34.4847 51.8364 34.322 50.1948C34.1593 48.5531 34.3272 31.3313 34.3272 31.3313C34.3272 31.3313 33.9397 21.6388 44.9435 20.8825H53.1654C53.1654 20.8825 63.4873 19.53 63.8541 31.2667C63.8541 34.9191 63.8231 50.3625 63.8231 50.3625C63.8231 50.3625 63.3013 52.0842 60.881 52.2907C59.233 52.4456 57.3215 51.3279 56.9676 50.1302"
          stroke="#02255B" stroke-width="1.5" stroke-linecap="round" stroke-linejoin="round"/>
    <path d="M49.2416 77.1658C49.2416 77.1658 48.6397 80.0516 44.667 79.9922C42.7116 79.9612 41.4459 79.3598 41.3994 76.4663V33.8428"
          stroke="#02255B" stroke-width="1.5" stroke-linecap="round" stroke-linejoin="round"/>
    <path d="M16.8063 13.3533C19.9576 13.3533 22.5123 10.8004 22.5123 7.65134C22.5123 4.50228 19.9576 1.94949 16.8063 1.94949C13.655 1.94949 11.1003 4.50228 11.1003 7.65134C11.1003 10.8004 13.655 13.3533 16.8063 13.3533Z"
          stroke="#02255B" stroke-width="1.5" stroke-linecap="round" stroke-linejoin="round"/>
    <path d="M28.9802 19.881L20.8643 11.5798" stroke="#02255B" stroke-width="1.5" stroke-linecap="round"
          stroke-linejoin="round"/>
    <path d="M16.4733 76.6729C19.6246 76.6729 22.1793 74.12 22.1793 70.971C22.1793 67.8219 19.6246 65.269 16.4733 65.269C13.322 65.269 10.7673 67.8219 10.7673 70.971C10.7673 74.12 13.322 76.6729 16.4733 76.6729Z"
          stroke="#02255B" stroke-width="1.5" stroke-linecap="round" stroke-linejoin="round"/>
    <path d="M28.6472 58.7438L20.5312 67.0423" stroke="#02255B" stroke-width="1.5" stroke-linecap="round"
          stroke-linejoin="round"/>
    <path d="M8.64851 44.7428C11.6761 43.869 13.4215 40.708 12.5471 37.6826C11.6727 34.6572 8.50948 32.913 5.48191 33.7868C2.45434 34.6607 0.708859 37.8216 1.58329 40.847C2.45773 43.8724 5.62094 45.6166 8.64851 44.7428Z"
          stroke="#02255B" stroke-width="1.5" stroke-linecap="round" stroke-linejoin="round"/>
    <path d="M24.3334 39.1756L12.72 39.1265" stroke="#02255B" stroke-width="1.5" stroke-linecap="round"
          stroke-linejoin="round"/>
    <path d="M80.7936 13.3532C83.9449 13.3532 86.4996 10.8004 86.4996 7.65131C86.4996 4.50225 83.9449 1.94946 80.7936 1.94946C77.6423 1.94946 75.0876 4.50225 75.0876 7.65131C75.0876 10.8004 77.6423 13.3532 80.7936 13.3532Z"
          stroke="#02255B" stroke-width="1.5" stroke-linecap="round" stroke-linejoin="round"/>
    <path d="M68.6199 19.881L76.7358 11.5798" stroke="#02255B" stroke-width="1.5" stroke-linecap="round"
          stroke-linejoin="round"/>
    <path d="M81.1271 76.6729C84.2784 76.6729 86.8331 74.12 86.8331 70.971C86.8331 67.8219 84.2784 65.269 81.1271 65.269C77.9758 65.269 75.4211 67.8219 75.4211 70.971C75.4211 74.12 77.9758 76.6729 81.1271 76.6729Z"
          stroke="#02255B" stroke-width="1.5" stroke-linecap="round" stroke-linejoin="round"/>
    <path d="M68.9531 58.7438L77.0691 67.0423" stroke="#02255B" stroke-width="1.5" stroke-linecap="round"
          stroke-linejoin="round"/>
    <path d="M91.1659 44.6561C94.1283 43.5822 95.6586 40.3118 94.5839 37.3515C93.5092 34.3912 90.2364 32.8621 87.274 33.936C84.3116 35.01 82.7814 38.2803 83.8561 41.2406C84.9308 44.2009 88.2035 45.7301 91.1659 44.6561Z"
          stroke="#02255B" stroke-width="1.5" stroke-linecap="round" stroke-linejoin="round"/>
    <path d="M71.9985 39.1757L83.612 39.1267" stroke="#02255B" stroke-width="1.5" stroke-linecap="round"
          stroke-linejoin="round"/>
    <path d="M41.8386 44.9601H56.9237" stroke="#02255B" stroke-width="1.5" stroke-linecap="round"
          stroke-linejoin="round"/>
</svg>