<svg xmlns="http://www.w3.org/2000/svg" width="82" height="82" viewBox="0 0 82 82" fill="none">
    <path d="M9.85153 55.275C8.17703 54.9842 5.87794 54.5994 4.20568 54.2997C2.57819 54.029 2.40134 52.1655 2.4976 51.6018C2.72146 50.2976 2.94533 48.9934 3.16919 47.6892C3.40872 47.2776 3.76243 47.1993 4.2124 47.2776C10.1582 48.3044 16.1063 49.3222 22.0543 50.3401C22.5177 50.4184 22.7707 50.6623 22.7953 51.0537C22.7998 51.1365 22.7886 51.2215 22.7752 51.3043C22.5894 52.3982 22.4036 53.4899 22.2133 54.5815C21.9939 55.8298 21.4477 57.2593 19.565 56.9304C17.9196 56.6553 15.5354 56.2392 13.8923 55.9618" stroke="#02255B" stroke-width="1.5" stroke-linecap="round" stroke-linejoin="round"/>
    <path d="M9.04126 47.9867C9.23154 47.423 9.44645 46.5931 9.65689 46.036C9.87627 45.4589 10.512 45.0786 11.1187 45.1681C11.9649 45.2911 12.8067 45.4522 13.6506 45.5976C13.6506 45.5976 13.6506 45.5953 13.6506 45.5931C14.4677 45.734 15.2915 45.8548 16.1042 46.0204C16.8161 46.1658 17.2683 46.7653 17.2615 47.4946C17.2571 48.0248 17.1899 48.8144 17.1832 49.3446" stroke="#02255B" stroke-width="1.5" stroke-linecap="round" stroke-linejoin="round"/>
    <path d="M12.1373 54.2281C12.5402 54.2974 12.9409 54.3713 13.3439 54.4317C13.4603 54.4495 13.4916 54.4853 13.4693 54.6061C13.3663 55.1721 13.1469 56.5412 13.0529 57.1094C13.0372 57.2056 12.9947 57.2503 12.9006 57.2794C12.4193 57.1966 10.4202 56.8163 9.9031 56.7269C9.82251 56.6665 9.8046 56.6083 9.82251 56.5143C9.92325 55.9528 10.1449 54.5927 10.2322 54.0312C10.2546 53.888 10.3105 53.8746 10.4359 53.8992C10.8299 53.9753 11.7388 54.161 12.135 54.2303L12.1373 54.2281Z" stroke="#02255B" stroke-width="1.5" stroke-linecap="round" stroke-linejoin="round"/>
    <path d="M22.1574 54.9014C22.1081 55.1699 20.6664 63.5722 20.6664 63.5722C20.6038 63.9346 20.259 64.1784 19.8964 64.1158C19.8964 64.1158 5.86232 61.7065 1.74323 61.0041C1.3246 60.9325 1.09626 60.6998 1 60.3061C1.37161 58.1451 2.13499 53.6912 2.5066 51.5302" stroke="#02255B" stroke-width="1.5" stroke-linecap="round" stroke-linejoin="round"/>
    <path d="M15.1123 80.6073H37.3129V67.0553H55.2601V53.5011L69.1553 53.4809V6.25482V3.40707" stroke="#02255B" stroke-width="1.5" stroke-linecap="round" stroke-linejoin="round"/>
    <path d="M32.8402 15.7331C36.9116 15.7331 40.2121 12.435 40.2121 8.36657C40.2121 4.29812 36.9116 1 32.8402 1C28.7689 1 25.4684 4.29812 25.4684 8.36657C25.4684 12.435 28.7689 15.7331 32.8402 15.7331Z" stroke="#02255B" stroke-width="1.5" stroke-linecap="round" stroke-linejoin="round"/>
    <path d="M28.2554 18.9276C29.8538 19.176 33.6953 19.5831 37.2301 18.5451C37.4853 18.469 37.8435 18.5787 38.0226 18.7733C40.3866 21.3414 44.8415 27.5357 45.9048 29.0256C46.0526 29.2314 46.2854 29.3589 46.5384 29.3679L56.8272 29.8041C56.8272 29.8041 59.133 30.3678 59.1733 32.8644C59.2001 34.4795 58.9315 36.0455 56.9167 36.1551C54.743 36.2647 45.8466 35.8598 43.6483 35.7546C43.3349 35.739 43.0461 35.5869 42.8558 35.3386L37.698 28.5693C37.5234 28.3411 37.1607 28.4664 37.163 28.7527L38.43 40.9043C38.4367 41.5866 38.8464 42.1996 39.4732 42.4702L48.2509 47.1121C48.2509 47.1121 50.4896 47.857 50.1157 50.0941C49.7419 52.3311 49.4329 64.3753 49.4329 64.3753C49.4329 64.3753 48.7569 66.4893 45.5399 66.4043C42.0723 66.4133 41.8305 64.0107 41.8305 64.0107L42.3521 53.6554C42.3812 53.085 42.0656 52.5526 41.5529 52.302L36.7779 49.9755C36.1265 49.6578 35.3497 50.0113 35.1571 50.707L28.1569 76.1958C28.1569 76.1958 27.7629 78.8557 23.4849 77.7461C21.4231 77.2137 20.5299 75.2786 20.8701 74.0304C21.2104 72.7821 27.3913 45.9265 27.3913 45.9265C27.3913 45.9265 27.1988 46.168 27.1988 44.4075C27.1988 42.8505 26.516 32.4282 26.4645 29.831C26.46 29.5983 27.2682 27.4642 27.0734 27.5917L21.7656 30.9987C21.4947 31.1732 21.3313 31.4729 21.3358 31.7951L18.0427 43.2711C18.0427 43.2711 17.6487 45.8817 14.5773 45.6558C12.7976 45.526 11.9939 44.4187 12.2111 42.383C12.4014 40.5889 15.4146 29.1487 15.7437 27.8579L26.8384 19.2923C27.2413 18.9813 27.754 18.8471 28.2554 18.9254V18.9276Z" stroke="#02255B" stroke-width="1.5" stroke-linecap="round" stroke-linejoin="round"/>
    <path d="M19.1643 25.2182L23.3438 29.9876" stroke="#02255B" stroke-width="1.5" stroke-linecap="round" stroke-linejoin="round"/>
    <path d="M44.481 27.0503L41.2664 33.2961" stroke="#02255B" stroke-width="1.5" stroke-linecap="round" stroke-linejoin="round"/>
    <path d="M27.1809 43.7409L38.4995 41.3674" stroke="#02255B" stroke-width="1.5" stroke-linecap="round" stroke-linejoin="round"/>
    <path d="M69.3457 6.10269H81.0001L78.4838 10.3732L81.0001 15.2141H69.4554" stroke="#02255B" stroke-width="1.5" stroke-linecap="round" stroke-linejoin="round"/>
</svg>